<svg xmlns="http://www.w3.org/2000/svg" width="32" height="32" viewBox="0 0 32 32">
    <path data-name="합치기 45" d="M-122.887 1350.783a2.324 2.324 0 0 1-2.325-2.325v-15.974a2.324 2.324 0 0 1 2.325-2.326h13.108a2.324 2.324 0 0 1 2.323 2.325v15.977a2.323 2.323 0 0 1-2.323 2.323zm.109-17.333v14.04a.858.858 0 0 0 .86.857h11.171a.857.857 0 0 0 .857-.857v-14.04a.858.858 0 0 0-.857-.858h-11.171a.86.86 0 0 0-.859.859zm13.438-.858h-.014zm-25.768 15.747a2.348 2.348 0 0 1-2.348-2.348v-22.734a2.357 2.357 0 0 1 2.35-2.349h22.623a2.347 2.347 0 0 1 2.346 2.348v4.221a1.372 1.372 0 0 1-1.371 1.373 1.371 1.371 0 0 1-1.371-1.373v-3.06a.764.764 0 0 0-.765-.766h-20.3a.765.765 0 0 0-.766.766v20.414a.765.765 0 0 0 .766.766h5.625a1.372 1.372 0 0 1 1.371 1.371 1.371 1.371 0 0 1-1.371 1.371zm15.492-2.679a.99.99 0 0 1-.99-.992.99.99 0 0 1 .99-.99h6.567a.99.99 0 0 1 .989.99.99.99 0 0 1-.989.992zm0-4.2a.99.99 0 0 1-.99-.992.989.989 0 0 1 .99-.989h6.567a.989.989 0 0 1 .989.989.99.99 0 0 1-.989.992zm0-4.2a.989.989 0 0 1-.99-.99.991.991 0 0 1 .99-.992h6.567a.99.99 0 0 1 .989.992.989.989 0 0 1-.989.99z" transform="translate(138.455 -1319.846)" style="fill:#828b9a;stroke:transparent;stroke-miterlimit:10"/>
</svg>
