<svg xmlns="http://www.w3.org/2000/svg" width="32" height="32" viewBox="0 0 32 32">
    <path data-name="패스 343" d="M1276.726 695.485a1.7 1.7 0 0 0-1.554-.934h-24.618a1.7 1.7 0 0 0-1.555.933 1.426 1.426 0 0 0 .335 1.665l9.685 9.151v10.982a1.535 1.535 0 0 0 1.038 1.416 1.838 1.838 0 0 0 .654.119 1.778 1.778 0 0 0 1.189-.445l4.27-3.846a1.58 1.58 0 0 0 .536-1.166v-7.06l9.683-9.151a1.428 1.428 0 0 0 .337-1.664zm-15.606 9.387-8.422-7.958h20.329l-8.421 7.958a1.558 1.558 0 0 0-.5 1.136v7.05l-2.48 2.233v-9.284a1.556 1.556 0 0 0-.506-1.135z" transform="translate(-1246.862 -690.685)" style="fill:#828b9a"/>
</svg>
