<svg xmlns="http://www.w3.org/2000/svg" width="32" height="32" viewBox="0 0 32 32">
    <path data-name="패스 515" d="M27.572 9.765a1.414 1.414 0 0 0-1-.413 1.413 1.413 0 0 0-1.005.42l-.956.961a12.389 12.389 0 1 0-4.538 11.412 1.426 1.426 0 0 0 .208-2.006 1.421 1.421 0 0 0-2-.213A9.4 9.4 0 0 1 12.4 22h-.04a9.573 9.573 0 0 1 0-19.146 9.588 9.588 0 0 1 9.291 7.546l-.632-.637A1.428 1.428 0 0 0 19 11.788l3.279 3.3a1.468 1.468 0 0 0 2.023 0l3.286-3.306a1.423 1.423 0 0 0-.017-2.017" transform="translate(2 3.573)" style="fill:#828b9a"/>
</svg>
