<svg xmlns="http://www.w3.org/2000/svg" width="32" height="32" viewBox="0 0 32 32">
    <path data-name="합치기 35" d="M3.166 28a3.149 3.149 0 0 1-2.236-.92A3.1 3.1 0 0 1 0 24.858V3.139A3.155 3.155 0 0 1 3.163 0h17.855a3.17 3.17 0 0 1 2.347 1.038l3.819 4.2A3.132 3.132 0 0 1 28 7.347v17.478a3.161 3.161 0 0 1-3.161 3.144L3.17 28zM2.814 3.139v21.719a.352.352 0 0 0 .351.35h2.257v-7.052a2.35 2.35 0 0 1 2.358-2.339h12.295a2.373 2.373 0 0 1 2.38 2.359v7h2.38a.357.357 0 0 0 .353-.35V7.347a.345.345 0 0 0-.093-.238l-3.819-4.2a.344.344 0 0 0-.257-.113h-3.727v3.787a1.988 1.988 0 0 1-2.01 1.959h-7.8A1.988 1.988 0 0 1 5.47 6.583V2.794H3.163a.346.346 0 0 0-.349.345zM7.728 25.2l12.432-.019v-7l-12.378-.086zm.016-18.933h7.273V2.794H7.744z" transform="translate(2 2)" style="fill:#828b9a;stroke:transparent;stroke-miterlimit:10"/>
</svg>
