<svg xmlns="http://www.w3.org/2000/svg" width="32" height="32" viewBox="0 0 32 32">
    <path data-name="합치기 6" d="M1.362 23.914A1.354 1.354 0 0 1 0 22.566v-10.8a1.355 1.355 0 0 1 1.362-1.35 1.356 1.356 0 0 1 1.362 1.35v9.45h24.55v-9.45a1.363 1.363 0 0 1 2.726 0v10.8a1.355 1.355 0 0 1-1.364 1.348zm12.343-8.22V4.622L11.7 6.73a1.252 1.252 0 0 1-1.829 0 1.39 1.39 0 0 1-.006-1.908L14.081.4a1.259 1.259 0 0 1 1.836 0l4.219 4.429a1.39 1.39 0 0 1-.006 1.908 1.256 1.256 0 0 1-1.83 0l-2.006-2.1v11.057a1.3 1.3 0 1 1-2.589 0z" transform="translate(1 4.043)" style="fill:#828b9a;stroke:transparent;stroke-miterlimit:10"/>
</svg>
