<svg xmlns="http://www.w3.org/2000/svg" width="32" height="32" viewBox="0 0 32 32">
    <path data-name="합치기 115" d="M-2680.5 3012.5a15.017 15.017 0 0 1-15-15 15.017 15.017 0 0 1 15-15 15.017 15.017 0 0 1 15 15 15.018 15.018 0 0 1-15 15zm1.147-2.551.07-.007a11.744 11.744 0 0 0 4.718-4.835 21.747 21.747 0 0 0-4.788-.729zm-2.292-.15v-5.4a21.59 21.59 0 0 0-4.656.787 11.627 11.627 0 0 0 4.655 4.614zm-4.691-1.246a15.439 15.439 0 0 1-1.84-2.729q-.593.234-1.164.506a12.57 12.57 0 0 0 3.003 2.222zm11.924-.136a12.6 12.6 0 0 0 2.887-2.223q-.57-.258-1.16-.481a15.6 15.6 0 0 1-1.727 2.703zm-16.237-3.627q.812-.4 1.662-.735a18.314 18.314 0 0 1-1.211-5.58l-2.764-.01a12.432 12.432 0 0 0 2.313 6.324zm20.407-.154a12.422 12.422 0 0 0 2.2-6.085l-2.772-.01a18.366 18.366 0 0 1-1.1 5.39q.856.319 1.673.704zm-16.916-1.21a23.931 23.931 0 0 1 5.512-.942v-3.984l-6.636-.023a16.036 16.036 0 0 0 1.125 4.948zm13.409-.094a16.094 16.094 0 0 0 1.02-4.8l-6.625-.023v3.953a24.182 24.182 0 0 1 5.606.87zm5.72-6.692a12.422 12.422 0 0 0-2.095-6.1q-.848.427-1.739.78a18.36 18.36 0 0 1 1.052 5.315zm-4.7-.016a16.1 16.1 0 0 0-.961-4.677 23.819 23.819 0 0 1-5.667.956v3.7zm-8.921-.031v-3.685a23.839 23.839 0 0 1-5.775-.959 16.262 16.262 0 0 0-.882 4.621zm-8.57-.03a18.511 18.511 0 0 1 .972-5.245q-.85-.335-1.661-.739a12.425 12.425 0 0 0-2.06 5.974zm8.57-5.568v-5.943a13.91 13.91 0 0 0-.357.038 11.964 11.964 0 0 0-4.659 5.071 21.455 21.455 0 0 0 5.02.839zm2.292-.006a21.45 21.45 0 0 0 4.877-.82 11.8 11.8 0 0 0-4.877-5.055zm6.732-1.462q.638-.257 1.252-.556a12.564 12.564 0 0 0-3.194-2.469 15.742 15.742 0 0 1 1.947 3.025zm-15.89-.009a15.721 15.721 0 0 1 1.709-2.81 12.571 12.571 0 0 0-2.863 2.3q.57.273 1.159.51z" transform="translate(2696.5 -2981.5)" style="fill:#828b9a"/>
</svg>
