<svg xmlns="http://www.w3.org/2000/svg" width="32" height="32" viewBox="0 0 32 32">
    <path data-name="합치기 144" d="M2.613 30A2.575 2.575 0 0 1 0 27.473V2.526A2.574 2.574 0 0 1 2.613 0h14.16a1.7 1.7 0 0 1 1.2.492l6.561 6.395A1.557 1.557 0 0 1 25 7.991V12.6a1.238 1.238 0 1 1-2.477 0V8.391l-6.058-5.9H2.613l-.136 24.982 15.333.041a1.243 1.243 0 0 1 0 2.487zM16.25 2.278l-.006-.006zm6.311 25.6V19.76l-1.292 1.3a1.166 1.166 0 0 1-1.65.007 1.172 1.172 0 0 1-.006-1.652l3.286-3.3a1.169 1.169 0 0 1 1.656 0l3.285 3.3a1.176 1.176 0 0 1 .338.825 1.165 1.165 0 0 1-1.166 1.16H27a1.152 1.152 0 0 1-.821-.346l-1.292-1.3v8.116a1.165 1.165 0 1 1-2.33 0zm-16.252-11a1.113 1.113 0 0 1 0-2.226h7.419a1.113 1.113 0 0 1 0 2.226zm0-4.451a1.113 1.113 0 0 1 0-2.226h8.9a1.113 1.113 0 0 1 0 2.226zm0-4.451a1.113 1.113 0 0 1 0-2.226h5.936a1.113 1.113 0 0 1 0 2.226z" transform="translate(2.411 1)" style="fill:#828b9a;stroke:transparent;stroke-miterlimit:10"/>
</svg>
