<svg xmlns="http://www.w3.org/2000/svg" width="32" height="32" viewBox="0 0 32 32">
    <path data-name="합치기 116" d="M-2759.28 3010.074a2.2 2.2 0 0 1 2.2-2.2 2.2 2.2 0 0 1 2.2 2.2 2.2 2.2 0 0 1-2.2 2.2 2.2 2.2 0 0 1-2.2-2.2zm8.512-3.588a2.2 2.2 0 0 1 2.2-2.2 2.2 2.2 0 0 1 2.2 2.2 2.2 2.2 0 0 1-2.2 2.2 2.2 2.2 0 0 1-2.2-2.2zm-17.426 0a2.2 2.2 0 0 1 2.2-2.2 2.2 2.2 0 0 1 2.2 2.2 2.2 2.2 0 0 1-2.2 2.2 2.2 2.2 0 0 1-2.2-2.2zm2.095-8.738a8.728 8.728 0 0 1 8.718-8.719 8.729 8.729 0 0 1 8.718 8.719 8.728 8.728 0 0 1-8.718 8.717 8.727 8.727 0 0 1-8.719-8.717zm8.718 6.317a6.325 6.325 0 0 0 6.319-6.317 6.325 6.325 0 0 0-6.319-6.319 6.324 6.324 0 0 0-6.318 6.319 6.325 6.325 0 0 0 6.318 6.317zm10.6-6.318a2.2 2.2 0 0 1 2.2-2.2 2.2 2.2 0 0 1 2.2 2.2 2.2 2.2 0 0 1-2.2 2.2 2.2 2.2 0 0 1-2.199-2.2zm-25.6 0a2.2 2.2 0 0 1 2.2-2.2 2.2 2.2 0 0 1 2.2 2.2 2.2 2.2 0 0 1-2.2 2.2 2.2 2.2 0 0 1-2.2-2.2zm21.613-8.739a2.2 2.2 0 0 1 2.2-2.2 2.2 2.2 0 0 1 2.2 2.2 2.2 2.2 0 0 1-2.2 2.2 2.2 2.2 0 0 1-2.2-2.2zm-17.426 0a2.2 2.2 0 0 1 2.2-2.2 2.2 2.2 0 0 1 2.2 2.2 2.2 2.2 0 0 1-2.2 2.2 2.2 2.2 0 0 1-2.2-2.2zm8.914-3.588a2.2 2.2 0 0 1 2.2-2.2 2.2 2.2 0 0 1 2.2 2.2 2.2 2.2 0 0 1-2.2 2.2 2.2 2.2 0 0 1-2.2-2.2z" transform="translate(2773.381 -2981.747)" style="fill:#828b9a;stroke:transparent;stroke-miterlimit:10"/>
</svg>
