<svg xmlns="http://www.w3.org/2000/svg" width="32" height="32" viewBox="0 0 32 32">
    <path data-name="합치기 134" d="M-2081.25 3062.614a1.75 1.75 0 0 1-1.75-1.75 1.75 1.75 0 0 1 1.75-1.75h24.5a1.751 1.751 0 0 1 1.75 1.75 1.75 1.75 0 0 1-1.75 1.75zm0-10a1.749 1.749 0 0 1-1.75-1.75 1.75 1.75 0 0 1 1.75-1.75h24.5a1.75 1.75 0 0 1 1.75 1.75 1.75 1.75 0 0 1-1.75 1.75zm0-10a1.749 1.749 0 0 1-1.75-1.75 1.75 1.75 0 0 1 1.75-1.75h24.5a1.751 1.751 0 0 1 1.75 1.75 1.75 1.75 0 0 1-1.75 1.75z" transform="translate(2085 -3035.114)" style="fill:#828b9a"/>
</svg>
