<svg id="Icon-task-open" xmlns="http://www.w3.org/2000/svg" width="32" height="32" viewBox="0 0 32 32">
  <defs>
    <style>
      .cls-1 {
        fill: none;
      }

      .cls-2 {
        fill: #828b9a;
        stroke: rgba(0,0,0,0);
        stroke-miterlimit: 10;
      }
    </style>
  </defs>
  <path id="합치기_155" data-name="합치기 155" class="cls-2" d="M-1884,2840.659v-9.207a1.368,1.368,0,0,1,.046-.225,1.212,1.212,0,0,1,.029-.635c.006-.02.014-.041.022-.061l2.2-5.206v-9.985a1.345,1.345,0,0,1,1.343-1.342h20.713a1.343,1.343,0,0,1,1.342,1.342v9.973l2.209,5.217a1.217,1.217,0,0,1,.049.7,1.358,1.358,0,0,1,.043.217v9.211a1.34,1.34,0,0,1-1.341,1.343h-25.318A1.342,1.342,0,0,1-1884,2840.659Zm2.685-1.343h22.631v-6.522h-6.713a4.792,4.792,0,0,1-5.944,3.261,4.794,4.794,0,0,1-3.262-3.261h-6.712Zm2.3-13.35v4.144h5.563a1.344,1.344,0,0,1,1.342,1.342,2.109,2.109,0,0,0,2.109,2.111,2.109,2.109,0,0,0,2.11-2.108v0a1.344,1.344,0,0,1,1.343-1.342h5.562v-13.425h-18.028Zm5.261.991a1.094,1.094,0,0,1-1.094-1.094,1.1,1.1,0,0,1,1.094-1.094h7.5a1.1,1.1,0,0,1,1.094,1.094,1.094,1.094,0,0,1-1.094,1.094Zm0-5.385a1.094,1.094,0,0,1-1.094-1.094,1.1,1.1,0,0,1,1.094-1.094h7.5a1.1,1.1,0,0,1,1.094,1.094,1.093,1.093,0,0,1-1.094,1.094Z" transform="translate(1886.001 -2812)"/>
</svg>
