<svg xmlns="http://www.w3.org/2000/svg" width="32" height="32" viewBox="0 0 32 32">
    <path data-name="합치기 109" d="m-2828.618 3092.874-8.992-8.992-8.99 8.99a1.763 1.763 0 0 1-2.493 0 1.762 1.762 0 0 1 0-2.492l8.991-8.99-8.991-8.99a1.762 1.762 0 0 1 0-2.492 1.763 1.763 0 0 1 2.493 0l8.99 8.99 8.99-8.99a1.763 1.763 0 0 1 2.493 0 1.764 1.764 0 0 1 0 2.492l-8.991 8.991 8.992 8.992a1.761 1.761 0 0 1 0 2.492 1.756 1.756 0 0 1-1.246.517 1.758 1.758 0 0 1-1.246-.518z" transform="translate(2853.609 -3065.391)" style="fill:#828b9a"/>
</svg>
