<svg xmlns="http://www.w3.org/2000/svg" width="32" height="32" viewBox="0 0 32 32">
    <path data-name="합치기 133" d="m-2026.411 2919-8.234-.024a1.406 1.406 0 0 1-1-.417 1.4 1.4 0 0 1-.41-1 1.4 1.4 0 0 1 .415-.995 1.408 1.408 0 0 1 1-.411l4.811.011-6.117-6.115a1.406 1.406 0 0 1-.406-1.017 1.4 1.4 0 0 1 .429-.989 1.4 1.4 0 0 1 1.946-.015l6.145 6.146-.013-4.812a1.392 1.392 0 0 1 .412-1 1.394 1.394 0 0 1 1-.414 1.413 1.413 0 0 1 1.41 1.407l.026 8.224a1.416 1.416 0 0 1-1.408 1.42zm-24.174-.418a1.423 1.423 0 0 1-.415-1l.025-8.231a1.415 1.415 0 0 1 1.411-1.407h.006a1.412 1.412 0 0 1 1 .419 1.393 1.393 0 0 1 .407 1l-.013 4.807 6.118-6.119a1.417 1.417 0 0 1 2.008.026 1.4 1.4 0 0 1 .013 1.944l-6.143 6.141 4.808-.013a1.413 1.413 0 0 1 1.414 1.408 1.406 1.406 0 0 1-.408 1 1.412 1.412 0 0 1-1 .418l-8.226.027a1.394 1.394 0 0 1-1.005-.419zm14.626-14.627a1.416 1.416 0 0 1 0-1.993l6.131-6.129-4.808.013a1.413 1.413 0 0 1-1.414-1.406 1.414 1.414 0 0 1 1.406-1.417l8.226-.024a1.417 1.417 0 0 1 1.419 1.4l-.026 8.24a1.416 1.416 0 0 1-1.412 1.408 1.407 1.407 0 0 1-1-.414 1.406 1.406 0 0 1-.412-1l.013-4.81-6.13 6.131a1.4 1.4 0 0 1-1 .413 1.394 1.394 0 0 1-.993-.411zm-6.063.013-.021-.021-6.121-6.124.013 4.808a1.415 1.415 0 0 1-1.411 1.414 1.415 1.415 0 0 1-1.411-1.414l-.026-8.22a1.415 1.415 0 0 1 1.413-1.414l8.233.024a1.4 1.4 0 0 1 .994.416 1.4 1.4 0 0 1 .412 1 1.4 1.4 0 0 1-.421 1.008 1.388 1.388 0 0 1-.982.4h-.023l-4.8-.012 6.117 6.115a1.4 1.4 0 0 1 .407 1.016 1.4 1.4 0 0 1-.43.989 1.4 1.4 0 0 1-.979.4 1.407 1.407 0 0 1-.965-.383z" transform="translate(2054 -2890)" style="fill:#828b9a;stroke:transparent;stroke-miterlimit:10"/>
</svg>
