<svg xmlns="http://www.w3.org/2000/svg" width="32" height="32" viewBox="0 0 32 32">
    <g data-name="그룹 1398">
        <path data-name="합치기 19" d="m23.44 25.558-5.913-5.913.013 4.532a1.5 1.5 0 1 1-3 .008l-.025-8.167a1.5 1.5 0 0 1 1.5-1.5l8.167.025a1.5 1.5 0 0 1-.008 3l-4.528-.011 5.911 5.91a1.5 1.5 0 0 1-2.121 2.121zm-23 0a1.5 1.5 0 0 1 0-2.121l5.911-5.91-4.528.011a1.5 1.5 0 0 1-.008-3l8.167-.025a1.5 1.5 0 0 1 1.5 1.5l-.025 8.167a1.5 1.5 0 0 1-3-.008l.013-4.532-5.911 5.918a1.5 1.5 0 0 1-2.12 0zm14.515-14.517a1.5 1.5 0 0 1-.439-1.063l.025-8.165a1.5 1.5 0 0 1 3 .007l-.013 4.532L23.44.438a1.5 1.5 0 0 1 2.121 2.121L19.65 8.471l4.528-.013a1.5 1.5 0 0 1 .008 3l-8.167.025h-.006a1.493 1.493 0 0 1-1.058-.442zm-4.976.441-8.167-.023a1.5 1.5 0 0 1 .008-3l4.528.013-5.91-5.913A1.5 1.5 0 0 1 2.559.44l5.914 5.913-.014-4.532a1.5 1.5 0 1 1 3-.008l.025 8.165a1.5 1.5 0 0 1-1.5 1.5z" transform="translate(3 3.001)" style="fill:#828b9a"/>
    </g>
</svg>
