<svg xmlns="http://www.w3.org/2000/svg" width="32" height="32" viewBox="0 0 32 32">
    <path data-name="합치기 4" d="M19.459 20.161V5.01l-3.113 3.131a1.463 1.463 0 0 1-2.075-2.063L19.886.43a1.467 1.467 0 0 1 2.075 0l5.612 5.648A1.463 1.463 0 0 1 25.5 8.141l-3.117-3.133v15.153a1.462 1.462 0 0 1-2.925 0zM6.041 21.193.426 15.545A1.464 1.464 0 0 1 2.5 13.48l3.113 3.132V1.46a1.462 1.462 0 0 1 2.925 0v15.156l3.116-3.135a1.463 1.463 0 0 1 2.074 2.065l-5.612 5.647a1.467 1.467 0 0 1-2.075 0z" transform="translate(2 5.189)" style="fill:#828b9a;stroke:transparent;stroke-miterlimit:10"/>
</svg>
