<svg xmlns="http://www.w3.org/2000/svg" width="32" height="32" viewBox="0 0 32 32">
    <path data-name="합치기 99" d="M1.359 26.019A1.363 1.363 0 0 1 0 24.647V13.665a1.363 1.363 0 1 1 2.726 0v9.609h24.545v-9.609a1.364 1.364 0 1 1 2.729 0v10.982a1.366 1.366 0 0 1-1.368 1.373zm12.722-7.388L9.859 14.12a1.437 1.437 0 0 1 0-1.942 1.244 1.244 0 0 1 1.831.006l2.01 2.145V1.373a1.3 1.3 0 1 1 2.588 0v12.954l2.012-2.143a1.249 1.249 0 0 1 1.831-.006 1.429 1.429 0 0 1 0 1.942l-4.217 4.511a1.255 1.255 0 0 1-1.835 0z" transform="translate(1 2.99)" style="fill:#828b9a;stroke:transparent;stroke-miterlimit:10"/>
</svg>
