<svg xmlns="http://www.w3.org/2000/svg" width="32" height="32.655" viewBox="0 0 32 32.655">
    <path data-name="합치기 20" d="M2.6 30.361A2.592 2.592 0 0 1 0 27.772V5.747a2.592 2.592 0 0 1 2.6-2.589h11.033a1.3 1.3 0 1 1 0 2.591H3.812A1.214 1.214 0 0 0 2.6 6.96v19.6a1.214 1.214 0 0 0 1.212 1.21h19.642a1.214 1.214 0 0 0 1.215-1.212v-9.8a1.3 1.3 0 0 1 2.6 0v11.014a2.592 2.592 0 0 1-2.595 2.589zm5.22-7.974a2.1 2.1 0 0 1-.6-1.906l1.046-5.407A2.077 2.077 0 0 1 8.837 14L21.989.627a2.12 2.12 0 0 1 2.964-.044l4.4 4.233a2.1 2.1 0 0 1 .038 2.993L16.245 21.171a2.091 2.091 0 0 1-1.054.58l-5.452 1.185a2.024 2.024 0 0 1-.45.048 2.1 2.1 0 0 1-1.469-.597zm2.741-6.8L9.6 20.564l5.023-1.093 9.186-9.338-4.048-3.893zm4.132 3.864zm10.765-11 2.087-2.122L23.5 2.443l-2.092 2.123z" transform="translate(.999 .655)" style="fill:#828b9a;stroke:transparent;stroke-miterlimit:10"/>
</svg>
