<svg xmlns="http://www.w3.org/2000/svg" width="32" height="32" viewBox="0 0 32 32">
    <path data-name="합치기 10" d="M14.753 28H1.3A1.29 1.29 0 0 1 0 26.717V4.606a1.292 1.292 0 0 1 1.3-1.289h5.365V1.289a1.3 1.3 0 0 1 2.594 0v2.028h8.519V1.289a1.3 1.3 0 0 1 2.59 0v2.028h5.371a1.292 1.292 0 0 1 1.3 1.289v11.177A8.68 8.68 0 1 1 14.753 28zm.432-5.711a6.11 6.11 0 1 0 6.115-6.075 6.1 6.1 0 0 0-6.116 6.079zm-12.6 3.134H13.18a8.659 8.659 0 0 1 8.12-11.79 8.724 8.724 0 0 1 3.146.583V12.53H2.588zM24.442 9.948V5.895h-4.074v.922a1.3 1.3 0 0 1-2.59 0v-.922H9.259v.922a1.3 1.3 0 0 1-2.594 0v-.922H2.588v4.053zm-1.483 15.223L20.606 23.7A1.3 1.3 0 0 1 20 22.606v-3.44a1.3 1.3 0 0 1 2.594 0v2.727l1.744 1.094a1.287 1.287 0 0 1 .41 1.778 1.3 1.3 0 0 1-1.1.6 1.274 1.274 0 0 1-.689-.194z" transform="translate(1 .523)" style="fill:#828b9a;stroke:transparent;stroke-miterlimit:10"/>
</svg>
