<svg xmlns="http://www.w3.org/2000/svg" width="32.5" height="32.5" viewBox="0 0 32.5 32.5">
    <path data-name="합치기 11" d="M14.808 28.144H1.3A1.293 1.293 0 0 1 0 26.852V4.628a1.3 1.3 0 0 1 1.3-1.294h5.366v-2.04a1.3 1.3 0 0 1 2.594 0v2.04h8.52v-2.04a1.3 1.3 0 0 1 2.59 0v2.04h5.371a1.3 1.3 0 0 1 1.3 1.294V15.8a8.7 8.7 0 1 1-12.233 12.344zm.378-5.8a6.11 6.11 0 1 0 6.109-6.109 6.111 6.111 0 0 0-6.11 6.109zM2.589 10h21.854V5.924H20.37v.927a1.3 1.3 0 0 1-2.59 0v-.927H9.26v.927a1.3 1.3 0 0 1-2.594 0v-.927H2.589zm21.059 15.41a1.3 1.3 0 0 1-.691-.2l-2.35-1.48a1.3 1.3 0 0 1-.607-1.1v-3.454a1.3 1.3 0 0 1 2.594 0v2.742l1.746 1.1a1.3 1.3 0 0 1-.693 2.392zm0 0z" transform="translate(2 .952)" style="fill:#828b9a;stroke:transparent;stroke-miterlimit:10"/>
</svg>
