<svg xmlns="http://www.w3.org/2000/svg" width="32" height="32" viewBox="0 0 32 32">
    <path data-name="합치기 8" d="M2.155 30A2.1 2.1 0 0 1 0 27.974V2.028A2.1 2.1 0 0 1 2.155 0h14.423a2.24 2.24 0 0 1 1.556.624l2.745 2.695L24.4 6.777a1.952 1.952 0 0 1 .6 1.4v19.8A2.1 2.1 0 0 1 22.845 30zm.431-2.432h19.829V8.861h-5.9a1.257 1.257 0 0 1-1.293-1.216V2.433H2.586zM17.81 6.429h2.654L17.81 3.823zM5.375 21.814a1.217 1.217 0 1 1 0-2.433H15.3a1.217 1.217 0 1 1 0 2.433zm0-6.487a1.217 1.217 0 1 1 0-2.433h4.963a1.217 1.217 0 1 1 0 2.433z" transform="translate(4.008 1)" style="fill:#828b9a;stroke:transparent;stroke-miterlimit:10"/>
</svg>
