<svg xmlns="http://www.w3.org/2000/svg" width="32" height="32" viewBox="0 0 32 32">
    <path data-name="패스 700" d="m24.39 6.777-3.521-3.458L18.124.625A2.244 2.244 0 0 0 16.578 0H2.154A2.094 2.094 0 0 0 0 2.029v25.945A2.094 2.094 0 0 0 2.154 30h20.69A2.1 2.1 0 0 0 25 27.969V8.179a1.957 1.957 0 0 0-.608-1.4M5.375 12.9h4.962a1.217 1.217 0 1 1 0 2.433H5.375a1.217 1.217 0 1 1 0-2.433m9.924 8.92H5.375a1.217 1.217 0 0 1 0-2.433H15.3a1.217 1.217 0 1 1 0 2.433m6.682-14.199a.529.529 0 0 1-.487.319h-4.219a.524.524 0 0 1-.527-.517V3.294a.522.522 0 0 1 .325-.477.552.552 0 0 1 .208-.04.527.527 0 0 1 .369.144l4.216 4.133a.505.505 0 0 1 .115.565" transform="translate(4.008 1.001)" style="fill:#828b9a"/>
</svg>
