<svg xmlns="http://www.w3.org/2000/svg" width="32" height="32" viewBox="0 0 32 32">
    <path data-name="합치기 9" d="M23.058 26 7.157 10.4a1.209 1.209 0 0 0-1.681-.016L0 15.514V1.257A1.265 1.265 0 0 1 1.271 0h25.457A1.265 1.265 0 0 1 28 1.257v23.486A1.264 1.264 0 0 1 26.728 26zm-8.65-16.234a4 4 0 1 0 4-3.933 3.973 3.973 0 0 0-4 3.933zM1.271 26A1.264 1.264 0 0 1 0 24.743v-5.82l6.289-6.014L19.624 26zM16.447 9.766a1.965 1.965 0 1 1 1.966 1.916 1.943 1.943 0 0 1-1.966-1.916z" transform="translate(2 3)" style="fill:#828b9a;stroke:transparent;stroke-miterlimit:10"/>
</svg>
