<svg xmlns="http://www.w3.org/2000/svg" width="32" height="32" viewBox="0 0 32 32">
    <path data-name="패스 701" d="M1389.859 991.469a2.116 2.116 0 0 1-2.079-2.471l1.332-7.774-5.647-5.506a2.111 2.111 0 0 1 1.17-3.6l7.806-1.134 3.492-7.073a2.11 2.11 0 0 1 3.786 0l3.492 7.073 7.8 1.134a2.111 2.111 0 0 1 1.169 3.6l-5.646 5.5 1.332 7.774a2.111 2.111 0 0 1-3.065 2.225l-6.981-3.668c-7.287 3.839-7.62 3.92-7.961 3.92zm7.788-4.01zm.363 0z" transform="translate(-1381.826 -961.1)" style="fill:#828b9a"/>
</svg>
