<svg xmlns="http://www.w3.org/2000/svg" width="32" height="32" viewBox="0 0 32 32">
    <path data-name="합치기 95" d="M8.123 24.412a1.471 1.471 0 0 1-.223-2.065 1.437 1.437 0 0 1 2.045-.23 10.334 10.334 0 0 0 6.577 2.331A10.675 10.675 0 0 0 27.086 13.7a10.556 10.556 0 0 0-21-1.705l1.453-1.485a1.107 1.107 0 0 1 1.577-.01 1.133 1.133 0 0 1 .006 1.6l-3.61 3.667a1.116 1.116 0 0 1-1.585 0L.318 12.1a1.142 1.142 0 0 1 .013-1.6 1.1 1.1 0 0 1 1.569.01l1.256 1.28A13.525 13.525 0 0 1 16.517 0 13.608 13.608 0 0 1 30 13.7a13.608 13.608 0 0 1-13.483 13.7 13.367 13.367 0 0 1-8.394-2.988zm11.514-4.148L15.128 15.7a1.274 1.274 0 0 1-.375-.9V6.579a1.265 1.265 0 1 1 2.531 0v7.7l4.142 4.184a1.293 1.293 0 0 1 0 1.806 1.271 1.271 0 0 1-.894.372 1.252 1.252 0 0 1-.895-.377z" transform="translate(1 2.304)" style="fill:#828b9a;stroke:transparent;stroke-miterlimit:10"/>
</svg>
