<svg xmlns="http://www.w3.org/2000/svg" width="32" height="32" viewBox="0 0 32 32">
    <path data-name="패스 609" d="m28.084 9.3-7.65-1.111-3.422-6.94a2.239 2.239 0 0 0-4.016 0L9.57 8.185 1.916 9.3a2.24 2.24 0 0 0-1.241 3.816l5.538 5.4-1.307 7.622a2.189 2.189 0 0 0-.032.369 2.245 2.245 0 0 0 2.237 2.253 2.234 2.234 0 0 0 1.038-.266L15 24.9l6.845 3.6a2.241 2.241 0 0 0 3.252-2.361l-1.309-7.629 5.537-5.394A2.24 2.24 0 0 0 28.084 9.3m-7.073 9.411 1.173 6.834-6.135-3.227a2.231 2.231 0 0 0-2.089 0l-6.139 3.224 1.173-6.834a2.238 2.238 0 0 0-.644-1.981l-4.965-4.842 6.863-1a2.239 2.239 0 0 0 1.682-1.226L15 3.445l3.068 6.217a2.245 2.245 0 0 0 1.689 1.226l6.862 1-4.97 4.843a2.242 2.242 0 0 0-.637 1.979" transform="translate(1 1.62)" style="fill:#828b9a"/>
</svg>
