<svg xmlns="http://www.w3.org/2000/svg" width="32" height="32" viewBox="0 0 32 32">
  <g id="icon-folder" transform="translate(-527 -58)">
    <path d="M-2515.49,2896.643h-10.3a.843.843,0,0,1-.6-.248l-2.549-2.549a3.465,3.465,0,0,0-2.468-1.024h-7.1a3.5,3.5,0,0,0-3.489,3.492v20.492a3.494,3.494,0,0,0,3.489,3.49h23.021a3.5,3.5,0,0,0,3.49-3.49v-16.673a3.5,3.5,0,0,0-3.49-3.49m.854,20.163a.853.853,0,0,1-.854.852h-23.021a.854.854,0,0,1-.852-.852v-20.492a.854.854,0,0,1,.852-.854h7.1a.85.85,0,0,1,.6.249l2.549,2.549a3.466,3.466,0,0,0,2.468,1.021h10.3a.853.853,0,0,1,.854.854Z" transform="translate(3070 -2832.559)"/>
  </g>
</svg>
