<svg xmlns="http://www.w3.org/2000/svg" width="32" height="32" viewBox="0 0 32 32">
  <g id="icon-folder" transform="translate(-950 -495)">
    <path id="합치기_88" data-name="합치기 88" class="cls-2" d="M3.26,26.894A3.422,3.422,0,0,1,0,23.32V3.574A3.422,3.422,0,0,1,3.26,0H9.5A3.106,3.106,0,0,1,11.8,1.044l2.244,2.461a.521.521,0,0,0,.4.175h9.059A3.433,3.433,0,0,1,26.765,7.25v3.788H27.3c1.982,0,3.129,1.806,2.549,4.027l-2.033,7.789a5.51,5.51,0,0,1-4.309,4.014v.026ZM6.139,15.064,3.861,22.854c-.176.6.131,1.091.668,1.091H23.877a1.439,1.439,0,0,0,1.258-1.091l2.07-7.789c.15-.6-.152-1.078-.691-1.078H7.428A1.489,1.489,0,0,0,6.139,15.064ZM2.691,3.574v14.2l.8-2.709c.656-2.221,2.809-4.027,4.791-4.027H24.074V7.25a.593.593,0,0,0-.566-.621H14.449a3.09,3.09,0,0,1-2.307-1.044L9.9,3.128a.528.528,0,0,0-.4-.18H3.26A.6.6,0,0,0,2.691,3.574Z" transform="translate(951 497.553)"/>
  </g>
</svg>
