<svg xmlns="http://www.w3.org/2000/svg" width="32" height="32" viewBox="0 0 32 32">
    <path d="m-2447.694 2998.779-2.485-2.478a1.331 1.331 0 0 1-.39-.958 1.325 1.325 0 0 1 .4-.945 1.341 1.341 0 0 1 1.873-.006l2.5 2.5a4.779 4.779 0 0 0 3.395 1.406 4.78 4.78 0 0 0 3.4-1.409 4.777 4.777 0 0 0 1.405-3.4 4.764 4.764 0 0 0-1.409-3.4l-2.492-2.492a1.334 1.334 0 0 1-.392-.948 1.326 1.326 0 0 1 .393-.946 1.343 1.343 0 0 1 1.895 0l2.479 2.471a7.449 7.449 0 0 1 2.119 5.339 7.437 7.437 0 0 1-2.277 5.258 7.459 7.459 0 0 1-5.208 2.122 7.463 7.463 0 0 1-5.206-2.114zm4.243-5.006a1.407 1.407 0 0 1-1.005-.4l-.16-.161-8.708-8.707a1.348 1.348 0 0 1-.377-.981 1.326 1.326 0 0 1 .427-.933 1.337 1.337 0 0 1 1.8-.017l8.891 8.9a1.332 1.332 0 0 1 .058 1.868 1.335 1.335 0 0 1-.926.431zm-12.874-3.617-.014-.012-2.469-2.468a7.484 7.484 0 0 1-.016-10.569 7.658 7.658 0 0 1 10.59-.03l2.5 2.5a1.345 1.345 0 0 1-.012 1.9 1.342 1.342 0 0 1-1.87.008l-2.518-2.524a4.9 4.9 0 0 0-6.785.027 4.815 4.815 0 0 0 0 6.79l2.493 2.494a1.328 1.328 0 0 1 .392.943 1.339 1.339 0 0 1-.393.952 1.324 1.324 0 0 1-.945.392 1.361 1.361 0 0 1-.953-.403z" transform="translate(2464 -2971.935)" style="fill:#828b9a;stroke:transparent;stroke-miterlimit:10"/>
</svg>
