<svg xmlns="http://www.w3.org/2000/svg" width="32" height="32" viewBox="0 0 32 32">
    <path d="M737.2 732.58a3.411 3.411 0 0 0-1.279-1.277l-17.221-9.758a3.388 3.388 0 0 0-5.061 2.952v19.516a3.389 3.389 0 0 0 5.061 2.951l17.219-9.757a3.4 3.4 0 0 0 1.281-4.627zm-2.679 1.815v.01a.318.318 0 0 1-.109.107l-17.221 9.757a.307.307 0 0 1-.453-.264v-19.516a.319.319 0 0 1 .174-.289h.151a.209.209 0 0 1 .128.035l17.22 9.755a.3.3 0 0 1 .112.404z" transform="translate(-709.643 -718.255)" style="fill:#828b9a"/>
</svg>
