<svg xmlns="http://www.w3.org/2000/svg" width="32" height="32" viewBox="0 0 32 32">
    <path d="M-2525.343 2986.423a1.286 1.286 0 0 1-1.286-1.286v-5.64h-3.885v2.912a1.286 1.286 0 0 1-1.285 1.286h-7.916a1.286 1.286 0 0 1-1.285-1.286v-8.394a1.286 1.286 0 0 1 1.285-1.286h7.916a1.286 1.286 0 0 1 1.285 1.286v2.911h3.885v-5.64a1.286 1.286 0 0 1 1.286-1.285h13.057a1.286 1.286 0 0 1 1.286 1.285v13.852a1.287 1.287 0 0 1-1.286 1.286zm1.285-2.572h10.487v-11.28h-10.487zm-14.37-2.727h5.343v-5.824h-5.343z" transform="translate(2542 -2962)" style="fill:#828b9a;stroke:transparent;stroke-miterlimit:10"/>
</svg>
