<svg xmlns="http://www.w3.org/2000/svg" width="32" height="32" viewBox="0 0 32 32">
    <g data-name="icon-name space">
        <path d="M20.8 26.966c-.621 0-1.027-.538-1.027-1.368s.406-1.36 1.027-1.36h1.636c1.413 0 1.762-.446 1.762-2.259v-5.295a3.466 3.466 0 0 1 2.049-3.5 3.471 3.471 0 0 1-2.049-3.5V5.126c0-1.706-.243-2.428-1.762-2.428H20.8c-.634 0-1.027-.507-1.027-1.337S20.175 0 20.8 0h2c2.678 0 4.217 1.545 4.217 4.234v5.441a1.883 1.883 0 0 0 1.936 2.075A1.235 1.235 0 0 1 30 13.18c0 .553-.113 1.314-1.048 1.422a1.917 1.917 0 0 0-1.932 2.106v6.171c0 2.636-1.5 4.088-4.217 4.088zm-13.606 0c-2.722 0-4.219-1.452-4.219-4.088v-6.171A1.912 1.912 0 0 0 1.042 14.6C.1 14.494 0 13.733 0 13.18s.1-1.28 1.035-1.43a1.882 1.882 0 0 0 1.936-2.075V4.234A3.85 3.85 0 0 1 7.19 0H9.2c.629 0 1.027.538 1.027 1.36S9.831 2.7 9.2 2.7H7.559C6.042 2.7 5.8 3.42 5.8 5.126v4.549a3.468 3.468 0 0 1-2.049 3.5 3.462 3.462 0 0 1 2.049 3.5v5.295c0 1.814.349 2.259 1.762 2.259H9.2c.629 0 1.027.53 1.027 1.36s-.4 1.368-1.027 1.368z" transform="translate(1 2.517)" style="fill:#828b9a;stroke:transparent;stroke-miterlimit:10"/>
    </g>
</svg>
