<svg xmlns="http://www.w3.org/2000/svg" width="32" height="32" viewBox="0 0 32 32">
    <path d="m21.62 29.718-3.52-3.524a1.158 1.158 0 0 1-.339-.817 1.173 1.173 0 0 1 .339-.824l1.543-1.543H14.37a1.08 1.08 0 0 1-1.081-1.072V11.9h-2.112l-4.182 4.186a1.166 1.166 0 0 1-1.646 0l-5.01-5.014a1.166 1.166 0 0 1 0-1.641L9.432.343a1.153 1.153 0 0 1 1.642 0l5.007 5.008a1.151 1.151 0 0 1 0 1.641l-2.762 2.766h7.956l3.215-3.217a1.161 1.161 0 0 1 1.648 0l3.518 3.524a1.138 1.138 0 0 1 .346.817 1.153 1.153 0 0 1-.346.824L23.269 18.1a1.167 1.167 0 0 1-.825.34 1.148 1.148 0 0 1-.823-.34L18.1 14.576a1.158 1.158 0 0 1-.339-.817 1.173 1.173 0 0 1 .339-.824l1.028-1.035H15.44v8.963h6.343l2.706-2.707a1.161 1.161 0 0 1 1.648 0l3.518 3.524a1.138 1.138 0 0 1 .345.82 1.153 1.153 0 0 1-.346.824l-6.387 6.394a1.167 1.167 0 0 1-.825.34 1.148 1.148 0 0 1-.822-.34zm-1.06-4.341 1.883 1.876 4.746-4.753-1.876-1.876zm0-11.618 1.883 1.876 4.745-4.753-1.875-1.876zM2.8 10.255l3.367 3.367 7.447-7.453-3.361-3.36z" transform="translate(.999 .971)" style="fill:#828b9a;stroke:transparent;stroke-miterlimit:10"/>
</svg>
