<svg xmlns="http://www.w3.org/2000/svg" width="32" height="32" viewBox="0 0 32 32">
    <path d="M-2078.72 3091.519h-24.936a1.343 1.343 0 0 1-1.343-1.343V3067.164a1.343 1.343 0 0 1 1.343-1.341h5.56v-2.111a1.343 1.343 0 0 1 1.344-1.342 1.343 1.343 0 0 1 1.342 1.342v2.111h8.82v-2.111a1.343 1.343 0 0 1 1.344-1.342 1.343 1.343 0 0 1 1.343 1.342v2.111h5.561a1.343 1.343 0 0 1 1.343 1.341v22.7a1.343 1.343 0 0 1-.695 1.176 1.339 1.339 0 0 1-1.029.481zm-23.6-2.684h22.633v-13.674h-22.633zm22.633-16.316v-4.012h-4.218v.957a1.344 1.344 0 0 1-1.344 1.342 1.342 1.342 0 0 1-1.342-1.342v-.957h-8.82v.957a1.344 1.344 0 0 1-1.344 1.342 1.342 1.342 0 0 1-1.342-1.342v-.957h-4.223v4.012z" transform="translate(2107 -3060.946)" style="fill:#828b9a;stroke:transparent;stroke-miterlimit:10"/>
</svg>
