<svg xmlns="http://www.w3.org/2000/svg" width="32" height="32" viewBox="0 0 32 32">
    <path d="M-1144.605 3966.873a15.019 15.019 0 0 1 15-15 15.019 15.019 0 0 1 15 15 15.045 15.045 0 0 1-15 15 15.02 15.02 0 0 1-15-15zm2.738 0a12.274 12.274 0 0 0 12.263 12.259 12.274 12.274 0 0 0 12.26-12.26 12.3 12.3 0 0 0-12.259-12.259 12.275 12.275 0 0 0-12.264 12.26zm15.9 6.563-4.511-4.558a1.285 1.285 0 0 1-.372-.9v-8.222a1.271 1.271 0 0 1 1.264-1.276 1.271 1.271 0 0 1 1.265 1.276v7.693l4.141 4.183a1.288 1.288 0 0 1 0 1.806 1.26 1.26 0 0 1-.893.374 1.257 1.257 0 0 1-.897-.375z" transform="translate(1145.605 -3950.872)" style="fill:#828b9a;stroke:transparent;stroke-miterlimit:10"/>
</svg>
