<svg xmlns="http://www.w3.org/2000/svg" width="32" height="32" viewBox="0 0 32 32">
    <path d="M-2295.387 2924.353a2.574 2.574 0 0 1-2.613-2.526v-24.947a2.574 2.574 0 0 1 2.613-2.526h14.159a1.7 1.7 0 0 1 1.2.493l6.562 6.394a1.556 1.556 0 0 1 .463 1.1v19.482a2.574 2.574 0 0 1-2.612 2.526zm-.137-27.474v24.947l19.912.041.125-18.105h-6.488a1.087 1.087 0 0 1-1.084-1.088v-5.834h-3.957v1.126c0 .2-.114.367-.252.367h-2.21c-.138 0-.249-.164-.249-.367v-1.126h-5.66zm14.635 4.706h4.222l-4.222-4.116zm-10.871 17.464a.681.681 0 0 1-.678-.682v-4.074a.684.684 0 0 1 .681-.682h1.779a.253.253 0 0 0 .251-.252v-.856a.25.25 0 0 1 .25-.252h2.078a.383.383 0 0 1 .383.384v5.733a.684.684 0 0 1-.68.682zm.435-1.925v.857a.276.276 0 0 0 .3.251h2.611a.275.275 0 0 0 .3-.251v-.857a.275.275 0 0 0-.3-.251h-2.611a.276.276 0 0 0-.299.251zm-.865-4.891c-.138 0-.249-.165-.249-.367v-1.253c0-.2.111-.367.249-.367h2.211c.138 0 .251.166.251.367v1.253c0 .2-.113.367-.251.367zm2.711-1.986c-.138 0-.249-.165-.249-.367v-1.252c0-.2.112-.367.249-.367h2.21c.138 0 .252.165.252.367v1.252c0 .2-.114.367-.252.367zm-2.711-1.986c-.138 0-.249-.165-.249-.367v-1.253c0-.2.111-.366.249-.366h2.211c.138 0 .251.165.251.366v1.253c0 .2-.113.367-.251.367zm2.711-1.985c-.138 0-.249-.165-.249-.367v-1.253c0-.2.112-.367.249-.367h2.21c.138 0 .252.165.252.367v1.253c0 .2-.114.367-.252.367zm-2.711-1.986c-.138 0-.249-.165-.249-.367v-1.251c0-.2.111-.367.249-.367h2.211c.138 0 .251.165.251.367v1.251c0 .2-.113.367-.251.367zm2.711-1.985c-.138 0-.249-.165-.249-.367v-1.253c0-.2.112-.366.249-.366h2.21c.138 0 .252.164.252.366v1.253c0 .2-.114.367-.252.367zm-2.711-1.984c-.138 0-.249-.165-.249-.367v-1.254c0-.2.111-.366.249-.366h2.211c.138 0 .251.165.251.366v1.253c0 .2-.113.367-.251.367z" transform="translate(2301.46 -2893.353)" style="fill:#828b9a;stroke:transparent;stroke-miterlimit:10"/>
</svg>
