<svg id="icon-monitor" xmlns="http://www.w3.org/2000/svg" width="32" height="32" viewBox="0 0 32 32">
    <g id="그룹_1402" data-name="그룹 1402" transform="translate(3.136 52.558)">
        <g id="그룹_1405" data-name="그룹 1405" transform="translate(-2.136 -51)">
            <g id="그룹_1404" data-name="그룹 1404" style="clip-path:url(#clip-path)">
                <path id="패스_673" data-name="패스 673" class="cls-1" d="M23.5 9.474h-6.382l-.587-1.914A.843.843 0 0 0 15.313 7a.838.838 0 0 0-.411.5l-1.058 3.448L11.862 4.5a.844.844 0 0 0-1.221-.558.836.836 0 0 0-.407.5L8.71 9.407H3.73a.843.843 0 0 0 0 1.687h5.6a.83.83 0 0 0 .817-.632l.892-2.9 2 6.505a.849.849 0 0 0 .806.6.8.8 0 0 0 .25-.04.827.827 0 0 0 .567-.592l1.049-3.415a.88.88 0 0 0 .8.546h7a.843.843 0 0 0 0-1.685m-9.52 4.795z" transform="translate(1.385 1.846)"/>
                <path id="패스_674" data-name="패스 674" class="cls-1" d="M27.789 0H2.211A2.215 2.215 0 0 0 0 2.211v17.333a2.215 2.215 0 0 0 2.211 2.211h25.578A2.215 2.215 0 0 0 30 19.544V2.211A2.215 2.215 0 0 0 27.789 0m-.306 2.525-.007 16.713H2.526l-.009-.007.009-16.714z" transform="translate(0 .001)"/>
                <path id="패스_675" data-name="패스 675" class="cls-1" d="M10.521 21.339a1.184 1.184 0 0 1-1.184-1.184v-4.944a1.184 1.184 0 0 1 2.368 0v4.944a1.184 1.184 0 0 1-1.184 1.184" transform="translate(4.48 6.732)"/>
                <path id="패스_676" data-name="패스 676" class="cls-1" d="M18.359 20.287H6.521a1.184 1.184 0 1 1 0-2.368h11.838a1.184 1.184 0 1 1 0 2.368" transform="translate(2.561 8.598)"/>
            </g>
        </g>
    </g>
</svg>
