<svg xmlns="http://www.w3.org/2000/svg" width="32" height="32" viewBox="0 0 32 32">
  <g id="icon-primary_key" data-name="icon-primary key" transform="translate(-1323 -16)">
    <path d="M13.11.156a11.2,11.2,0,0,1,7.175,17.629l.166.165h1.36a.886.886,0,0,1,.885.885v1.126h1.133a.886.886,0,0,1,.885.885v1.127h1.133a.885.885,0,0,1,.885.885v1.135h1.39a.89.89,0,0,1,.647.28l.991,1.06a.884.884,0,0,1,.238.615l-.037,3.65a.886.886,0,0,1-.885.877h-3.6a.886.886,0,0,1-.627-.26l-8.865-8.866A11.213,11.213,0,1,1,13.11.156M7.775,10.428A2.955,2.955,0,1,0,5.646,8.3a2.959,2.959,0,0,0,2.128,2.128" transform="translate(1324 16.762)"/>
  </g>
</svg>
