<svg xmlns="http://www.w3.org/2000/svg" width="32" height="32" viewBox="0 0 32 32">
  <g id="icon-database" transform="translate(-1323 -16)">
    <path d="M13,0C6.74,0,0,1.573,0,5.028V24.972C0,28.427,6.74,30,13,30s13-1.574,13-5.029V5.028C26,1.573,19.261,0,13,0M23.325,18.324c0,.738-3.618,2.545-10.325,2.545S2.676,19.062,2.676,18.324V14.878C5.412,16.211,9.653,16.705,13,16.705s7.588-.494,10.325-1.828Zm0-6.648c0,.739-3.618,2.548-10.325,2.548S2.676,12.415,2.676,11.676V8.232C5.414,9.564,9.653,10.057,13,10.057s7.588-.493,10.325-1.825ZM13,7.575c-6.707,0-10.324-1.807-10.324-2.546S6.293,2.483,13,2.483,23.325,4.29,23.325,5.028,19.707,7.575,13,7.575M2.676,21.526C5.414,22.858,9.653,23.353,13,23.353s7.588-.494,10.325-1.826v3.446c0,.777-3.9,2.545-10.325,2.545S2.676,25.749,2.676,24.972Z" transform="translate(1326 16.999)"/>
  </g>
</svg>
