<svg data-name="그룹 4266" xmlns="http://www.w3.org/2000/svg" width="32" height="32" viewBox="0 0 32 32">
    <g data-name="그룹 4205">
        <path data-name="패스 3305" d="M29.415 2.987H2.585A1.587 1.587 0 0 0 1 4.572v22.9a1.543 1.543 0 0 0 1.542 1.542h26.916A1.543 1.543 0 0 0 31 27.471V4.572a1.587 1.587 0 0 0-1.585-1.585m-.6 3.973H3.185V5.172h25.629zm0 19.868H3.185V9.146h25.629z" style="fill:#999"/>
        <path data-name="패스 3306" d="M7.06 25.04h17.88a1.093 1.093 0 0 0 1.093-1.093v-11.92a1.093 1.093 0 0 0-1.093-1.093H7.06a1.093 1.093 0 0 0-1.093 1.093v11.92A1.093 1.093 0 0 0 7.06 25.04m16.788-6.159h-3.775v-1.788h3.775zm-5.961 0h-3.775v-1.788h3.775zm-5.96 0H8.152v-1.788h3.775zm-3.775 2.185h3.775v1.788H8.152zm5.961 0h3.775v1.788h-3.775zm5.96 0h3.775v1.788h-3.775zm3.775-6.159h-3.775v-1.788h3.775zm-5.961 0h-3.775v-1.788h3.775zm-9.735-1.788h3.775v1.788H8.152z" style="fill:#999"/>
    </g>
</svg>
