<svg xmlns="http://www.w3.org/2000/svg" width="32.112" height="32" viewBox="0 0 32.112 32">
  <defs>
    <style>
      .cls-1 {
        fill: none;
      }

      .cls-2 {
        fill: #828b9a;
        stroke: rgba(0,0,0,0);
        stroke-miterlimit: 10;
      }
    </style>
  </defs>
  <g id="icon-expand" transform="translate(-949.944 -495)">
    <path id="합치기_160" data-name="합치기 160" class="cls-2" d="M7683.841,3422.7l-3.874-3.9a1.01,1.01,0,0,1,1.432-1.424l2.148,2.161v-4.514a1.009,1.009,0,1,1,2.019,0v4.514l2.146-2.161a1.01,1.01,0,1,1,1.432,1.424l-3.872,3.9a1.012,1.012,0,0,1-1.431,0Zm-13.127-9.834a1.718,1.718,0,0,1-1.714-1.718v-6.3a1.717,1.717,0,0,1,1.714-1.716h27.681a1.719,1.719,0,0,1,1.718,1.716v6.3a1.72,1.72,0,0,1-1.718,1.718Zm.9-2.612H7697.5v-4.513h-25.891Zm11.938-9.286v-4.518l-2.148,2.165a1.01,1.01,0,0,1-1.432-1.424l3.874-3.9a1.007,1.007,0,0,1,1.431,0l3.872,3.9a1.01,1.01,0,0,1-1.432,1.424l-2.146-2.161v4.514a1.009,1.009,0,0,1-2.019,0Z" transform="translate(-6718.556 -2896.999)"/>
  </g>
</svg>
