<svg xmlns="http://www.w3.org/2000/svg" width="32.112" height="32" viewBox="0 0 32.112 32">
  <defs>
    <style>
      .cls-1 {
        fill: none;
      }

      .cls-2 {
        fill: #828b9a;
        stroke: rgba(0,0,0,0);
        stroke-miterlimit: 10;
      }
    </style>
  </defs>
  <g id="icon-compact" transform="translate(-949.944 -495)">
    <path id="합치기_161" data-name="합치기 161" class="cls-2" d="M6645.747,2921.99v-4.515l-2.149,2.162a1.009,1.009,0,0,1-1.432-1.423l3.875-3.9a1.008,1.008,0,0,1,1.431,0l3.873,3.9a1.01,1.01,0,0,1-1.433,1.423l-2.145-2.159v4.512a1.01,1.01,0,1,1-2.02,0Zm-12.833-9.121a1.718,1.718,0,0,1-1.714-1.718v-6.3a1.715,1.715,0,0,1,1.714-1.714H6660.6a1.716,1.716,0,0,1,1.715,1.714v6.3a1.719,1.719,0,0,1-1.715,1.718Zm.9-2.611h25.89v-4.514h-25.89Zm12.229-8.575-3.873-3.9a1.01,1.01,0,0,1,1.431-1.425l2.149,2.16v-4.513a1.01,1.01,0,1,1,2.02,0v4.511l2.145-2.158a1.01,1.01,0,0,1,1.433,1.425l-3.871,3.9a1.011,1.011,0,0,1-1.433,0Z" transform="translate(-5680.755 -2397)"/>
  </g>
</svg>
