<svg xmlns="http://www.w3.org/2000/svg" width="32" height="32" viewBox="0 0 32 32">
  <defs>
    <style>
      .cls-1 {
        fill: none;
      }

      .cls-2 {
        fill: #828b9a;
        stroke: rgba(0,0,0,0);
        stroke-miterlimit: 10;
      }
    </style>
  </defs>
  <g id="icon-import" transform="translate(-950 -495)">
    <path id="합치기_169" data-name="합치기 169" class="cls-2" d="M15885.791,6672a2.547,2.547,0,0,1-2.592-2.5v-4.912a1.21,1.21,0,1,1,2.421,0v4.912a.183.183,0,0,0,.171.078h19.883a.187.187,0,0,0,.171-.078v-19.139l-6.113-5.942h-13.94a.191.191,0,0,0-.171.078v10.259a1.21,1.21,0,0,1-2.421,0V6644.5a2.549,2.549,0,0,1,2.592-2.5h14.234a1.681,1.681,0,0,1,1.187.484l6.6,6.411a1.515,1.515,0,0,1,.458,1.082V6669.5a2.547,2.547,0,0,1-2.592,2.5Zm13.732-27.78,0,0Zm-6.89,20.752a1.166,1.166,0,0,1,0-1.647l2.623-2.621h-14.046a1.21,1.21,0,0,1,0-2.421h14.044l-2.621-2.622a1.165,1.165,0,1,1,1.646-1.647l4.655,4.656a1.166,1.166,0,0,1,0,1.647l-4.655,4.656a1.162,1.162,0,0,1-1.646,0Z" transform="translate(-14929 -6145.999)"/>
  </g>
</svg>
