<svg xmlns="http://www.w3.org/2000/svg" width="32" height="32" viewBox="0 0 32 32">
    <path data-name="합치기 162" d="M-2078.723 3091.52zm-24.934 0a1.342 1.342 0 0 1-1.341-1.343V3067.163a1.342 1.342 0 0 1 1.341-1.341h5.561v-2.109a1.343 1.343 0 0 1 1.344-1.343 1.343 1.343 0 0 1 1.343 1.343v2.109h8.818v-2.109a1.343 1.343 0 0 1 1.345-1.343 1.342 1.342 0 0 1 1.343 1.343v2.109h5.56a1.342 1.342 0 0 1 1.343 1.341v22.7a1.342 1.342 0 0 1-.7 1.176 1.338 1.338 0 0 1-1.028.479zm23.972-19v-4.013h-4.218v.956a1.343 1.343 0 0 1-1.345 1.343 1.343 1.343 0 0 1-1.343-1.343v-.956h-8.818v.956a1.344 1.344 0 0 1-1.344 1.343 1.343 1.343 0 0 1-1.343-1.343v-.956h-4.223v4.013z" transform="translate(2107 -3060.945)" style="fill:#828b9a;stroke:transparent;stroke-miterlimit:10"/>
</svg>
