<svg xmlns="http://www.w3.org/2000/svg" width="32" height="32" viewBox="0 0 32 32">
  <defs>
    <style>
      .cls-1 {
        fill: none;
      }

      .cls-2 {
        fill: #828b9a;
        stroke: rgba(0,0,0,0);
        stroke-miterlimit: 10;
      }
    </style>
  </defs>
  <g id="icon-module" transform="translate(-1323 -16)">
    <path id="합치기_163" data-name="합치기 163" class="cls-2" d="M13969.248,687.614a1.165,1.165,0,0,1-1.158-1.16v-6.047h-3.539v3.2a1.157,1.157,0,0,1-1.156,1.16h-8.234a1.157,1.157,0,0,1-1.16-1.16v-8.734a1.157,1.157,0,0,1,1.16-1.16h8.234a1.156,1.156,0,0,1,1.156,1.16v3.21h3.539V672.04a1.161,1.161,0,0,1,1.158-1.16h13.592a1.161,1.161,0,0,1,1.16,1.16v14.413a1.165,1.165,0,0,1-1.16,1.16Z" transform="translate(-12630 -647.247)"/>
  </g>
</svg>
