<svg xmlns="http://www.w3.org/2000/svg" width="32" height="32" viewBox="0 0 32 32">
  <defs>
    <style>
      .cls-1 {
        fill: none;
      }

      .cls-2 {
        fill: #828b9a;
        stroke: rgba(0,0,0,0);
        stroke-miterlimit: 10;
      }
    </style>
  </defs>
  <g id="icon-class" transform="translate(-1323 -16)">
    <path id="합치기_164" data-name="합치기 164" class="cls-2" d="M13901.011,704.124l-3.523-3.524a1.156,1.156,0,0,1-.342-.817,1.17,1.17,0,0,1,.342-.824l1.543-1.543h-5.27a1.08,1.08,0,0,1-1.08-1.072V686.309h-2.113l-4.182,4.184a1.167,1.167,0,0,1-1.646,0l-5.008-5.014a1.164,1.164,0,0,1,0-1.641l9.092-9.087a1.154,1.154,0,0,1,1.643,0l5.008,5.008a1.153,1.153,0,0,1,0,1.641l-2.764,2.765h7.955l3.215-3.216a1.159,1.159,0,0,1,1.646,0l3.52,3.524a1.143,1.143,0,0,1,.346.817,1.158,1.158,0,0,1-.346.824l-6.387,6.394a1.169,1.169,0,0,1-.824.34,1.149,1.149,0,0,1-.824-.34l-3.523-3.524a1.156,1.156,0,0,1-.342-.817,1.17,1.17,0,0,1,.342-.824l1.031-1.033h-3.686v8.963h6.34l2.707-2.706a1.159,1.159,0,0,1,1.646,0l3.52,3.524a1.143,1.143,0,0,1,.346.817,1.158,1.158,0,0,1-.346.824l-6.387,6.394a1.169,1.169,0,0,1-.824.34A1.149,1.149,0,0,1,13901.011,704.124Z" transform="translate(-12555.393 -657.436)"/>
  </g>
</svg>
