<svg xmlns="http://www.w3.org/2000/svg" width="32" height="32" viewBox="0 0 32 32">
    <path data-name="합치기 165" d="M6471.188 2802.047v-23.29a2.738 2.738 0 0 1 2.743-2.737h11.67a1.374 1.374 0 1 1 .228 2.739 1.312 1.312 0 0 1-.228 0h-10.384a1.284 1.284 0 0 0-1.281 1.279v20.722a1.285 1.285 0 0 0 1.281 1.28h20.767a1.282 1.282 0 0 0 1.283-1.281V2790.4a1.375 1.375 0 1 1 2.749 0v11.644a2.739 2.739 0 0 1-2.743 2.737h-23.346a2.739 2.739 0 0 1-2.739-2.734zm9.2-8.262.877-4.547a2.017 2.017 0 0 1 .536-1.021l9.2-9.367 5.8 5.58-9.2 9.375a2.008 2.008 0 0 1-1 .555l-4.6 1a1.368 1.368 0 0 1-.29.031 1.352 1.352 0 0 1-1.328-1.606zm11.932-16.253 2.673-2.713a1.478 1.478 0 0 1 2.078-.027l3.666 3.521a1.48 1.48 0 0 1 .031 2.105l-2.641 2.683z" transform="translate(-6470.188 -2773.579)" style="fill:#828b9a;stroke:transparent;stroke-miterlimit:10"/>
</svg>
