<svg xmlns="http://www.w3.org/2000/svg" width="32" height="32" viewBox="0 0 32 32">
    <path data-name="합치기 166" d="M6305.5 2802.976v-25.946a2.094 2.094 0 0 1 2.154-2.029h14.424a2.244 2.244 0 0 1 1.546.624l2.745 2.695 3.521 3.459a1.954 1.954 0 0 1 .608 1.4v19.789a2.1 2.1 0 0 1-2.156 2.032h-20.752a2.094 2.094 0 0 1-2.09-2.024zm4.8-6.785v4.507a.756.756 0 0 0 .753.755h4.51a.758.758 0 0 0 .755-.755v-6.344a.425.425 0 0 0-.424-.424h-2.307a.278.278 0 0 0-.278.278v.948a.277.277 0 0 1-.278.278h-1.975a.758.758 0 0 0-.756.757zm0-4.074v1.385c0 .226.126.407.278.407h2.453c.154 0 .278-.181.278-.407v-1.385c0-.224-.124-.405-.278-.405h-2.453c-.154 0-.278.181-.278.405zm3.009-2.2v1.385c0 .226.124.407.278.407h2.453c.153 0 .278-.181.278-.407v-1.385c0-.224-.125-.405-.278-.405h-2.453c-.156.003-.28.188-.28.408zm-3.009-2.2v1.384c0 .224.126.407.278.407h2.453c.154 0 .278-.183.278-.407v-1.384c0-.224-.124-.407-.278-.407h-2.453c-.154.008-.278.19-.278.414zm3.009-2.2v1.384c0 .224.124.407.278.407h2.453c.153 0 .278-.183.278-.407v-1.384c0-.224-.125-.407-.278-.407h-2.453c-.156.01-.28.19-.28.417zm-3.009-2.2v1.385c0 .224.126.405.278.405h2.453c.154 0 .278-.181.278-.405v-1.385c0-.224-.124-.407-.278-.407h-2.453c-.154.013-.278.196-.278.42zm12.484-5.551a.545.545 0 0 0-.208.04.525.525 0 0 0-.326.477v4.129a.526.526 0 0 0 .527.518H6327a.53.53 0 0 0 .486-.319.508.508 0 0 0-.114-.566l-4.217-4.132a.525.525 0 0 0-.362-.145zm-9.475 3.354v1.385c0 .224.124.405.278.405h2.453c.153 0 .278-.181.278-.405v-1.385c0-.224-.125-.405-.278-.405h-2.453c-.156.013-.28.194-.28.418zm-3.009-2.2v1.385c0 .224.126.407.278.407h2.453c.154 0 .278-.183.278-.407v-1.385c0-.224-.124-.405-.278-.405h-2.453c-.154.015-.278.196-.278.421zm3.009-2.2v1.388c0 .224.124.407.278.407h2.453c.153 0 .278-.183.278-.407v-1.388c0-.226-.125-.407-.278-.407h-2.453c-.156.015-.28.197-.28.422zm-1.444 23.812a.306.306 0 0 1-.329-.278v-.947a.306.306 0 0 1 .329-.278h2.9a.305.305 0 0 1 .327.278v.947a.305.305 0 0 1-.327.278z" transform="translate(-6302 -2774.002)" style="fill:#828b9a;stroke:transparent;stroke-miterlimit:10"/>
</svg>
