<svg xmlns="http://www.w3.org/2000/svg" width="32" height="32" viewBox="0 0 32 32">
    <path data-name="패스 765" d="M28.753 4.178h-8.827A4.14 4.14 0 0 0 15.835 0h-1.66a4.14 4.14 0 0 0-4.093 4.178H1.254a1.255 1.255 0 0 0 0 2.51h2.5v18.8a3.755 3.755 0 0 0 3.75 3.76h15a3.755 3.755 0 0 0 3.75-3.76v-18.8h2.5a1.255 1.255 0 0 0 0-2.51M14.175 2.35h1.66a1.791 1.791 0 0 1 1.747 1.828h-5.156a1.791 1.791 0 0 1 1.749-1.828m-1.522 19.7a1.366 1.366 0 1 1-2.733 0V11.092a1.366 1.366 0 1 1 2.733 0zm7.437-10.958v10.955a1.367 1.367 0 0 1-2.734 0V11.092a1.367 1.367 0 1 1 2.734 0z" transform="translate(.996 1.375)" style="fill:#828b9a"/>
</svg>
