<svg id="icon-setting" xmlns="http://www.w3.org/2000/svg" width="32" height="32" viewBox="0 0 32 32">
    <defs>
        <style>
            .cls-1{fill:none}
        </style>
    </defs>
    <g id="그룹_1440" data-name="그룹 1440" transform="translate(1 1)">
        <g id="그룹_1439" data-name="그룹 1439" style="clip-path:url(#clip-path)">
            <path id="패스_764" data-name="패스 764" d="m25.912 10.856-.281-.68c1.636-3.79 1.635-4.124.994-4.765l-2.139-2.133c-.663-.659-1.138-.578-4.7 1.073l-.68-.281C17.585.236 17.345 0 16.445 0h-3.016c-.944 0-1.22.394-2.577 4.085l-.675.278C6.387 2.729 6.05 2.732 5.415 3.37L3.287 5.5c-.673.668-.587 1.144 1.064 4.717l-.281.683C.236 12.415 0 12.652 0 13.552v3.019c0 .945.394 1.223 4.091 2.578l.278.674c-1.636 3.781-1.635 4.115-1 4.761l2.136 2.137c.672.675 1.107.6 4.707-1.07l.682.283C12.415 29.766 12.655 30 13.555 30h3.016c.945 0 1.222-.394 2.576-4.086l.679-.283c3.779 1.636 4.114 1.631 4.758 1L26.72 24.5c.671-.669.588-1.143-1.071-4.71l.28-.679C29.766 17.584 30 17.345 30 16.445v-3.017c0-.946-.393-1.221-4.088-2.572M15.008 20A5 5 0 1 1 20 15a5 5 0 0 1-4.995 5" style="fill:#828b9a"/>
        </g>
    </g>
</svg>
