<svg id="Icon-task" xmlns="http://www.w3.org/2000/svg" width="32" height="32" viewBox="0 0 32 32">
  <defs>
    <style>
      .cls-1 {
        fill: none;
      }

      .cls-2 {
        fill: #828b9a;
      }
    </style>
  </defs>
  <path id="패스_759" data-name="패스 759" class="cls-2" d="M0,26.661V17.454a1.341,1.341,0,0,1,.046-.225,1.212,1.212,0,0,1,.029-.635c.006-.02.014-.041.022-.061l2.2-5.206V1.342A1.344,1.344,0,0,1,3.64,0H24.353a1.343,1.343,0,0,1,1.342,1.342v9.973L27.9,16.532a1.212,1.212,0,0,1,.049.7,1.436,1.436,0,0,1,.043.217V26.66A1.34,1.34,0,0,1,26.659,28H1.337A1.342,1.342,0,0,1,0,26.661M4.985,11.968v4.144h5.563a1.343,1.343,0,0,1,1.342,1.342A2.109,2.109,0,0,0,14,19.565h0a2.109,2.109,0,0,0,2.11-2.108,1.344,1.344,0,0,1,1.343-1.342h5.562V2.69H4.986Zm5.261.991a1.094,1.094,0,0,1,0-2.188h7.5a1.094,1.094,0,0,1,0,2.188Zm0-5.385a1.094,1.094,0,0,1,0-2.188h7.5a1.094,1.094,0,0,1,0,2.188h-7.5Z" transform="translate(2.002 1.999)"/>
</svg>
