<svg xmlns="http://www.w3.org/2000/svg" width="32" height="32" viewBox="0 0 32 32">
  <defs>
    <style>
      .cls-1 {
        fill: none;
      }

      .cls-2 {
        fill: #828b9a;
        stroke: rgba(0,0,0,0);
        stroke-miterlimit: 10;
      }
    </style>
  </defs>
  <g id="icon-folder" transform="translate(-950 -495)">
    <path id="합치기_88" data-name="합치기 88" class="cls-2" d="M3.256,26.894A3.424,3.424,0,0,1,0,23.326V3.569A3.425,3.425,0,0,1,3.256,0H9.5a3.1,3.1,0,0,1,2.3,1.047l2.242,2.457a.545.545,0,0,0,.4.18h9.065a3.425,3.425,0,0,1,3.255,3.569v3.784H27.3c1.984,0,3.127,1.809,2.547,4.03l-2.03,7.795a5.5,5.5,0,0,1-4.307,4v.026ZM2.689,3.569V17.79l.8-2.721c.655-2.221,2.8-4.03,4.789-4.03H24.075V7.254a.6.6,0,0,0-.566-.621H14.444a3.085,3.085,0,0,1-2.3-1.047L9.9,3.129a.551.551,0,0,0-.4-.18H3.256A.6.6,0,0,0,2.689,3.569Z" transform="translate(951 497.553)"/>
  </g>
</svg>
