<svg xmlns="http://www.w3.org/2000/svg" width="32" height="32" viewBox="0 0 32 32">
    <path data-name="패스 758" d="M26.506 3.822h-10.3a.84.84 0 0 1-.6-.248l-2.549-2.55A3.468 3.468 0 0 0 10.589 0h-7.1A3.5 3.5 0 0 0 0 3.491v20.493a3.493 3.493 0 0 0 3.489 3.49h23.017A3.5 3.5 0 0 0 30 23.986V7.313a3.5 3.5 0 0 0-3.491-3.491M19 16.192h-2.878v2.878a1.122 1.122 0 0 1-2.243 0V16.2H11a1.121 1.121 0 0 1 0-2.242h2.875v-2.88a1.12 1.12 0 0 1 2.24 0v2.872H19a1.121 1.121 0 0 1 0 2.242" transform="translate(1.002 2.262)" style="fill:#828b9a"/>
</svg>
