<svg id="Icon-task-close" xmlns="http://www.w3.org/2000/svg" width="32" height="32" viewBox="0 0 32 32">
  <defs>
    <style>
      .cls-1 {
        fill: none;
      }

      .cls-2 {
        fill: #828b9a;
      }
    </style>
  </defs>
  <path id="패스_812" data-name="패스 812" class="cls-2" d="M4.7.01a1.69,1.69,0,0,0-1.538,1L.1,7.83l-.024.061a1.223,1.223,0,0,0-.027.635A1.182,1.182,0,0,0,0,8.751v9.207A1.342,1.342,0,0,0,1.343,19.3H26.659A1.342,1.342,0,0,0,28,17.956V8.746a1.205,1.205,0,0,0-.044-.217,1.211,1.211,0,0,0-.047-.7L24.839,1A1.686,1.686,0,0,0,23.3,0Zm1.032,2.1H22.2L24.68,7.422H17.453A1.342,1.342,0,0,0,16.11,8.759h0a2.111,2.111,0,0,1-2.624,2.04,2.255,2.255,0,0,1-1.6-2.137,1.34,1.34,0,0,0-1.338-1.241H3.379Zm19.584,14.5H2.684V10.093H9.4a4.795,4.795,0,0,0,9.206,0h6.713Z" transform="translate(2 10.7)"/>
</svg>
