<svg xmlns="http://www.w3.org/2000/svg" width="32" height="32" viewBox="0 0 32 32">
  <defs>
    <style>
      .cls-1 {
        fill: none;
      }

      .cls-2 {
        fill: #828b9a;
        stroke: rgba(0,0,0,0);
        stroke-miterlimit: 10;
      }
    </style>
  </defs>
  <g id="icon-menu-top" transform="translate(1 3)">
    <path id="합치기_180" data-name="합치기 180" class="cls-2" d="M14823.095,14339a1.1,1.1,0,0,1-1.1-1.1v-16.945a1.1,1.1,0,0,1,1.1-1.1h27.81a1.1,1.1,0,0,1,1.1,1.1v16.945a1.1,1.1,0,0,1-1.1,1.1Zm1.9-3h24v-13.135h-24Zm-2.359-18.711a.64.64,0,0,1-.641-.638v-3.012a.638.638,0,0,1,.641-.637h28.724a.637.637,0,0,1,.637.637v3.012a.64.64,0,0,1-.637.638Z" transform="translate(-14822 -14313)"/>
  </g>
</svg>
