<svg xmlns="http://www.w3.org/2000/svg" width="32" height="32" viewBox="0 0 32 32">
  <defs>
    <style>
      .cls-1 {
        fill: none;
      }

      .cls-2 {
        fill: #828b9a;
        stroke: rgba(0,0,0,0);
        stroke-miterlimit: 10;
      }
    </style>
  </defs>
  <g id="icon-menu-topandleft" transform="translate(-1627 -418)">
    <path id="합치기_182" data-name="합치기 182" class="cls-2" d="M16299.708,14757a1.067,1.067,0,0,1-1.073-1.068v-16.992a1.07,1.07,0,0,1,1.073-1.068h21.223a1.069,1.069,0,0,1,1.069,1.068v16.992a1.067,1.067,0,0,1-1.069,1.068Zm1.929-3H16319v-13.133h-17.364Zm-9,3a.636.636,0,0,1-.64-.635v-17.855a.64.64,0,0,1,.64-.639h2.65a.64.64,0,0,1,.639.639v17.855a.636.636,0,0,1-.639.635Zm.094-21.7a.64.64,0,0,1-.639-.64v-3.022a.64.64,0,0,1,.639-.64h28.629a.641.641,0,0,1,.64.64v3.022a.641.641,0,0,1-.64.64Z" transform="translate(-14664 -14310)"/>
  </g>
</svg>
