<svg xmlns="http://www.w3.org/2000/svg" width="30" height="30" viewBox="0 0 30 30">
  <g id="double_arrow_left" transform="translate(-951 -496)">
    <path id="합치기_184" data-name="합치기 184" d="M14830.295,13468.688l-4.589-4.937a1.118,1.118,0,0,1,0-1.511l4.582-4.925a.954.954,0,0,1,1.418,0,1.125,1.125,0,0,1,0,1.515l-3.879,4.169,3.879,4.173a1.127,1.127,0,0,1,0,1.516.953.953,0,0,1-1.411,0Zm-7.414,0-4.59-4.937a1.127,1.127,0,0,1,0-1.511l4.59-4.936a.954.954,0,0,1,1.41.011,1.125,1.125,0,0,1,0,1.515l-3.879,4.169,3.879,4.173a1.127,1.127,0,0,1,0,1.516.952.952,0,0,1-1.41,0Z" transform="translate(-13859 -12952)" fill="#828b9a"/>
  </g>
</svg>
