<svg xmlns="http://www.w3.org/2000/svg" width="12" height="12" viewBox="0 0 12 12">
    <g data-name="그룹 2319" transform="translate(-384 -92.999)">
        <circle data-name="타원 194" cx="6" cy="6" r="6" transform="translate(384 92.999)" style="fill:#b4b9c1"/>
        <path data-name="합치기 109" d="m-2844.362 3075.263-2.248-2.248-2.247 2.248a.441.441 0 0 1-.624 0 .441.441 0 0 1 0-.624l2.247-2.247-2.247-2.248a.44.44 0 0 1 0-.623.441.441 0 0 1 .623 0l2.247 2.248 2.247-2.248a.441.441 0 0 1 .623 0 .44.44 0 0 1 0 .623l-2.247 2.248 2.248 2.248a.441.441 0 0 1 .129.312.441.441 0 0 1-.129.312.438.438 0 0 1-.312.129.438.438 0 0 1-.31-.13z" transform="translate(3236.609 -2973.393)" style="fill:#fff"/>
    </g>
</svg>
