<svg xmlns="http://www.w3.org/2000/svg" width="32" height="32" viewBox="0 0 32 32">
    <path data-name="합치기 186" d="M15406.847 14479h-20.693a2.1 2.1 0 0 1-2.154-2.026v-25.944a2.1 2.1 0 0 1 2.154-2.03h14.425a2.24 2.24 0 0 1 1.555.626l2.745 2.7 3.523 3.458a1.961 1.961 0 0 1 .6 1.4v19.8a2.1 2.1 0 0 1-2.1 2.023zm-20.26-2.433h19.826v-18.705h-5.9a1.263 1.263 0 0 1-1.295-1.218v-5.213h-12.634zm15.221-21.138h2.657l-2.657-2.606zm-.986 13.7a.6.6 0 0 1-.6-.6v-5.689a.6.6 0 0 1 .6-.6h3.523a.6.6 0 0 1 .6.6v.406a.6.6 0 0 1-.6.6h-2.44v1.018h2.05a.6.6 0 0 1 .6.6v.406a.6.6 0 0 1-.6.6h-2.05v2.062a.6.6 0 0 1-.6.6zm-6.06 0a.6.6 0 0 1-.6-.6v-5.689a.6.6 0 0 1 .6-.6h1.59a3.036 3.036 0 0 1 1.55.4 2.762 2.762 0 0 1 1.1 1.152 3.492 3.492 0 0 1 .379 1.632v.521a3.527 3.527 0 0 1-.375 1.632 2.791 2.791 0 0 1-1.105 1.153 3.166 3.166 0 0 1-1.582.4zm1.079-1.608h.479a1.26 1.26 0 0 0 1-.4 1.725 1.725 0 0 0 .387-1.21v-.5a1.663 1.663 0 0 0-.38-1.168 1.217 1.217 0 0 0-.971-.4h-.514zm-6.829 1.608a.6.6 0 0 1-.6-.6v-5.689a.6.6 0 0 1 .6-.6h1.937a2.65 2.65 0 0 1 1.8.6 2.168 2.168 0 0 1 .715 1.7 2.139 2.139 0 0 1-.7 1.682 2.673 2.673 0 0 1-1.829.588h-.848v1.718a.6.6 0 0 1-.6.6zm1.078-3.921h.858a1.009 1.009 0 0 0 .666-.178.6.6 0 0 0 .17-.483.639.639 0 0 0-.182-.507.916.916 0 0 0-.631-.193h-.882z" transform="translate(-15380.5 -14448.002)" style="fill:#828b9a;stroke:transparent;stroke-miterlimit:10"/>
</svg>
