<svg data-name="그룹 2415" xmlns="http://www.w3.org/2000/svg" width="32" height="32" viewBox="0 0 32 32">
    <g data-name="그룹 2590">
        <path data-name="패스 928" d="M29.867 14.72H2.133A2.133 2.133 0 0 1 0 12.587V3.413A2.133 2.133 0 0 1 2.133 1.28h27.734A2.133 2.133 0 0 1 32 3.413v9.174a2.133 2.133 0 0 1-2.133 2.133M29.44 3.84H2.56v8.32h26.88z"/>
        <path data-name="패스 929" d="M21.065 8a1.6 1.6 0 1 1-1.6-1.6 1.6 1.6 0 0 1 1.6 1.6"/>
        <path data-name="패스 930" d="M26.4 8a1.6 1.6 0 1 1-1.6-1.6A1.6 1.6 0 0 1 26.4 8"/>
        <path data-name="패스 931" d="M29.867 30.72H2.133A2.133 2.133 0 0 1 0 28.587v-9.174a2.133 2.133 0 0 1 2.133-2.133h27.734A2.133 2.133 0 0 1 32 19.413v9.174a2.133 2.133 0 0 1-2.133 2.133m-.427-10.88H2.56v8.32h26.88z"/>
        <path data-name="패스 932" d="M21.065 24a1.6 1.6 0 1 1-1.6-1.6 1.6 1.6 0 0 1 1.6 1.6"/>
        <path data-name="패스 933" d="M26.4 24a1.6 1.6 0 1 1-1.6-1.6 1.6 1.6 0 0 1 1.6 1.6"/>
    </g>
</svg>
