<svg data-name="그룹 2501" xmlns="http://www.w3.org/2000/svg" width="32" height="32" viewBox="0 0 32 32">
    <g data-name="그룹 2592">
        <path data-name="사각형 962" transform="translate(3.184 19.753)" d="M0 0h25.633v2.371H0z"/>
        <g data-name="그룹 2502">
            <path data-name="패스 987" d="M26.845 32H5.155A3.161 3.161 0 0 1 2 28.84V3.161A3.161 3.161 0 0 1 5.155 0h21.69A3.161 3.161 0 0 1 30 3.161V28.84A3.161 3.161 0 0 1 26.845 32M5.155 2.371a.79.79 0 0 0-.789.79V28.84a.791.791 0 0 0 .789.79h21.69a.79.79 0 0 0 .788-.79V3.161a.789.789 0 0 0-.788-.79z"/>
            <path data-name="사각형 961" transform="translate(3.184 9.876)" d="M0 0h25.633v2.371H0z"/>
            <path data-name="패스 988" d="M18.958 7.111h-5.915a.988.988 0 0 1 0-1.975h5.915a.988.988 0 0 1 0 1.975"/>
            <path data-name="패스 989" d="M18.958 16.988h-5.915a.988.988 0 0 1 0-1.975h5.915a.988.988 0 0 1 0 1.975"/>
            <path data-name="패스 990" d="M18.958 26.864h-5.915a.988.988 0 0 1 0-1.975h5.915a.988.988 0 0 1 0 1.975"/>
        </g>
    </g>
</svg>
