<svg data-name="그룹 2476" xmlns="http://www.w3.org/2000/svg" width="32" height="32" viewBox="0 0 32 32">
    <g data-name="그룹 2595">
        <path data-name="패스 967" d="M28 31h-7.331a1.99 1.99 0 0 1-2-1.972v-7.574h-5.336v7.574a1.99 1.99 0 0 1-2 1.972H4a1.99 1.99 0 0 1-2-1.972V12.9a1.954 1.954 0 0 1 .715-1.511l12-9.924a2.025 2.025 0 0 1 2.576 0l12 9.926A1.954 1.954 0 0 1 30 12.9v16.13A1.99 1.99 0 0 1 28 31m-6.664-2.626h6V13.2L16 3.827 4.666 13.2v15.174h6V20.8a1.99 1.99 0 0 1 2-1.972h6.664a1.99 1.99 0 0 1 2 1.972z"/>
    </g>
</svg>
