<svg data-name="그룹 2575" xmlns="http://www.w3.org/2000/svg" width="32" height="32" viewBox="0 0 32 32">
    <g data-name="그룹 2597">
        <path data-name="패스 1023" d="M15.382 16.647A8.323 8.323 0 1 1 23.7 8.324a8.332 8.332 0 0 1-8.323 8.323m0-14.12a5.8 5.8 0 1 0 5.8 5.8 5.8 5.8 0 0 0-5.8-5.8"/>
        <path data-name="패스 1024" d="M28 25.379a1.263 1.263 0 0 1-1.263-1.263V22a1.555 1.555 0 0 0-3.06 0v2.115a1.263 1.263 0 0 1-2.526 0V22a4.064 4.064 0 0 1 8.112 0v2.115A1.263 1.263 0 0 1 28 25.379"/>
        <path data-name="패스 1025" d="M28.709 32h-7a2.319 2.319 0 0 1-2.309-2.316v-4.515a2.319 2.319 0 0 1 2.316-2.316h7a2.319 2.319 0 0 1 2.316 2.316v4.515A2.319 2.319 0 0 1 28.709 32m-6.787-2.527H28.5v-4.094h-6.578z"/>
        <path data-name="패스 1026" d="M16.373 31.933H4.2a3.218 3.218 0 0 1-2.415-1.092A3.289 3.289 0 0 1 1 28.255C2.036 20.2 8.217 14.12 15.382 14.12a12.975 12.975 0 0 1 6.145 1.547 1.263 1.263 0 0 1-1.186 2.23 10.468 10.468 0 0 0-4.959-1.25c-5.9 0-11 5.129-11.874 11.93a.74.74 0 0 0 .178.6.677.677 0 0 0 .517.234h12.17a1.264 1.264 0 0 1 0 2.527"/>
    </g>
</svg>
