<svg data-name="그룹 2573" xmlns="http://www.w3.org/2000/svg" width="32" height="32" viewBox="0 0 32 32">
    <g data-name="그룹 2599">
        <path data-name="패스 1016" d="M13.985 18.418h-1.674a.157.157 0 0 1-.14-.087l-.871-1.757-.874 1.757a.156.156 0 0 1-.14.087H8.614a.157.157 0 0 1-.136-.234l1.68-2.958-1.635-2.908a.156.156 0 0 1 .136-.233h1.655a.154.154 0 0 1 .14.087l.844 1.716.843-1.716a.155.155 0 0 1 .14-.087h1.658a.156.156 0 0 1 .137.233l-1.639 2.908 1.684 2.958a.157.157 0 0 1-.136.234m-1.577-.318h1.308l-1.595-2.8a.157.157 0 0 1 0-.154l1.551-2.746h-1.293l-.941 1.914a.163.163 0 0 1-.281 0l-.941-1.914H8.927l1.547 2.752a.157.157 0 0 1 0 .154L8.883 18.1h1.3l.971-1.952a.163.163 0 0 1 .28 0z"/>
        <path data-name="패스 1018" d="M19.257 18.418H15.28a.157.157 0 0 1-.158-.157v-6.02a.157.157 0 0 1 .158-.156h1.45a.156.156 0 0 1 .156.156v4.747h2.371a.156.156 0 0 1 .156.157v1.116a.156.156 0 0 1-.156.157m-3.821-.318H19.1v-.8h-2.37a.156.156 0 0 1-.156-.156V12.4h-1.138z"/>
        <path data-name="패스 1020" d="M19.469 26.055H17.8a.159.159 0 0 1-.141-.087l-.873-1.757-.873 1.757a.156.156 0 0 1-.141.087H14.1a.157.157 0 0 1-.135-.234l1.68-2.958-1.635-2.908a.155.155 0 0 1 0-.156.159.159 0 0 1 .135-.077H15.8a.155.155 0 0 1 .141.087l.843 1.716.844-1.716a.152.152 0 0 1 .139-.087h1.658a.16.16 0 0 1 .137.077.155.155 0 0 1 0 .156l-1.642 2.908 1.68 2.958a.155.155 0 0 1 0 .156.157.157 0 0 1-.135.078m-1.577-.313H19.2l-1.595-2.8a.157.157 0 0 1 0-.154l1.552-2.752h-1.295l-.941 1.914a.163.163 0 0 1-.281 0l-.94-1.914h-1.289l1.547 2.752a.162.162 0 0 1 0 .154l-1.592 2.8h1.3l.972-1.952a.162.162 0 0 1 .279 0z"/>
        <path data-name="패스 1022" d="M10.976 26.138h-.061a3.548 3.548 0 0 1-1.389-.279 2.008 2.008 0 0 1-1.279-1.92.156.156 0 0 1 .156-.148h1.456a.156.156 0 0 1 .156.157.762.762 0 0 0 .206.6 1.088 1.088 0 0 0 .644.182h.028a.75.75 0 0 0 .547-.166.373.373 0 0 0 .1-.258.446.446 0 0 0-.168-.386 2.439 2.439 0 0 0-.56-.281 7.72 7.72 0 0 1-1.129-.437 1.747 1.747 0 0 1-.723-2.934 2.575 2.575 0 0 1 1.94-.628 2.532 2.532 0 0 1 1.881.691 1.98 1.98 0 0 1 .522 1.341.157.157 0 0 1-.156.149H11.7a.156.156 0 0 1-.157-.156.585.585 0 0 0-.167-.449.709.709 0 0 0-.512-.168.816.816 0 0 0-.511.134.384.384 0 0 0-.171.31c-.021.306.666.578 1 .664a5.36 5.36 0 0 1 1.066.449 1.805 1.805 0 0 1 1.053 1.7 1.654 1.654 0 0 1-.657 1.35 3 3 0 0 1-1.673.482M8.563 24.1a1.667 1.667 0 0 0 .268.806 1.72 1.72 0 0 0 .825.665 3.347 3.347 0 0 0 1.269.25 2.788 2.788 0 0 0 1.535-.419 1.346 1.346 0 0 0 .534-1.1 1.511 1.511 0 0 0-.894-1.423 5.125 5.125 0 0 0-1-.42c-.125-.032-1.275-.347-1.231-.97a.685.685 0 0 1 .29-.552 1.093 1.093 0 0 1 .7-.2.992.992 0 0 1 .724.252.839.839 0 0 1 .257.522h1.137a1.667 1.667 0 0 0-.431-.967 2.24 2.24 0 0 0-1.656-.589 2.25 2.25 0 0 0-1.712.537 1.44 1.44 0 0 0 .634 2.434 7.639 7.639 0 0 0 1.092.422 2.7 2.7 0 0 1 .661.336.755.755 0 0 1 .282.617.67.67 0 0 1-.184.479 1.106 1.106 0 0 1-.806.269A1.352 1.352 0 0 1 10 24.77a1.006 1.006 0 0 1-.289-.666zm3.3-2.439z"/>
        <g data-name="그룹 2599">
            <path data-name="패스 1014" d="M26.346 31H5.654A2.1 2.1 0 0 1 3.5 28.971V3.028A2.1 2.1 0 0 1 5.654 1h14.424a2.23 2.23 0 0 1 1.557.624l2.744 2.695L27.9 7.777a1.943 1.943 0 0 1 .6 1.4v19.8A2.1 2.1 0 0 1 26.4 31zM6.085 28.566h19.829V9.859h-5.9a1.258 1.258 0 0 1-1.29-1.217V3.43H6.086zM21.31 7.429h2.651L21.31 4.823z"/>
            <path data-name="패스 1015" d="M8.659 12.241h1.654l.984 2 .984-2h1.658l-1.682 2.985 1.728 3.035h-1.674L11.3 16.223l-1.013 2.038H8.614l1.724-3.035z"/>
            <path data-name="패스 1017" d="M15.279 12.241h1.451v4.9h2.527v1.116h-3.978z"/>
            <path data-name="패스 1019" d="M14.143 19.878H15.8l.984 2 .984-2h1.658l-1.682 2.985 1.725 3.037h-1.674l-1.014-2.04-1.013 2.04H14.1l1.724-3.035z"/>
            <path data-name="패스 1021" d="M11.7 21.665h1.45s.081-1.833-2.249-1.869-2.315 1.691-2.315 1.691a1.691 1.691 0 0 0 1.169 1.579 7.851 7.851 0 0 0 1.112.429 2.666 2.666 0 0 1 .607.308.6.6 0 0 1 .225.5s.049.606-.832.592a1.246 1.246 0 0 1-.758-.23.915.915 0 0 1-.25-.713H8.4A1.851 1.851 0 0 0 8.7 25a1.825 1.825 0 0 0 .892.72 3.428 3.428 0 0 0 1.325.262 2.925 2.925 0 0 0 1.634-.45 1.514 1.514 0 0 0 .595-1.241 1.663 1.663 0 0 0-.976-1.55 5.2 5.2 0 0 0-1.025-.432s-1.157-.3-1.12-.809a.529.529 0 0 1 .225-.436.956.956 0 0 1 .614-.171.848.848 0 0 1 .609.2.729.729 0 0 1 .226.571"/>
        </g>
    </g>
</svg>
