<svg data-name="그룹 2669" xmlns="http://www.w3.org/2000/svg" width="32" height="32" viewBox="0 0 32 32">
    <g data-name="그룹 2670">
        <path data-name="패스 1062" d="M31 28.73a1.361 1.361 0 0 1-1.36 1.36H2.36A1.361 1.361 0 0 1 1 28.73V3.28a1.365 1.365 0 1 1 2.73 0v24.09h25.91A1.361 1.361 0 0 1 31 28.73"/>
        <path data-name="패스 1063" d="M27.37 14.83a1.368 1.368 0 0 1-1.51-1.2l-.43-3.8-5.73 7.7a2.27 2.27 0 0 1-3.18.47l-2.17-1.61-5.77 7.78a1.365 1.365 0 1 1-2.19-1.63l6.05-8.14a2.2 2.2 0 0 1 1.49-.89 2.269 2.269 0 0 1 1.69.42l2.16 1.61 5.46-7.34-3.76.68a1.37 1.37 0 0 1-1.59-1.1 1.942 1.942 0 0 1-.02-.24 1.36 1.36 0 0 1 1.12-1.34l7.16-1.3a1.952 1.952 0 0 1 .23-.02 1.514 1.514 0 0 1 .53.1h.01v.01h.02c.01.01.02.01.03.02h.01l.01.01a1.35 1.35 0 0 1 .56.5 1.387 1.387 0 0 1 .2.58l.82 7.22a1.361 1.361 0 0 1-1.2 1.51"/>
    </g>
</svg>
