<svg data-name="그룹 2433" xmlns="http://www.w3.org/2000/svg" width="32" height="32" viewBox="0 0 32 32">
    <g data-name="그룹 2610">
        <path data-name="패스 952" d="M26.77 0H5.23A3.029 3.029 0 0 0 2 2.77v5.38a1.192 1.192 0 0 0 1.27 1.08h25.47A1.189 1.189 0 0 0 30 8.15V2.77A3.029 3.029 0 0 0 26.77 0M20 4.65a.982.982 0 0 1-.98.98h-6.04a.982.982 0 0 1-.98-.98v-.07a.982.982 0 0 1 .98-.98h6.04a.982.982 0 0 1 .98.98z"/>
        <path data-name="패스 953" d="M28.74 11.39H3.27A1.185 1.185 0 0 0 2 12.47v7.06a1.185 1.185 0 0 0 1.27 1.08h25.47A1.182 1.182 0 0 0 30 19.53v-7.06a1.182 1.182 0 0 0-1.26-1.08M20 16.03a.984.984 0 0 1-.98.99h-6.04a.984.984 0 0 1-.98-.99v-.06a.982.982 0 0 1 .98-.98h6.04a.982.982 0 0 1 .98.98z"/>
        <path data-name="패스 954" d="M28.74 22.77H3.27A1.193 1.193 0 0 0 2 23.86v5.38A3.028 3.028 0 0 0 5.23 32h21.54A3.028 3.028 0 0 0 30 29.24v-5.38a1.189 1.189 0 0 0-1.26-1.09M20 27.42a.982.982 0 0 1-.98.98h-6.04a.982.982 0 0 1-.98-.98v-.06a.984.984 0 0 1 .98-.99h6.04a.984.984 0 0 1 .98.99z"/>
    </g>
</svg>
