<svg data-name="그룹 2427" xmlns="http://www.w3.org/2000/svg" width="32" height="32" viewBox="0 0 32 32">
    <g data-name="그룹 2608">
        <path data-name="패스 946" d="M30 1.28H2a2 2 0 0 0-2 2v9.44a2.006 2.006 0 0 0 2 2h28a2.006 2.006 0 0 0 2-2V3.28a2 2 0 0 0-2-2M20.09 9.6a1.6 1.6 0 1 1 1.6-1.6 1.6 1.6 0 0 1-1.6 1.6m5.33 0a1.6 1.6 0 1 1 1.6-1.6 1.6 1.6 0 0 1-1.6 1.6"/>
        <path data-name="패스 947" d="M30 17.28H2a2 2 0 0 0-2 2v9.44a2.006 2.006 0 0 0 2 2h28a2.006 2.006 0 0 0 2-2v-9.44a2 2 0 0 0-2-2m-9.91 8.32a1.6 1.6 0 1 1 1.6-1.6 1.6 1.6 0 0 1-1.6 1.6m5.33 0a1.6 1.6 0 1 1 1.6-1.6 1.6 1.6 0 0 1-1.6 1.6"/>
    </g>
</svg>
