<svg xmlns="http://www.w3.org/2000/svg" xmlns:xlink="http://www.w3.org/1999/xlink" width="32" height="32" viewBox="0 0 32 32">
  <g id="그룹_2832" data-name="그룹 2832">
    <path id="패스_1157" data-name="패스 1157" d="M16.855,31H3.2a2.171,2.171,0,0,1-2.171-2.171V10.078A2.171,2.171,0,0,1,3.2,7.907H14.16a1.185,1.185,0,0,1,0,2.369H3.395V28.631H16.657V22.909a1.184,1.184,0,1,1,2.369,0v5.92A2.171,2.171,0,0,1,16.855,31"/>
    <path id="패스_1158" data-name="패스 1158" d="M29.474,24.093h-15a1.5,1.5,0,0,1-1.5-1.5V2.495A1.5,1.5,0,0,1,14.469,1h8.3a1.5,1.5,0,0,1,1.061.439l6.5,6.5,0,0a2.157,2.157,0,0,1,.634,1.534V22.593a1.5,1.5,0,0,1-1.5,1.5m-14.13-2.369H28.6V9.561L22.413,3.368H15.344Z"/>
    <path id="패스_1159" data-name="패스 1159" d="M29.346,10.255H23.89a2.171,2.171,0,0,1-2.171-2.171V2.849a1.184,1.184,0,0,1,2.369,0V7.886h5.258a1.185,1.185,0,0,1,0,2.369"/>
  </g>
</svg>
