<svg id="그룹_2834" data-name="그룹 2834" xmlns="http://www.w3.org/2000/svg" xmlns:xlink="http://www.w3.org/1999/xlink" width="32" height="32" viewBox="0 0 32 32">
    <g data-name="그룹 2878">
        <path data-name="패스 1181" d="M13.764 21.368V2.478A1.524 1.524 0 0 1 15.332 1h9.329a1.643 1.643 0 0 1 1.128.456l2 1.966 2.561 2.516a1.436 1.436 0 0 1 .444 1.019v14.408a1.53 1.53 0 0 1-1.572 1.48H15.283a1.521 1.521 0 0 1-1.519-1.477M24.22 3.978a.383.383 0 0 0-.388.374V7.36a.384.384 0 0 0 .385.377h3.072a.389.389 0 0 0 .355-.233.371.371 0 0 0-.084-.413L24.489 4.08a.389.389 0 0 0-.259-.1z"/>
        <path data-name="패스 1182" d="M14.873 31H2.708a1.5 1.5 0 0 1-1.5-1.5V13.032a1.5 1.5 0 0 1 1.5-1.5h5.741a.5.5 0 0 1 .5.5v13.659A1.511 1.511 0 0 0 10.46 27.2h5.413a.5.5 0 0 1 .5.5v1.8a1.5 1.5 0 0 1-1.5 1.5"/>
    </g>
</svg>
