<svg data-name="그룹 2769" xmlns="http://www.w3.org/2000/svg" width="32" height="32" viewBox="0 0 32 32">
    <g data-name="그룹 2768" style="clip-path:url(#886encbmta)">
        <path data-name="패스 1128" d="M2.779 29.39a2.58 2.58 0 0 1-.731-2.341l1.282-6.644a2.582 2.582 0 0 1 .7-1.325L20.169 2.649a2.6 2.6 0 0 1 3.639-.049l5.4 5.2a2.584 2.584 0 0 1 .047 3.677L13.12 27.894a2.57 2.57 0 0 1-1.3.71L5.133 30.06a2.4 2.4 0 0 1-.553.06 2.576 2.576 0 0 1-1.8-.73m3.367-8.35-1.179 6.109 6.162-1.343 11.276-11.478-4.98-4.784zm18.281-8.767 2.562-2.6-4.969-4.785-2.564 2.6z"/>
    </g>
</svg>
