<svg data-name="그룹 2771" xmlns="http://www.w3.org/2000/svg" width="32" height="32" viewBox="0 0 32 32">
    <g data-name="그룹 2875">
        <path data-name="패스 1179" d="M3.683 30.14a1.686 1.686 0 0 1-1.652-2l1.124-5.821a1.688 1.688 0 0 1 .451-.861l11.106-11.366a1.692 1.692 0 0 1 2.372-.035l4.759 4.578a1.687 1.687 0 0 1 .033 2.4L10.783 28.344a1.686 1.686 0 0 1-.841.465L4.046 30.1a1.723 1.723 0 0 1-.363.039"/>
        <path data-name="패스 1180" d="M26.513 11.622a1.68 1.68 0 0 1-1.169-.469L20.6 6.577a1.687 1.687 0 0 1-.029-2.4l1.8-1.822a1.693 1.693 0 0 1 2.366-.029l4.749 4.567a1.684 1.684 0 0 1 .033 2.4l-1.8 1.83a1.677 1.677 0 0 1-1.2.5"/>
    </g>
</svg>
