<svg data-name="그룹 2849" xmlns="http://www.w3.org/2000/svg" width="32" height="32" viewBox="0 0 32 32">
    <g data-name="그룹 2869">
        <path data-name="패스 1174" d="M17.786 6.908h-3.571A3.093 3.093 0 0 1 11 3.954 3.092 3.092 0 0 1 14.214 1h3.572A3.092 3.092 0 0 1 21 3.954a3.092 3.092 0 0 1-3.214 2.954"/>
        <path data-name="패스 1175" d="M24.08 31H7.919A2.231 2.231 0 0 1 5.5 29.03V13.15a2.232 2.232 0 0 1 2.419-1.97H24.08a2.233 2.233 0 0 1 2.42 1.97v15.88A2.232 2.232 0 0 1 24.08 31"/>
        <path data-name="패스 1176" d="M27.721 6.908H4.279A1.389 1.389 0 0 1 3 5.431a1.389 1.389 0 0 1 1.279-1.477h23.442A1.388 1.388 0 0 1 29 5.431a1.388 1.388 0 0 1-1.279 1.477"/>
    </g>
</svg>
