<svg data-name="그룹 2977" xmlns="http://www.w3.org/2000/svg" width="32" height="32" viewBox="0 0 32 32">
    <g data-name="그룹 2976" style="clip-path:url(#hzoa6pl62a)">
        <path data-name="패스 1225" d="M12.588 30H5.714a1.219 1.219 0 0 1-1.219-1.219V3.219A1.219 1.219 0 0 1 5.714 2h6.874a1.219 1.219 0 0 1 1.219 1.219v25.562A1.219 1.219 0 0 1 12.588 30m-5.656-2.438h4.437V4.437H6.932z"/>
        <path data-name="패스 1226" d="M26.286 30h-6.874a1.219 1.219 0 0 1-1.219-1.219V3.219A1.219 1.219 0 0 1 19.412 2h6.874A1.219 1.219 0 0 1 27.5 3.219v25.562A1.219 1.219 0 0 1 26.286 30m-5.656-2.438h4.437V4.437H20.63z"/>
    </g>
</svg>
