<svg data-name="그룹 2981" xmlns="http://www.w3.org/2000/svg" width="32" height="32" viewBox="0 0 32 32">
    <g data-name="그룹 2982">
        <path data-name="패스 1229" d="M3.539 14.737h-.063a1.181 1.181 0 0 1-.7-.278l-2.353-2a1.185 1.185 0 0 1 1.533-1.808l.4.341V3.539a1.184 1.184 0 0 1 1.183-1.185h24.922a1.185 1.185 0 0 1 1.185 1.185v10.013a1.186 1.186 0 0 1-2.371 0V4.725H4.724v6.268l.4-.342a1.185 1.185 0 0 1 1.536 1.808L4.313 14.45c-.027.022-.054.044-.083.064a1.182 1.182 0 0 1-.523.211 1.159 1.159 0 0 1-.166.012"/>
        <path data-name="패스 1230" d="M28.46 29.646H3.538a1.185 1.185 0 0 1-1.185-1.185V18.448a1.186 1.186 0 0 1 2.371 0v8.827h22.551v-6.267l-.4.34a1.185 1.185 0 1 1-1.533-1.807l2.346-1.99a.927.927 0 0 1 .085-.067 1.184 1.184 0 0 1 .52-.209 1.237 1.237 0 0 1 .236-.01 1.183 1.183 0 0 1 .693.275l2.354 2a1.185 1.185 0 1 1-1.533 1.807l-.4-.341v7.454a1.184 1.184 0 0 1-1.185 1.185"/>
        <path data-name="패스 1231" d="m22.148 14.137-8.928-5.2a2.149 2.149 0 0 0-3.239 1.857v10.414a2.133 2.133 0 0 0 1.076 1.867 2.222 2.222 0 0 0 1.077.287 2.164 2.164 0 0 0 1.086-.3l8.928-5.2a2.157 2.157 0 0 0 0-3.723m-9.8-2.963L20.627 16l-8.276 4.829z"/>
    </g>
</svg>
