<svg data-name="그룹 2984" xmlns="http://www.w3.org/2000/svg" width="32" height="32" viewBox="0 0 32 32">
    <g data-name="그룹 2983">
        <path data-name="패스 1232" d="M3.539 14.737h-.063a1.181 1.181 0 0 1-.7-.278l-2.353-2a1.185 1.185 0 0 1 1.533-1.808l.4.341V3.539a1.184 1.184 0 0 1 1.183-1.185h24.922a1.185 1.185 0 0 1 1.185 1.185v10.013a1.186 1.186 0 0 1-2.371 0V4.725H4.724v6.268l.4-.342a1.185 1.185 0 0 1 1.536 1.808L4.313 14.45c-.027.022-.054.044-.083.064a1.182 1.182 0 0 1-.523.211 1.159 1.159 0 0 1-.166.012"/>
        <path data-name="패스 1233" d="M28.46 29.646H3.538a1.185 1.185 0 0 1-1.185-1.185V18.448a1.186 1.186 0 0 1 2.371 0v8.827h22.551v-6.267l-.4.34a1.185 1.185 0 1 1-1.533-1.807l2.346-1.99a.927.927 0 0 1 .085-.067 1.184 1.184 0 0 1 .52-.209 1.237 1.237 0 0 1 .236-.01 1.183 1.183 0 0 1 .693.275l2.354 2a1.185 1.185 0 1 1-1.533 1.807l-.4-.341v7.454a1.184 1.184 0 0 1-1.185 1.185"/>
        <path data-name="패스 1234" d="M22.378 15.163a1.709 1.709 0 0 0-.639-.638l-8.611-4.879a1.693 1.693 0 0 0-2.53 1.476v9.757a1.695 1.695 0 0 0 2.53 1.476l8.61-4.879a1.7 1.7 0 0 0 .64-2.313"/>
    </g>
</svg>
