<svg data-name="그룹 2979" xmlns="http://www.w3.org/2000/svg" width="32" height="32" viewBox="0 0 32 32">
    <g data-name="그룹 2978">
        <path data-name="패스 1227" d="M12.1 30H6.2a1.143 1.143 0 0 1-1.047-1.219V3.219A1.143 1.143 0 0 1 6.2 2h5.9a1.143 1.143 0 0 1 1.047 1.219v25.562A1.143 1.143 0 0 1 12.1 30"/>
        <path data-name="패스 1228" d="M25.8 30h-5.9a1.143 1.143 0 0 1-1.047-1.219V3.219A1.143 1.143 0 0 1 19.9 2h5.9a1.143 1.143 0 0 1 1.047 1.219v25.562A1.143 1.143 0 0 1 25.8 30"/>
    </g>
</svg>
