<svg xmlns="http://www.w3.org/2000/svg" width="32" height="32" viewBox="0 0 32 32">
    <g data-name="그룹 3579">
        <g data-name="그룹 3578">
            <path data-name="패스 1569" d="M31.124 13.882 18.119.876a3 3 0 0 0-4.235 0L.88 13.882a2.99 2.99 0 0 0 0 4.235l13 13.005a3 3 0 0 0 4.235 0l13-13.005a3 3 0 0 0 0-4.235m-13.54 9.372a.791.791 0 0 1-.792.792h-1.575a.793.793 0 0 1-.792-.792V21.67a.793.793 0 0 1 .792-.792h1.584a.791.791 0 0 1 .792.792zm0-5.292a.791.791 0 0 1-.792.792h-1.575a.793.793 0 0 1-.792-.792V8.745a.793.793 0 0 1 .792-.792h1.584a.791.791 0 0 1 .792.792z"/>
        </g>
    </g>
</svg>
