<svg xmlns="http://www.w3.org/2000/svg" width="32" height="32" viewBox="0 0 32 32">
    <g data-name="그룹 3581">
        <g data-name="그룹 3580">
            <path data-name="패스 1570" d="m31.5 27.923-12.336-21.3a3.655 3.655 0 0 0-6.329 0L.5 27.923a3.655 3.655 0 0 0 3.164 5.489h24.672a3.655 3.655 0 0 0 3.164-5.489m-13.917.36a.79.79 0 0 1-.794.79h-1.583a.791.791 0 0 1-.79-.79V26.7a.794.794 0 0 1 .79-.794h1.584a.793.793 0 0 1 .794.794zm0-5.292a.79.79 0 0 1-.794.79h-1.583a.791.791 0 0 1-.79-.79v-9.218a.794.794 0 0 1 .79-.794h1.584a.793.793 0 0 1 .794.794z" transform="translate(0 -3.105)"/>
        </g>
    </g>
</svg>
