<svg data-name="그룹 3587" xmlns="http://www.w3.org/2000/svg" width="32" height="32" viewBox="0 0 32 32">
    <g data-name="그룹 3586">
        <path data-name="패스 1576" d="M10.125 31a1.281 1.281 0 0 1-.736-2.329 3.012 3.012 0 0 0 1.493-2.334c.1-2.189-2.337-5.08-4.656-7.055A13 13 0 0 1 4.7 17.794a8.745 8.745 0 0 1-2.152-5.939C2.549 5.87 8.583 1 16 1s13.45 4.87 13.45 10.855S23.416 22.71 16 22.71c-.469 0-.933-.02-1.389-.058a1.28 1.28 0 0 1 .211-2.552q.581.048 1.178.048c6 0 10.889-3.72 10.889-8.293S22 3.562 16 3.562 5.11 7.282 5.11 11.855a6.156 6.156 0 0 0 1.549 4.289 10.737 10.737 0 0 0 1.228 1.189c1.73 1.473 5.733 5.313 5.553 9.124a5.5 5.5 0 0 1-2.581 4.311 1.281 1.281 0 0 1-.734.232"/>
        <path data-name="패스 1577" d="M9.686 25.373c-3.683 0-6.679-2.48-6.679-5.528s3-5.528 6.679-5.528 6.679 2.481 6.679 5.528-3 5.528-6.679 5.528m0-8.494c-2.232 0-4.118 1.359-4.118 2.966s1.886 2.966 4.118 2.966 4.114-1.358 4.114-2.966-1.886-2.966-4.118-2.966"/>
    </g>
</svg>
