<svg data-name="그룹 3591" xmlns="http://www.w3.org/2000/svg" width="32" height="32" viewBox="0 0 32 32">
    <g data-name="그룹 3590">
        <path data-name="패스 1579" d="m30.636 26.976-16.187-.021 12.386-12.386 4.327-4.326a2.866 2.866 0 0 0 0-4.048L28.069 3.1a2.927 2.927 0 0 0-4.046 0L19.7 7.429 6.253 20.872.4 26.725a1.366 1.366 0 0 0 0 1.931l.614.615a1.369 1.369 0 0 0 .964.4l9.176.011 19.478.025a1.366 1.366 0 0 0 0-2.732M25.955 5.034a.144.144 0 0 1 .182 0l3.094 3.093a.13.13 0 0 1 0 .183l-3.361 3.362L22.594 8.4zm-5.293 5.293 3.276 3.273-11.512 11.515-3.276-3.276zM7.218 23.77l3.18 3.18-6.352-.008z"/>
    </g>
</svg>
