<svg data-name="그룹 3593" xmlns="http://www.w3.org/2000/svg" width="32" height="32" viewBox="0 0 32 32">
    <g data-name="그룹 3594">
        <g data-name="그룹 3595">
            <g data-name="그룹 3594">
                <path data-name="패스 1580" d="M5.944 23.4a1.531 1.531 0 0 0-1.088.451l-4.7 4.7a.514.514 0 0 0 0 .727l.282.283 9.653.012H30.6a1.4 1.4 0 0 0 0-2.8H9.96l-2.928-2.926a1.531 1.531 0 0 0-1.088-.447"/>
                <path data-name="패스 1581" d="M26.916 2.426a1.543 1.543 0 0 0-1.092.452l-2.6 2.6a1.544 1.544 0 0 0 0 2.184l3.295 3.295a1.543 1.543 0 0 0 2.184 0l2.6-2.6a1.544 1.544 0 0 0 0-2.184l-3.3-3.295a1.543 1.543 0 0 0-1.092-.452"/>
                <path data-name="패스 1582" d="M20.149 9.2a1.554 1.554 0 0 0-1.1.455l-9.79 9.792a1.553 1.553 0 0 0 0 2.2l3.282 3.282a1.554 1.554 0 0 0 2.2 0l9.79-9.792a1.553 1.553 0 0 0 0-2.2l-3.284-3.285a1.551 1.551 0 0 0-1.1-.455"/>
            </g>
        </g>
    </g>
</svg>
