<svg data-name="그룹 3608" xmlns="http://www.w3.org/2000/svg" width="32" height="32" viewBox="0 0 32 32">
    <g data-name="그룹 3607">
        <path data-name="패스 1588" d="M29.276 30.34a1.681 1.681 0 0 1-1.521-.966c-1.852-3.833-6.1-10.228-13.984-10.814v3.505a1.713 1.713 0 0 1-2.925 1.21L1.5 13.931a1.717 1.717 0 0 1 0-2.421l9.347-9.347a1.713 1.713 0 0 1 2.925 1.212v4.148c3.613.8 15.819 4.7 17.222 20.955a1.69 1.69 0 0 1-1.251 1.8 1.756 1.756 0 0 1-.466.064M13.121 16.156h.053c7.531.236 12.24 4.914 14.945 9.052A19.38 19.38 0 0 0 12.8 9.741a1.712 1.712 0 0 1-1.4-1.683v-3.1l-7.761 7.761 7.761 7.763v-2.6a1.724 1.724 0 0 1 1.719-1.721"/>
    </g>
</svg>
