<svg data-name="그룹 3610" xmlns="http://www.w3.org/2000/svg" width="32" height="32" viewBox="0 0 32 32">
    <g data-name="그룹 3609">
        <path data-name="패스 1589" d="M2.258 30.276a1.691 1.691 0 0 1-1.252-1.8C2.41 12.227 14.616 8.324 18.229 7.523V3.375a1.713 1.713 0 0 1 2.925-1.212L30.5 11.51a1.717 1.717 0 0 1 0 2.421l-9.345 9.344a1.713 1.713 0 0 1-2.925-1.21V18.56c-7.886.586-12.13 6.981-13.985 10.814a1.681 1.681 0 0 1-1.521.966 1.716 1.716 0 0 1-.466-.064M20.072 16.64a1.734 1.734 0 0 1 .526 1.237v2.606l7.763-7.764L20.6 4.956v3.1a1.712 1.712 0 0 1-1.4 1.683 19.38 19.38 0 0 0-15.319 15.47c2.7-4.138 7.414-8.816 14.944-9.052h.054a1.727 1.727 0 0 1 1.193.484"/>
    </g>
</svg>
