<svg data-name="그룹 3636" xmlns="http://www.w3.org/2000/svg" width="32" height="32" viewBox="0 0 32 32">
    <g data-name="그룹 3635">
        <path data-name="패스 1613" d="M14.475 7.512a4.437 4.437 0 0 0-4.432 4.432v.324h-.028a2.151 2.151 0 0 0-2.147 2.147v5.975a2.15 2.15 0 0 0 2.147 2.147h8.919a2.149 2.149 0 0 0 2.147-2.147v-5.975a2.15 2.15 0 0 0-2.147-2.147h-.027v-.324a4.438 4.438 0 0 0-4.432-4.432m-2.091 4.432a2.091 2.091 0 0 1 4.181 0v.324h-4.181zm6.355 8.251H10.21V14.61h8.529z"/>
        <path data-name="패스 1614" d="M31.6 13.457a1.366 1.366 0 0 0-1.932 0l-.83.83a14.46 14.46 0 1 0-3.258 11 1.365 1.365 0 1 0-2.094-1.753 11.753 11.753 0 1 1 2.545-9.539l-.533-.534a1.366 1.366 0 0 0-1.932 1.931l3.05 3.051a1.368 1.368 0 0 0 1.932 0l3.052-3.054a1.365 1.365 0 0 0 0-1.932"/>
    </g>
</svg>
