<svg data-name="그룹 3618" xmlns="http://www.w3.org/2000/svg" width="32" height="32" viewBox="0 0 32 32">
    <g data-name="그룹 3617">
        <path data-name="패스 1592" d="M29.325 1H2.675A1.678 1.678 0 0 0 1 2.675v26.65A1.678 1.678 0 0 0 2.675 31h26.65A1.678 1.678 0 0 0 31 29.325V2.675A1.678 1.678 0 0 0 29.325 1M12.48 12.345h7.039v7.04H12.48zm7.039 16.286H12.48v-7.076h7.039zM3.369 12.345h6.94v7.04h-6.94zm9.111-8.976h7.039v6.806H12.48zm9.211 8.976h6.941v7.04h-6.941zm6.94-2.171H21.69V3.368h6.941zm-18.322 0h-6.94V3.368h6.94zm-6.94 11.381h6.94v7.076h-6.94zm18.322 0h6.941v7.076h-6.941z"/>
    </g>
</svg>
