<svg data-name="그룹 3616" xmlns="http://www.w3.org/2000/svg" width="32" height="32" viewBox="0 0 32 32">
    <g data-name="그룹 3615">
        <path data-name="패스 1591" d="M29.28 27.645H17.672l12.76-12.758a1.956 1.956 0 0 0 0-2.757L20.5 2.195a1.951 1.951 0 0 0-2.755 0L2.425 17.511a4.882 4.882 0 0 0 0 6.9l4.711 4.71a4.259 4.259 0 0 0 3.03 1.255H29.28a1.364 1.364 0 0 0 0-2.728m-19.113 0a1.548 1.548 0 0 1-1.1-.457l-4.711-4.71a2.152 2.152 0 0 1 0-3.038l2.288-2.288 6.165 6.165a1.364 1.364 0 1 0 1.929-1.929l-6.167-6.168L19.118 4.675l8.833 8.833-14.137 14.137z"/>
    </g>
</svg>
