<svg data-name="그룹 3638" xmlns="http://www.w3.org/2000/svg" width="32" height="32" viewBox="0 0 32 32">
    <g data-name="그룹 3637">
        <path data-name="패스 1615" d="M14.473 7.512a4.437 4.437 0 0 0-4.431 4.432v.519h-.028a1.953 1.953 0 0 0-1.951 1.951v5.976a1.953 1.953 0 0 0 1.951 1.951h8.92a1.953 1.953 0 0 0 1.951-1.951v-5.976a1.953 1.953 0 0 0-1.951-1.951h-.029v-.519a4.437 4.437 0 0 0-4.432-4.432m-2.089 4.432a2.09 2.09 0 1 1 4.18 0v.324h-4.18z"/>
        <path data-name="패스 1616" d="M31.6 13.457a1.366 1.366 0 0 0-1.932 0l-.83.83a14.46 14.46 0 1 0-3.258 11 1.365 1.365 0 1 0-2.094-1.753 11.753 11.753 0 1 1 2.545-9.539l-.534-.534a1.366 1.366 0 0 0-1.932 1.932l3.051 3.051a1.369 1.369 0 0 0 1.932 0l3.052-3.055a1.365 1.365 0 0 0 0-1.932"/>
    </g>
</svg>
