<svg xmlns="http://www.w3.org/2000/svg" width="30" height="30" viewBox="0 0 30 30">
    <path data-name="패스 608" d="M16.571 30h-3.016c-.9 0-1.14-.234-2.661-4.066l-.682-.283c-3.6 1.671-4.035 1.745-4.707 1.07l-2.136-2.137c-.635-.646-.636-.98 1-4.761l-.278-.674C.394 17.794 0 17.516 0 16.571v-3.019c0-.9.236-1.137 4.07-2.656l.281-.679C2.7 6.644 2.614 6.168 3.287 5.5l2.128-2.13c.635-.638.972-.641 4.762.993l.675-.278C12.209.394 12.485 0 13.429 0h3.016c.9 0 1.14.236 2.661 4.07l.68.281c3.562-1.651 4.037-1.732 4.7-1.073l2.139 2.133c.641.641.642.975-.994 4.765l.281.68C29.607 12.207 30 12.482 30 13.428v3.017c0 .9-.234 1.139-4.071 2.662l-.28.679s1.742 4.041 1.071 4.71l-2.136 2.135c-.644.631-.979.636-4.758-1l-.679.283C17.793 29.606 17.516 30 16.571 30m-2.292-2.513h1.549c.3-.686.768-1.907 1.148-2.953a1.261 1.261 0 0 1 .7-.732l1.682-.694a1.236 1.236 0 0 1 .98.009 71.24 71.24 0 0 0 2.983 1.222l1.1-1.095a69.842 69.842 0 0 0-1.277-2.9 1.256 1.256 0 0 1-.025-1.01l.691-1.682a1.261 1.261 0 0 1 .7-.69 69.512 69.512 0 0 0 2.978-1.246v-1.544c-.688-.3-1.905-.763-2.951-1.143a1.262 1.262 0 0 1-.734-.7l-.693-1.684a1.256 1.256 0 0 1 .011-.98 70.662 70.662 0 0 0 1.222-2.984l-1.1-1.095c-.694.278-1.888.806-2.9 1.277a1.243 1.243 0 0 1-1.01.022l-1.682-.694a1.253 1.253 0 0 1-.688-.7 69.81 69.81 0 0 0-1.244-2.973h-1.547c-.3.688-.766 1.907-1.147 2.953a1.254 1.254 0 0 1-.7.73l-1.677.7a1.26 1.26 0 0 1-.982-.008 59.922 59.922 0 0 0-2.984-1.232l-1.1 1.1c.276.7.806 1.89 1.275 2.9a1.252 1.252 0 0 1 .022 1.008l-.689 1.677a1.254 1.254 0 0 1-.7.691c-1.059.418-2.29.928-2.975 1.242v1.55c.686.3 1.907.768 2.954 1.148a1.254 1.254 0 0 1 .73.7l.694 1.677a1.253 1.253 0 0 1-.009.982A68.404 68.404 0 0 0 5.66 23.32l1.1 1.1c.694-.28 1.888-.807 2.9-1.277a1.247 1.247 0 0 1 1.012-.024l1.684.7a1.251 1.251 0 0 1 .686.7c.418 1.057.93 2.288 1.244 2.97M15 20.661A5.66 5.66 0 1 1 20.662 15 5.668 5.668 0 0 1 15 20.661m0-8.807A3.148 3.148 0 1 0 18.151 15 3.152 3.152 0 0 0 15 11.854" style="fill:#999"/>
</svg>
