<svg data-name="그룹 3655" xmlns="http://www.w3.org/2000/svg" width="32" height="32" viewBox="0 0 32 32">
    <g data-name="그룹 3654">
        <path data-name="패스 1634" d="M16 13.329a4.065 4.065 0 1 0-4.065-4.065A4.069 4.069 0 0 0 16 13.329m0-5.646a1.581 1.581 0 1 1-1.581 1.581A1.584 1.584 0 0 1 16 7.683"/>
        <path data-name="패스 1635" d="M14.017 22.928A2.367 2.367 0 0 0 16 24a2.365 2.365 0 0 0 1.982-1.068l6.144-9.332.064-.109a9.275 9.275 0 0 0 1.039-4.283 9.386 9.386 0 0 0-9.1-9.2A9.024 9.024 0 0 0 9.52 2.659 9.239 9.239 0 0 0 7.811 13.49zm-2.753-18.5a6.745 6.745 0 0 1 11.481 4.785 6.684 6.684 0 0 1-.731 3.075L16 21.422l-6.014-9.135a6.749 6.749 0 0 1 1.278-7.859"/>
        <path data-name="패스 1636" d="M24.279 19.557a1.242 1.242 0 0 0-.659 2.4c3.495.96 5.06 2.356 5.06 3.312 0 1.734-4.94 4.253-12.68 4.253S3.32 27 3.32 25.264c0-.951 1.554-2.342 5.024-3.3a1.242 1.242 0 1 0-.662-2.4c-4.351 1.2-6.845 3.282-6.845 5.7C.837 29.64 8.649 32 16 32s15.163-2.36 15.163-6.736c0-2.424-2.509-4.5-6.884-5.707"/>
    </g>
</svg>
