<svg data-name="그룹 3657" xmlns="http://www.w3.org/2000/svg" width="32" height="32" viewBox="0 0 32 32">
    <g data-name="그룹 3656">
        <path data-name="패스 1637" d="M14.547 22.356a1.742 1.742 0 0 0 1.453.773 1.706 1.706 0 0 0 1.442-.773l6.31-9.586a8.667 8.667 0 0 0 .98-4.049A8.89 8.89 0 0 0 16.128 0a8.911 8.911 0 0 0-6.264 2.515A8.768 8.768 0 0 0 8.249 12.77zM16 5.883a2.884 2.884 0 1 1-2.884 2.884A2.885 2.885 0 0 1 16 5.883"/>
        <path data-name="패스 1638" d="M24.458 19.288a1.269 1.269 0 0 0-.674 2.447c3.571.981 5.17 2.407 5.17 3.384 0 1.771-5.047 4.344-12.954 4.344S3.045 26.89 3.045 25.119c0-.972 1.587-2.393 5.135-3.374A1.27 1.27 0 0 0 7.5 19.3C3.056 20.529.508 22.651.508 25.119.508 29.589 8.49 32 16 32s15.491-2.411 15.491-6.881c0-2.477-2.563-4.6-7.033-5.831"/>
    </g>
</svg>
