<svg xmlns="http://www.w3.org/2000/svg" width="32.5" height="32" viewBox="0 0 32.5 32">
    <path data-name="합치기 188" d="M-11738.979-4895.289v-24.311l-2.8 2.8a1.284 1.284 0 0 1-1.821 0 1.29 1.29 0 0 1 0-1.821l5-5a1.293 1.293 0 0 1 .425-.283 1.254 1.254 0 0 1 .479-.095h.012a1.282 1.282 0 0 1 .493.1 1.331 1.331 0 0 1 .419.277l5 5 .03.029a1.289 1.289 0 0 1-.03 1.824 1.291 1.291 0 0 1-1.824-.029l-2.8-2.8v24.312a1.292 1.292 0 0 1-1.29 1.29 1.289 1.289 0 0 1-1.293-1.293zm-21.731.685a1.289 1.289 0 0 1-1.29-1.29v-10.2a1.289 1.289 0 0 1 1.287-1.29h10.2a1.284 1.284 0 0 1 1.29 1.284v10.2a1.291 1.291 0 0 1-1.29 1.29zm1.29-2.58h7.624v-7.619h-7.624zm8.911-13.44h-10.2a1.292 1.292 0 0 1-1.29-1.287v-10.2a1.289 1.289 0 0 1 1.29-1.29h10.2a1.289 1.289 0 0 1 1.29 1.29v10.2a1.286 1.286 0 0 1-1.284 1.29zm-8.911-2.58h7.624v-7.619h-7.624z" transform="translate(11763.381 4925.004)" style="fill:#738099;stroke:transparent;stroke-miterlimit:10"/>
</svg>
