<svg xmlns="http://www.w3.org/2000/svg" width="33.001" height="32.998" viewBox="0 0 33.001 32.998">
    <path data-name="합치기 190" d="M-11846-4890v-32h32v3h-29v29zm7.29-5.208a1.287 1.287 0 0 1-1.287-1.287v-7a1.288 1.288 0 0 1 1.287-1.291h7a1.291 1.291 0 0 1 1.29 1.291v7a1.291 1.291 0 0 1-1.29 1.291zm1.29-2.581h4.424v-4.421h-4.424zm16.922-8.63h-7a1.289 1.289 0 0 1-1.29-1.291v-7a1.289 1.289 0 0 1 1.29-1.291h7a1.29 1.29 0 0 1 1.29 1.288v7a1.288 1.288 0 0 1-1.287 1.291zm-5.711-2.578h4.421v-4.421h-4.421zm-12.5 2.578a1.286 1.286 0 0 1-1.287-1.288v-7a1.29 1.29 0 0 1 1.287-1.291h7a1.291 1.291 0 0 1 1.29 1.291v7a1.291 1.291 0 0 1-1.29 1.291zm1.29-2.578h4.424v-4.421h-4.424z" transform="translate(11846.501 4922.5)" style="fill:#738099;stroke:transparent;stroke-miterlimit:10"/>
</svg>
