<svg xmlns="http://www.w3.org/2000/svg" width="32" height="32" viewBox="0 0 32 32">
    <path data-name="패스 1011" d="M3.42 29.16h25.16a1.42 1.42 0 0 1 0 2.84H3.42a1.42 1.42 0 1 1 0-2.84"/>
    <path data-name="패스 1012" d="M16 15.557a4.744 4.744 0 1 0-4.744-4.744A4.744 4.744 0 0 0 16 15.557m0-6.59a1.846 1.846 0 1 1-1.846 1.846A1.846 1.846 0 0 1 16 8.967"/>
    <path data-name="패스 1013" d="M13.686 26.757a2.766 2.766 0 0 0 4.626 0l7.17-10.89.074-.128a10.846 10.846 0 0 0 1.214-5A10.957 10.957 0 0 0 16.15 0a10.532 10.532 0 0 0-7.712 3.1 10.778 10.778 0 0 0-2 12.638zM10.472 5.169a7.874 7.874 0 0 1 12.548 9.172L16 25 8.984 14.341a7.877 7.877 0 0 1 1.49-9.172"/>
</svg>
