<svg xmlns="http://www.w3.org/2000/svg" width="32" height="32" viewBox="0 0 32 32">
    <path data-name="패스 1019" d="M15.568 20.869a.8.8 0 0 0 .748.516h2.062a.4.4 0 0 0 .359-.577L11.258 1.641a.8.8 0 0 0-.746-.509h-1.8a.8.8 0 0 0-.745.509L.484 20.808a.4.4 0 0 0 .359.577H2.9a.8.8 0 0 0 .75-.52l1.45-3.894a.4.4 0 0 1 .375-.26h8.233a.4.4 0 0 1 .374.258zm-9.081-7.544 2.936-7.83a.2.2 0 0 1 .374 0l2.937 7.83a.2.2 0 0 1-.187.27H6.674a.2.2 0 0 1-.187-.27m22.419 2.287a1.552 1.552 0 0 1 2.195 0 1.553 1.553 0 0 1 0 2.195l-12.591 12.6a1.553 1.553 0 0 1-2.2 0l-5.734-5.734a1.552 1.552 0 1 1 2.2-2.194l4.62 4.633z"/>
</svg>
