<svg data-name="그룹 3798" xmlns="http://www.w3.org/2000/svg" width="32" height="32" viewBox="0 0 32 32">
    <g data-name="그룹 3797">
        <path data-name="패스 2853" d="M29.94 17.006c.025-.03.052-.058.074-.09a1.5 1.5 0 0 0 .112-.195c.014-.028.033-.054.045-.083a1.576 1.576 0 0 0 .081-.249c0-.02.014-.039.018-.06a1.564 1.564 0 0 0 0-.658c0-.021-.013-.04-.018-.06a1.576 1.576 0 0 0-.081-.249c-.012-.029-.031-.055-.045-.083a1.564 1.564 0 0 0-.112-.2c-.022-.032-.049-.06-.074-.09a1.661 1.661 0 0 0-.137-.153c-.009-.008-.015-.019-.024-.026L18.073 4.206a1.6 1.6 0 1 0-2.148 2.371l8.632 7.823H3.3a1.6 1.6 0 0 0 0 3.2h21.257l-8.632 7.823a1.6 1.6 0 0 0 2.148 2.377l11.706-10.614c.009-.008.015-.018.024-.027a1.661 1.661 0 0 0 .137-.153"/>
    </g>
</svg>
