<svg xmlns="http://www.w3.org/2000/svg" width="32" height="32" viewBox="0 0 32 32">
    <path data-name="패스 2867" d="M250.909 90.707v-8.695h1.84a1.274 1.274 0 0 0 0-2.548h-16.195a1.274 1.274 0 1 0 0 2.548h1.84v8.695a8.579 8.579 0 0 0-4.955 6.639 1.74 1.74 0 0 0 .45 1.326 1.782 1.782 0 0 0 1.313.579h8.175v9.939a1.274 1.274 0 0 0 2.548 0v-9.939h8.175a1.782 1.782 0 0 0 1.315-.58 1.741 1.741 0 0 0 .449-1.326 8.579 8.579 0 0 0-4.955-6.638zm-14.762 6a6.81 6.81 0 0 1 4.029-4.024 1.274 1.274 0 0 0 .766-1.168v-9.5h7.419v9.5a1.274 1.274 0 0 0 .766 1.168 6.815 6.815 0 0 1 4.029 4.024z" transform="translate(-228.651 -78.964)"/>
</svg>
