<svg id="icon-less-than" xmlns="http://www.w3.org/2000/svg" width="32" height="32" viewBox="0 0 32 32">
    <g id="그룹_3807" data-name="그룹 3807" transform="translate(-.227 .884)">
        <path id="합치기_193" data-name="합치기 193" d="m-3455.2-1295.24-16.286-9.786a1.5 1.5 0 0 1-.26-.2 1.821 1.821 0 0 1-.729-1.537 1.719 1.719 0 0 1 .817-1.447 1.532 1.532 0 0 1 .172-.12l16.286-9.786a1.5 1.5 0 0 1 2.058.514 1.5 1.5 0 0 1-.513 2.058l-14.753 8.865 14.753 8.865a1.5 1.5 0 0 1 .513 2.058 1.5 1.5 0 0 1-1.287.728 1.494 1.494 0 0 1-.771-.212z" transform="translate(3479 1322)"/>
    </g>
</svg>
