<svg id="icon-less-than-or-equal-to" xmlns="http://www.w3.org/2000/svg" width="32" height="32" viewBox="0 0 32 32">
    <g id="그룹_3807" data-name="그룹 3807" transform="translate(-.227 -3.103)">
        <path id="합치기_194" data-name="합치기 194" d="m-3455.2-1328.81-16.286-9.786a1.5 1.5 0 0 1-.513-2.058 1.5 1.5 0 0 1 2.058-.514l16.286 9.786a1.5 1.5 0 0 1 .513 2.058 1.5 1.5 0 0 1-1.288.728 1.49 1.49 0 0 1-.77-.214zm.558-7-16.286-9.786a1.538 1.538 0 0 1-.26-.2 1.823 1.823 0 0 1-.729-1.537 1.722 1.722 0 0 1 .817-1.447 1.656 1.656 0 0 1 .172-.12l16.286-9.786a1.5 1.5 0 0 1 2.058.514 1.5 1.5 0 0 1-.513 2.058l-14.753 8.864 14.753 8.865a1.5 1.5 0 0 1 .513 2.058 1.5 1.5 0 0 1-1.287.727 1.5 1.5 0 0 1-.772-.21z" transform="translate(3478.442 1363)"/>
    </g>
</svg>
