<svg id="icon-greater-than-or-equal-to" xmlns="http://www.w3.org/2000/svg" width="32" height="32" viewBox="0 0 32 32">
    <g id="그룹_3807" data-name="그룹 3807" transform="translate(6 1)">
        <path id="합치기_194" data-name="합치기 194" d="M17.572 30.087 1.286 20.3a1.711 1.711 0 0 1-.166-.116 1.723 1.723 0 0 1-.82-1.45 1.825 1.825 0 0 1 .733-1.541A1.57 1.57 0 0 1 1.286 17l16.286-9.786a1.5 1.5 0 0 1 1.545 2.572L4.363 18.651l14.754 8.865a1.5 1.5 0 0 1-1.545 2.571zM.214 12.058A1.5 1.5 0 0 1 .728 10L17.014.214a1.5 1.5 0 0 1 1.545 2.572L2.273 12.572a1.5 1.5 0 0 1-2.058-.514z" transform="rotate(180 9.922 15.15)"/>
    </g>
</svg>
