<svg xmlns="http://www.w3.org/2000/svg" width="32" height="32" viewBox="0 0 32 32">
    <path data-name="패스 2870" d="M6.486 0a2.821 2.821 0 0 1-.255-.853A3.073 3.073 0 0 1 3.832.176a3.376 3.376 0 0 1-2.316-.809A2.6 2.6 0 0 1 .6-2.672a2.687 2.687 0 0 1 1.121-2.32 5.529 5.529 0 0 1 3.236-.818h1.169v-.545a1.567 1.567 0 0 0-.338-1.055A1.331 1.331 0 0 0 4.72-7.8a1.513 1.513 0 0 0-1.007.3 1.045 1.045 0 0 0-.365.844H.809a2.551 2.551 0 0 1 .51-1.529 3.37 3.37 0 0 1 1.441-1.1 5.253 5.253 0 0 1 2.092-.4 4.15 4.15 0 0 1 2.79.885 3.09 3.09 0 0 1 1.033 2.481V-2.2a4.546 4.546 0 0 0 .378 2.051V0zm-2.1-1.767a2.188 2.188 0 0 0 1.037-.25 1.645 1.645 0 0 0 .7-.672v-1.635h-.946q-1.907 0-2.03 1.318l-.009.149a1.017 1.017 0 0 0 .334.782 1.3 1.3 0 0 0 .914.308z" transform="translate(0 23)"/>
    <path data-name="빼기 2" d="M-2227.4-597h-7.6a2 2 0 0 1-2-2v-18a2 2 0 0 1 2-2h7.6a2 2 0 0 1 2 2v18a2 2 0 0 1-2 2zm-5.425-5.011a2.983 2.983 0 0 0 2.469 1.185 3.245 3.245 0 0 0 2.724-1.279 5.786 5.786 0 0 0 .976-3.564v-.141a5.793 5.793 0 0 0-.989-3.6 3.27 3.27 0 0 0-2.729-1.278 2.9 2.9 0 0 0-2.311 1.028v-4.84h-2.541v13.5h2.285l.114-1.008zm1.829-.861a1.7 1.7 0 0 1-1.687-1v-3.753a1.68 1.68 0 0 1 1.669-.994 1.553 1.553 0 0 1 1.363.664 3.8 3.8 0 0 1 .457 2.105 6.315 6.315 0 0 1-.184 1.767 1.575 1.575 0 0 1-1.622 1.211z" transform="translate(2247.2 624)"/>
    <path data-name="패스 2871" d="M4.931-1.872a1.666 1.666 0 0 0 1.143-.387 1.355 1.355 0 0 0 .456-1.028h2.382a3.258 3.258 0 0 1-.527 1.771 3.48 3.48 0 0 1-1.42 1.248 4.442 4.442 0 0 1-1.99.444 4.129 4.129 0 0 1-3.217-1.3A5.13 5.13 0 0 1 .58-4.7v-.167a5.071 5.071 0 0 1 1.169-3.509 4.08 4.08 0 0 1 3.208-1.31A4 4 0 0 1 7.818-8.67a3.594 3.594 0 0 1 1.094 2.7H6.53a1.745 1.745 0 0 0-.457-1.206 1.524 1.524 0 0 0-1.16-.464 1.53 1.53 0 0 0-1.34.647 3.749 3.749 0 0 0-.453 2.1v.264a3.8 3.8 0 0 0 .448 2.113 1.549 1.549 0 0 0 1.363.644z" transform="translate(22.5 23)"/>
</svg>
