<svg xmlns="http://www.w3.org/2000/svg" width="32" height="32" viewBox="0 0 32 32">
    <path data-name="빼기 1" d="M-2289-597h-28a2 2 0 0 1-2-2v-5.83h1.957a3.52 3.52 0 0 0-.059.658 2.615 2.615 0 0 0 .918 2.039 3.4 3.4 0 0 0 2.318.809 3.087 3.087 0 0 0 2.4-1.029 2.852 2.852 0 0 0 .254.852h2.566v-.149a4.579 4.579 0 0 1-.376-2.047v-1.133h1.951v3.33h2.284l.115-1.011a2.977 2.977 0 0 0 2.47 1.187 3.246 3.246 0 0 0 2.724-1.279 4.857 4.857 0 0 0 .878-2.228h1.389a4.493 4.493 0 0 0 1.054 2.21 4.152 4.152 0 0 0 3.218 1.3 4.466 4.466 0 0 0 1.992-.445 3.506 3.506 0 0 0 1.419-1.247 3.281 3.281 0 0 0 .526-1.771h-2.382a1.36 1.36 0 0 1-.456 1.028 1.669 1.669 0 0 1-1.142.387 1.557 1.557 0 0 1-1.364-.643 2.309 2.309 0 0 1-.328-.815h7.674V-599a2 2 0 0 1-2 2zm-24.314-6.268a1.306 1.306 0 0 1-.913-.307 1.021 1.021 0 0 1-.335-.783l.01-.149a1.51 1.51 0 0 1 .063-.324h2.917v.641a1.66 1.66 0 0 1-.7.672 2.191 2.191 0 0 1-1.042.251zm10.469-.105a1.7 1.7 0 0 1-1.687-1v-.456h3.369a2.489 2.489 0 0 1-.065.246 1.574 1.574 0 0 1-1.617 1.21zm15.845-4.057h-7.722a2.571 2.571 0 0 1 .38-1.06 1.535 1.535 0 0 1 1.34-.647 1.53 1.53 0 0 1 1.16.464 1.756 1.756 0 0 1 .456 1.206h2.386a3.612 3.612 0 0 0-1.094-2.7 4.019 4.019 0 0 0-2.861-1.014 4.1 4.1 0 0 0-3.208 1.309 4.636 4.636 0 0 0-1.093 2.445h-1.31a5 5 0 0 0-.924-2.477 3.271 3.271 0 0 0-2.73-1.278 2.9 2.9 0 0 0-2.31 1.028V-615h-2.54v7.57h-1.951v-.389a3.1 3.1 0 0 0-1.033-2.483 4.169 4.169 0 0 0-2.79-.883 5.281 5.281 0 0 0-2.092.4 3.375 3.375 0 0 0-1.441 1.1 2.563 2.563 0 0 0-.51 1.53h2.54a1.054 1.054 0 0 1 .365-.844 1.523 1.523 0 0 1 1.007-.308 1.341 1.341 0 0 1 1.068.4 1.58 1.58 0 0 1 .338 1.055v.424H-2319V-617a2 2 0 0 1 2-2h28a2 2 0 0 1 2 2v9.57zm-14.125 0h-3.407v-.7a1.681 1.681 0 0 1 1.67-.994 1.549 1.549 0 0 1 1.362.664 2.589 2.589 0 0 1 .376 1.025z" transform="translate(2319 624)"/>
</svg>
