<svg xmlns="http://www.w3.org/2000/svg" width="32" height="32" viewBox="0 0 32 32">
    <path data-name="빼기 3" d="M-2381.2-597h-17.8a2 2 0 0 1-2-2v-18a2 2 0 0 1 2-2h17.8a2 2 0 0 1 2 2v18a2 2 0 0 1-2 2zm-5.424-5.011a2.98 2.98 0 0 0 2.468 1.185 3.246 3.246 0 0 0 2.724-1.279 5.787 5.787 0 0 0 .976-3.564v-.141a5.793 5.793 0 0 0-.989-3.6 3.271 3.271 0 0 0-2.729-1.278 2.9 2.9 0 0 0-2.311 1.028v-4.84h-2.541v13.5h2.286l.114-1.008zm-8.419-4.8a5.556 5.556 0 0 0-3.238.817 2.7 2.7 0 0 0-1.122 2.32 2.613 2.613 0 0 0 .919 2.039 3.39 3.39 0 0 0 2.316.809 3.084 3.084 0 0 0 2.4-1.029 2.851 2.851 0 0 0 .255.852h2.567v-.149a4.581 4.581 0 0 1-.378-2.048v-4.122a3.1 3.1 0 0 0-1.032-2.483 4.17 4.17 0 0 0-2.791-.883 5.279 5.279 0 0 0-2.092.4 3.393 3.393 0 0 0-1.442 1.1 2.567 2.567 0 0 0-.509 1.53h2.54a1.051 1.051 0 0 1 .365-.844 1.523 1.523 0 0 1 1.007-.308 1.338 1.338 0 0 1 1.067.4 1.573 1.573 0 0 1 .338 1.055v.544zm-.572 4.043a1.3 1.3 0 0 1-.913-.307 1.02 1.02 0 0 1-.334-.783l.008-.149c.082-.874.765-1.318 2.031-1.318h.949v1.634a1.657 1.657 0 0 1-.7.672 2.2 2.2 0 0 1-1.041.252zm10.818-.105a1.7 1.7 0 0 1-1.687-1v-3.753a1.68 1.68 0 0 1 1.669-.994 1.552 1.552 0 0 1 1.363.664 3.8 3.8 0 0 1 .457 2.105 6.3 6.3 0 0 1-.185 1.767 1.574 1.574 0 0 1-1.62 1.212z" transform="translate(2401 624)"/>
    <path data-name="패스 2875" d="M4.931-1.872a1.666 1.666 0 0 0 1.143-.387 1.355 1.355 0 0 0 .456-1.028h2.382a3.258 3.258 0 0 1-.527 1.771 3.48 3.48 0 0 1-1.42 1.248 4.442 4.442 0 0 1-1.99.444 4.129 4.129 0 0 1-3.217-1.3A5.13 5.13 0 0 1 .58-4.7v-.167a5.071 5.071 0 0 1 1.169-3.509 4.08 4.08 0 0 1 3.208-1.31A4 4 0 0 1 7.818-8.67a3.594 3.594 0 0 1 1.094 2.7H6.53a1.745 1.745 0 0 0-.457-1.206 1.524 1.524 0 0 0-1.16-.464 1.53 1.53 0 0 0-1.34.647 3.749 3.749 0 0 0-.453 2.1v.264a3.8 3.8 0 0 0 .448 2.113 1.549 1.549 0 0 0 1.363.644z" transform="translate(22.5 23)"/>
</svg>
