<svg xmlns="http://www.w3.org/2000/svg" width="32" height="32" viewBox="0 0 32 32">
    <path data-name="패스 2876" d="M6.486 0a2.821 2.821 0 0 1-.255-.853A3.073 3.073 0 0 1 3.832.176a3.376 3.376 0 0 1-2.316-.809A2.6 2.6 0 0 1 .6-2.672a2.687 2.687 0 0 1 1.121-2.32 5.529 5.529 0 0 1 3.236-.818h1.169v-.545a1.567 1.567 0 0 0-.338-1.055A1.331 1.331 0 0 0 4.72-7.8a1.513 1.513 0 0 0-1.007.3 1.045 1.045 0 0 0-.365.844H.809a2.551 2.551 0 0 1 .51-1.529 3.37 3.37 0 0 1 1.441-1.1 5.253 5.253 0 0 1 2.092-.4 4.15 4.15 0 0 1 2.79.885 3.09 3.09 0 0 1 1.033 2.481V-2.2a4.546 4.546 0 0 0 .378 2.051V0zm-2.1-1.767a2.188 2.188 0 0 0 1.037-.25 1.645 1.645 0 0 0 .7-.672v-1.635h-.946q-1.907 0-2.03 1.318l-.009.149a1.017 1.017 0 0 0 .334.782 1.3 1.3 0 0 0 .914.308z" transform="translate(0 23)"/>
    <path data-name="빼기 4" d="M-2463-597h-18a2 2 0 0 1-2-2v-18a2 2 0 0 1 2-2h18a2 2 0 0 1 2 2v18a2 2 0 0 1-2 2zm-3.043-13.685a4.1 4.1 0 0 0-3.208 1.31 5.093 5.093 0 0 0-1.169 3.506v.167a5.149 5.149 0 0 0 1.178 3.581 4.146 4.146 0 0 0 3.217 1.3 4.465 4.465 0 0 0 1.991-.445 3.49 3.49 0 0 0 1.419-1.247 3.278 3.278 0 0 0 .528-1.771h-2.382a1.36 1.36 0 0 1-.456 1.028 1.673 1.673 0 0 1-1.143.387 1.555 1.555 0 0 1-1.363-.643 3.816 3.816 0 0 1-.448-2.112v-.265a3.768 3.768 0 0 1 .453-2.1 1.538 1.538 0 0 1 1.34-.647 1.535 1.535 0 0 1 1.161.464 1.756 1.756 0 0 1 .456 1.206h2.382a3.609 3.609 0 0 0-1.094-2.7 4.016 4.016 0 0 0-2.862-1.019zm-12.582 8.674a2.981 2.981 0 0 0 2.468 1.185 3.247 3.247 0 0 0 2.725-1.279 5.792 5.792 0 0 0 .976-3.564v-.141a5.793 5.793 0 0 0-.989-3.6 3.271 3.271 0 0 0-2.729-1.278 2.9 2.9 0 0 0-2.311 1.028v-4.84h-2.541v13.5h2.285l.114-1.008zm1.829-.861a1.7 1.7 0 0 1-1.687-1v-3.753a1.68 1.68 0 0 1 1.669-.994 1.553 1.553 0 0 1 1.363.664 3.805 3.805 0 0 1 .456 2.105 6.27 6.27 0 0 1-.185 1.767 1.572 1.572 0 0 1-1.62 1.211z" transform="translate(2493 624)"/>
</svg>
