<svg data-name="그룹 3863" xmlns="http://www.w3.org/2000/svg" width="32" height="32" viewBox="0 0 32 32">
    <g data-name="그룹 3862">
        <path data-name="패스 2914" d="M2.452 31a1.068 1.068 0 0 1-.97-1.514 30.257 30.257 0 0 1 3.8-6.047 1.068 1.068 0 0 1 1.64 1.368 28.592 28.592 0 0 0-3.5 5.57 1.067 1.067 0 0 1-.97.623"/>
        <path data-name="패스 2915" d="M6.1 25.191a1.067 1.067 0 0 1-1.067-1.11l.118-3.034a11.457 11.457 0 0 1 1.8-5.759c.351-.545.793-1.207 1.32-1.943a1.069 1.069 0 0 1 .781-.442.976.976 0 0 1 .171 0l.022-.539a1.064 1.064 0 0 1 .226-.623 43.303 43.303 0 0 1 2.672-3.116 1.067 1.067 0 0 1 1.776.362c.235-.89.414-1.66.5-2.044a1.982 1.982 0 0 1 .668-1.094 20.57 20.57 0 0 1 9.261-4.709c.333-.065 3.371-.6 5.126.98a3.733 3.733 0 0 1 1.117 3.293c-.373 4.06-10.064 14.225-10.161 14.312a1.06 1.06 0 0 1-.639.271l-1.733.122.158.131a1.068 1.068 0 0 1-.326 1.831c-.317.111-7.814 2.737-11.685 3.106h-.1m2.839-9.047-.195.3a9.335 9.335 0 0 0-1.46 4.691l-.068 1.758a69.387 69.387 0 0 0 8.154-2.216l-.736-.609a1.067 1.067 0 0 1 .605-1.888l4.005-.282c1.788-1.825 8.974-10.056 9.216-12.676.095-1.042-.292-1.394-.42-1.51-.817-.741-2.7-.582-3.3-.469a18.487 18.487 0 0 0-8.289 4.249 35.984 35.984 0 0 1-1.784 6.057 1.068 1.068 0 0 1-2.037-.319 18.354 18.354 0 0 0-.291-1.631q-.508.6-1.006 1.224c0 .636-.047 1.68-.123 3.459a1.068 1.068 0 0 1-2.042.39z"/>
    </g>
</svg>
