<svg data-name="그룹 3847" xmlns="http://www.w3.org/2000/svg" width="32" height="32" viewBox="0 0 32 32">
    <g data-name="그룹 3846">
        <path data-name="패스 2895" d="M31 8.206a6.688 6.688 0 0 0-2.892-6.14 5.972 5.972 0 0 0-2.351-.916 16.5 16.5 0 0 0-6.148.36 9.305 9.305 0 0 0-5.173.008 7.01 7.01 0 0 0-1.588.706c-1.475-.652-5.577-2.068-9.335.305C.057 4.717.76 10.308 1.959 14.613a19.629 19.629 0 0 0 3.664 7.242 2.515 2.515 0 0 0 1.758.915c.068 0 .136.008.2.008a2.607 2.607 0 0 0 1.719-.649 21.389 21.389 0 0 0 2.756-2.9 7.236 7.236 0 0 0 1.3.381c.058.011.1.028.155.041a9.874 9.874 0 0 1-2.987 1.727 1.391 1.391 0 0 0-.206 2.565 6.486 6.486 0 0 0 2.859.7 5.336 5.336 0 0 0 1.4-.192v2.219A4.266 4.266 0 0 0 18.893 31a3.8 3.8 0 0 0 2.8-1.129 5.964 5.964 0 0 0 1.371-3.981v-2.463a9.826 9.826 0 0 0 1.371.106 7.847 7.847 0 0 0 4.972-1.692c1.062-.842 1.046-1.582.844-2.053a1.936 1.936 0 0 0-2.052-.9 6.72 6.72 0 0 1-3.32-.321c.046-.077.093-.154.135-.232 4.133-3.646 5.813-7.724 5.986-10.129M25.429 3.26a3.873 3.873 0 0 1 1.514.593 4.555 4.555 0 0 1 1.932 4.2 12.724 12.724 0 0 1-3.139 6.5V9.986a7.878 7.878 0 0 0-.806-3.491 11.527 11.527 0 0 0-2.4-3.3 12.207 12.207 0 0 1 2.9.07M7.888 20.528a.438.438 0 0 1-.663-.087 17.469 17.469 0 0 1-3.209-6.4c-.661-2.378-1.924-8.082.643-9.7a7.557 7.557 0 0 1 6.312-.541c-.157.185-.323.36-.462.56-.068.1-.131.193-.192.288A9.387 9.387 0 0 0 8.9 9.744V15.1a4.1 4.1 0 0 0 1.1 2.745c.075.086.168.155.249.235a19.8 19.8 0 0 1-2.364 2.448m5.253 1.98a14.649 14.649 0 0 0 1.442-.981v.648a3.182 3.182 0 0 1-1.442.333m7.016 5.882a1.647 1.647 0 0 1-1.264.474 2.143 2.143 0 0 1-2.173-2.218v-5.718a3.308 3.308 0 0 0-2.967-3.422 3.662 3.662 0 0 1-2.145-1.07 2.012 2.012 0 0 1-.574-1.338V9.744a7.272 7.272 0 0 1 1.08-3.938c.048-.073.1-.147.147-.221a5.075 5.075 0 0 1 2.762-2.008 7.1 7.1 0 0 1 4.232.056A7.272 7.272 0 0 1 23.01 7.45a5.721 5.721 0 0 1 .582 2.54v5.541a3.815 3.815 0 0 1-1.547 3.061 2.631 2.631 0 0 0-1.121 2.136v5.2a3.89 3.89 0 0 1-.775 2.467m2.911-7.14v-.526a.542.542 0 0 1 .244-.411c.03-.023.057-.049.086-.072a8.05 8.05 0 0 0 3.023.832 6.8 6.8 0 0 1-3.353.177"/>
    </g>
</svg>
