<svg data-name="그룹 3857" xmlns="http://www.w3.org/2000/svg" width="32" height="32" viewBox="0 0 32 32">
    <g data-name="그룹 3856">
        <path data-name="패스 2904" d="M4.667 31a4.074 4.074 0 0 1-1.582-.286 1.113 1.113 0 0 1-.647-1.162 1.078 1.078 0 0 0-.472-1.045l-.331-.221a1.111 1.111 0 0 1-.2-1.678 6.3 6.3 0 0 1 3.11-1.434l.095-.023c1.461-.353 2.066-.5 2.617-2.272.006-.021.027-.081.035-.1.154-.462 1.914-5.305 9.092-7.759a6.073 6.073 0 0 0 3.889-5.011c.043-.333 1-6.906 6.96-8.353a6.314 6.314 0 0 0 1.221-.443 1.477 1.477 0 0 1 1.346-.091 2.033 2.033 0 0 1 1.032 1.42c.042.281.233 2.107-1.684 4.663-1.008 1.342-.815 3.508-.686 4.376a13.459 13.459 0 0 1 .106 3.536 10.9 10.9 0 0 1-2.226 5.67 8.918 8.918 0 0 0-1.142 1.786 10.106 10.106 0 0 1-3.894 4.4c-3.333 1.995-4.241 1.164-4.538.892-.6-.547-.637-1.37-.117-2.444q.152-.315.285-.6l-3.988 1.02a4.681 4.681 0 0 0-2.64 1.727 8.717 8.717 0 0 1-2.9 2.715A5.91 5.91 0 0 1 4.667 31m-.06-2.222a3.671 3.671 0 0 0 1.778-.465 6.743 6.743 0 0 0 2.127-2.054 6.907 6.907 0 0 1 3.886-2.57l6.179-1.58a1.111 1.111 0 0 1 1.314 1.47c-.015.04-.325.855-.905 2.1a12.318 12.318 0 0 0 1.2-.627A7.927 7.927 0 0 0 23.2 21.6a11.174 11.174 0 0 1 1.428-2.229 8.7 8.7 0 0 0 1.732-4.505 11.361 11.361 0 0 0-.095-2.957c-.213-1.424-.35-4.1 1.106-6.039a6.574 6.574 0 0 0 1.18-2.3c-.392.135-.72.221-.782.237-4.487 1.089-5.26 6.226-5.291 6.444a8.27 8.27 0 0 1-5.378 6.87c-6.255 2.138-7.646 6.183-7.7 6.355l-.006.018c0 .013-.021.059-.026.071-.917 2.951-2.59 3.356-4.209 3.746l-.094.023c-.379.091-.688.178-.942.261a3.355 3.355 0 0 1 .482 1.183m13.9-2.02zM8.344 23.137z"/>
    </g>
</svg>
