<svg data-name="그룹 3859" xmlns="http://www.w3.org/2000/svg" width="32" height="32" viewBox="0 0 32 32">
    <g data-name="그룹 3858">
        <path data-name="패스 2905" d="M27.586 10.671a25.256 25.256 0 0 0-9.138-3.848 17.509 17.509 0 0 0-1.954-4.586 2.553 2.553 0 0 0-3.263-1A21.417 21.417 0 0 0 9.652 3.2c-.847.517-2.243 1.582-2.052 2.855a1.564 1.564 0 0 0 .316.734c.221.292 5.189 7.049-2.1 14.26-2.5 2.111-2.677 3.9-2.326 5.087.837 2.826 5.376 4.643 12.142 4.864h.085a2.552 2.552 0 0 0 2.337-1.531 27.908 27.908 0 0 0 2.264-12.658 93.093 93.093 0 0 1 6.279-1.535 2.577 2.577 0 0 0 .989-4.605m-8.131-1.38c-.175.517-.425 1.2-.749 1.97-.8-.172-1.581-.313-2.319-.427a19.537 19.537 0 0 0 .452-2.162c.852.171 1.73.373 2.616.619m-5.528 7.377A24.027 24.027 0 0 0 15.8 12.7c.66.1 1.356.215 2.078.36a21.571 21.571 0 0 1-1.663 2.782c-.765.259-1.529.531-2.286.822m-3.054-8.86.337.038c.982.108 2.276.254 3.726.483a18.354 18.354 0 0 1-.489 2.25 42.524 42.524 0 0 0-2.795-.212 13.444 13.444 0 0 0-.779-2.559m1.007 4.5c.512.026 1.168.072 1.944.149a22.741 22.741 0 0 1-3.159 5.609l-.04.02a12.03 12.03 0 0 0 1.255-5.778m-1.028-7.337a20.367 20.367 0 0 1 3.269-1.783.424.424 0 0 1 .533.154 16.282 16.282 0 0 1 1.415 3 69.158 69.158 0 0 0-4.626-.627c-.531-.059-1.043-.115-1.376-.165a6.381 6.381 0 0 1 .785-.584M16.095 28.6a.434.434 0 0 1-.393.256c-6.079-.2-9.713-1.823-10.158-3.327-.179-.6.17-1.364.962-2.194.009-.007.02-.009.028-.017.224-.2.43-.4.637-.6.289-.246.6-.493.96-.743A38.554 38.554 0 0 1 18.2 17.444a25.251 25.251 0 0 1-2.1 11.157m2.964-13.652c.272-.486.522-.967.75-1.437.707.186 1.419.4 2.127.647-.921.236-1.888.5-2.877.79m7.434-2.1a.413.413 0 0 1-.334.331c-.319.067-.658.14-1.01.217a26.866 26.866 0 0 0-4.54-1.673c.3-.726.524-1.36.69-1.855a19.325 19.325 0 0 1 5.018 2.531.419.419 0 0 1 .171.445"/>
    </g>
</svg>
