<svg data-name="그룹 3825" xmlns="http://www.w3.org/2000/svg" width="32" height="32" viewBox="0 0 32 32">
    <g data-name="그룹 3824">
        <path data-name="패스 2879" d="M10.589 21.952H6.952a5.952 5.952 0 1 1 0-11.9h3.637a5.952 5.952 0 1 1 0 11.9m-3.637-9.535a3.583 3.583 0 1 0 0 7.166h3.637a3.583 3.583 0 0 0 0-7.166z"/>
        <path data-name="패스 2880" d="M29.072 21.952a1.176 1.176 0 0 1-.736-.258l-5.3-4.215a1.185 1.185 0 0 1 .737-2.111h3.564a1.393 1.393 0 0 0 1.29-1.475 1.394 1.394 0 0 0-1.29-1.476h-6.852v8.351a1.185 1.185 0 0 1-2.369 0v-9.535a1.186 1.186 0 0 1 1.184-1.185h8.04A3.76 3.76 0 0 1 31 13.893a3.759 3.759 0 0 1-3.659 3.844h-.174l2.643 2.1a1.184 1.184 0 0 1-.738 2.111"/>
    </g>
</svg>
