<svg data-name="그룹 4269" xmlns="http://www.w3.org/2000/svg" width="32" height="32" viewBox="0 0 32 32">
    <g data-name="그룹 4227">
        <path data-name="패스 3320" d="M22.146 31H3.089A2.092 2.092 0 0 1 1 28.909v-5.6a1.137 1.137 0 0 1 1.7-.989 3.416 3.416 0 0 0 2.341.381 3.386 3.386 0 0 0 1.963-5.459 3.467 3.467 0 0 0-4.3-.809A1.139 1.139 0 0 1 1 15.448v-5.6a2.092 2.092 0 0 1 2.088-2.09h3.977a5.5 5.5 0 0 1 .128-2.71 5.661 5.661 0 0 1 11.088 1.616 5.386 5.386 0 0 1-.112 1.1h3.977a2.092 2.092 0 0 1 2.088 2.09v3.976a5.518 5.518 0 0 1 2.71.126 5.658 5.658 0 0 1-2.71 10.976v3.978A2.092 2.092 0 0 1 22.146 31M3.278 28.72h18.679v-5.431a1.14 1.14 0 0 1 1.707-.988 3.375 3.375 0 1 0 2.636-6.163 3.242 3.242 0 0 0-2.632.321 1.138 1.138 0 0 1-1.707-.986v-5.432h-5.43a1.139 1.139 0 0 1-.987-1.706A3.322 3.322 0 0 0 16 6.664 3.383 3.383 0 0 0 9.375 5.7a3.248 3.248 0 0 0 .32 2.633 1.138 1.138 0 0 1-.987 1.706h-5.43v3.784a5.669 5.669 0 0 1 6.638 6.761 5.651 5.651 0 0 1-4.452 4.356 5.725 5.725 0 0 1-2.187-.008z" style="fill:#999"/>
    </g>
</svg>
