<svg data-name="그룹 4276" xmlns="http://www.w3.org/2000/svg" width="32" height="32" viewBox="0 0 32 32">
    <g data-name="그룹 4275">
        <path data-name="패스 3383" d="M22 17.1h5.27a2.5 2.5 0 1 0 0-2.2H22a6.1 6.1 0 0 0-2.2-3.665l3.428-5.211h4.039a2.5 2.5 0 1 0 0-2.2h-4.224a1.887 1.887 0 0 0-1.375.6.968.968 0 0 0-.117.147l-3.7 5.623a6.068 6.068 0 0 0-3.71 0L10.452 4.57a1.136 1.136 0 0 0-.119-.15 1.9 1.9 0 0 0-1.38-.6H4.734a2.5 2.5 0 1 0 0 2.2h4.04l3.426 5.218A6.094 6.094 0 0 0 9.99 15h-5.2a2.5 2.5 0 1 0 0 2h5.2a6.1 6.1 0 0 0 2.216 3.768l-3.432 5.209h-4.04a2.5 2.5 0 1 0 0 2.2h4.219a1.9 1.9 0 0 0 1.38-.6 1.286 1.286 0 0 0 .118-.149l3.7-5.619a6.08 6.08 0 0 0 3.692 0l3.706 5.621a1.027 1.027 0 0 0 .116.147 1.887 1.887 0 0 0 1.375.6h4.222a2.5 2.5 0 1 0 0-2.2h-4.036l-3.433-5.208A6.1 6.1 0 0 0 22 17.1m-6 2.8a3.9 3.9 0 1 1 3.9-3.9 3.905 3.905 0 0 1-3.9 3.9" style="fill:#999"/>
    </g>
</svg>
