<svg data-name="그룹 4261" xmlns="http://www.w3.org/2000/svg" width="32" height="32" viewBox="0 0 32 32">
    <g data-name="그룹 4260">
        <path data-name="패스 3380" d="m27.9 7.975-6.35-6.353A2.12 2.12 0 0 0 20.045 1H5.6a2.129 2.129 0 0 0-2.125 2.126v25.749A2.127 2.127 0 0 0 5.6 31h20.793a2.134 2.134 0 0 0 2.132-2.131V9.478a2.109 2.109 0 0 0-.623-1.5m-6.308-3.091 3.043 3.044h-3.043zM5.752 28.723V3.277h13.565v5.792a1.138 1.138 0 0 0 1.138 1.139h5.792v18.515z" style="fill:#999"/>
        <path data-name="패스 3381" d="M18.465 22.681a4.6 4.6 0 0 0 1.043-1.522 6.634 6.634 0 0 0 .483-2.626v-.563a6.52 6.52 0 0 0-.559-2.738 4.241 4.241 0 0 0-1.608-1.855 4.43 4.43 0 0 0-2.386-.646 4.385 4.385 0 0 0-2.369.654 4.3 4.3 0 0 0-1.607 1.878 6.522 6.522 0 0 0-.562 2.757v.571a6.4 6.4 0 0 0 .57 2.709 4.307 4.307 0 0 0 1.614 1.856 4.4 4.4 0 0 0 2.368.653 4.866 4.866 0 0 0 .818-.066l2.028 1.6a.339.339 0 0 0 .215.075.348.348 0 0 0 .232-.089l1.138-1.029a.347.347 0 0 0 .114-.27.343.343 0 0 0-.133-.261zm-.93-4.148a4.166 4.166 0 0 1-.566 2.4 1.727 1.727 0 0 1-1.517.742 1.725 1.725 0 0 1-1.517-.774 4.118 4.118 0 0 1-.579-2.364v-.586a4 4 0 0 1 .59-2.318 1.721 1.721 0 0 1 1.492-.747 1.756 1.756 0 0 1 1.525.739 4.082 4.082 0 0 1 .572 2.385z" style="fill:#999"/>
    </g>
</svg>
