<svg data-name="그룹 4265" xmlns="http://www.w3.org/2000/svg" width="32" height="32" viewBox="0 0 32 32">
    <g data-name="그룹 4248">
        <path data-name="패스 3369" d="M16.539 26.165H4.128a3.2 3.2 0 0 1-3.2-3.2V4.827a3.2 3.2 0 0 1 3.2-3.2h4.164a3.215 3.215 0 0 1 1.934.652l2.883 2.187a.8.8 0 0 0 .482.161h10.357a3.2 3.2 0 0 1 3.2 3.2v2.32a1.2 1.2 0 1 1-2.4 0v-2.32a.8.8 0 0 0-.8-.8H13.591a3.218 3.218 0 0 1-1.932-.65L8.773 4.189a.794.794 0 0 0-.481-.162H4.128a.8.8 0 0 0-.8.8v18.138a.8.8 0 0 0 .8.8h12.411a1.2 1.2 0 0 1 0 2.4" style="fill:#999"/>
        <path data-name="패스 3370" d="M31.071 13.758c0-2.753-3.957-4.194-7.866-4.194s-7.866 1.441-7.866 4.194v12.373c0 2.3 3.6 4.242 7.866 4.242s7.866-1.942 7.866-4.242V13.759M23.2 11.965c3.551 0 5.466 1.273 5.466 1.793s-1.915 1.806-5.466 1.806-5.466-1.281-5.466-1.806 1.915-1.793 5.466-1.793m0 16.008c-3.239 0-5.329-1.329-5.466-1.842v-9.269a12.885 12.885 0 0 0 5.466 1.1 12.871 12.871 0 0 0 5.467-1.1v9.239c-.125.482-2.2 1.873-5.469 1.873" style="fill:#999"/>
    </g>
</svg>
