<svg data-name="그룹 4264" xmlns="http://www.w3.org/2000/svg" width="32" height="32" viewBox="0 0 32 32">
    <g data-name="그룹 4246">
        <path data-name="패스 3367" d="M23.949 4.626H13.591a.8.8 0 0 1-.482-.162l-2.884-2.188a3.221 3.221 0 0 0-1.933-.65H4.129a3.2 3.2 0 0 0-3.2 3.2v18.137c0 .088.019.17.026.255 0 .022 0 .043.007.065a3.2 3.2 0 0 0 3.168 2.882h12.183a1.2 1.2 0 0 0 0-2.4H4.234a.891.891 0 0 1-.744-.39.875.875 0 0 1-.115-.8l3.234-7.686a2.486 2.486 0 0 1 2.3-1.524h8.415a1.2 1.2 0 0 0 0-2.4H8.906A4.884 4.884 0 0 0 4.4 13.961L3.329 16.5V4.826a.8.8 0 0 1 .8-.8h4.163a.79.79 0 0 1 .482.163l2.885 2.188a3.217 3.217 0 0 0 1.932.649h10.358a.8.8 0 0 1 .8.8v2.938a1.2 1.2 0 1 0 2.4 0V7.826a3.2 3.2 0 0 0-3.2-3.2" style="fill:#999"/>
        <path data-name="패스 3368" d="M31.071 13.758c0-2.753-3.957-4.194-7.866-4.194s-7.865 1.441-7.865 4.194v12.373c0 2.3 3.6 4.242 7.865 4.242s7.866-1.942 7.866-4.242V13.759M23.2 11.965c3.551 0 5.466 1.273 5.466 1.793s-1.915 1.806-5.466 1.806-5.465-1.281-5.465-1.806 1.915-1.793 5.465-1.793m0 16.008c-3.238 0-5.328-1.329-5.465-1.842v-9.269a12.877 12.877 0 0 0 5.465 1.1 12.871 12.871 0 0 0 5.467-1.1v9.239c-.125.482-2.2 1.873-5.469 1.873" style="fill:#999"/>
    </g>
</svg>
