<svg data-name="그룹 4257" xmlns="http://www.w3.org/2000/svg" width="32" height="32" viewBox="0 0 32 32">
    <g data-name="그룹 4256">
        <path data-name="패스 3376" d="M26.583 5.048H15.522a.86.86 0 0 1-.514-.173l-3.08-2.336a3.433 3.433 0 0 0-2.064-.7H5.417A3.422 3.422 0 0 0 2 5.262v19.37a3.422 3.422 0 0 0 3.417 3.417h5.243a1.281 1.281 0 1 0 0-2.563H5.417a.855.855 0 0 1-.853-.854V5.262a.855.855 0 0 1 .853-.854h4.447a.859.859 0 0 1 .514.172l3.08 2.337a3.436 3.436 0 0 0 2.064.694h11.061a.855.855 0 0 1 .853.854v16.167a.855.855 0 0 1-.853.854h-5.245a1.281 1.281 0 0 0 0 2.563h5.245A3.422 3.422 0 0 0 30 24.632V8.465a3.422 3.422 0 0 0-3.417-3.417" style="fill:#999"/>
        <path data-name="패스 3377" d="M20.146 21.228a1.282 1.282 0 0 0 1.654-1.961l-4.972-4.188a1.384 1.384 0 0 0-.131-.071 1.264 1.264 0 0 0-.156-.1c-.034-.016-.069-.027-.1-.04a1.189 1.189 0 0 0-.194-.046 1.323 1.323 0 0 0-.185-.031c-.02 0-.036-.011-.055-.011s-.036.01-.056.011a1.323 1.323 0 0 0-.185.031 1.189 1.189 0 0 0-.194.046c-.036.013-.07.024-.1.04a1.264 1.264 0 0 0-.156.1 1.256 1.256 0 0 0-.13.071L10.2 19.267a1.282 1.282 0 0 0 1.652 1.961l2.864-2.413v10.059a1.281 1.281 0 1 0 2.563 0V18.815z" style="fill:#999"/>
    </g>
</svg>
