<svg data-name="그룹 4259" xmlns="http://www.w3.org/2000/svg" width="32" height="32" viewBox="0 0 32 32">
    <g data-name="그룹 4258">
        <path data-name="패스 3378" d="M27.6 6.162H16.61a.85.85 0 0 1-.51-.172l-3.063-2.322a3.408 3.408 0 0 0-2.051-.69H6.567a3.4 3.4 0 0 0-3.4 3.4v10.683a1.274 1.274 0 0 0 2.548 0V6.374a.849.849 0 0 1 .849-.848h4.419a.847.847 0 0 1 .517.174l3.062 2.322a3.411 3.411 0 0 0 2.051.691H27.6a.85.85 0 0 1 .849.849v16.063a.85.85 0 0 1-.849.849h-8.92a1.274 1.274 0 1 0 0 2.548h8.92a3.4 3.4 0 0 0 3.4-3.4V9.559a3.4 3.4 0 0 0-3.4-3.4" style="fill:#999"/>
        <path data-name="패스 3379" d="M16.273 22.315a1.326 1.326 0 0 0-.031-.187 1.289 1.289 0 0 0-.046-.193c-.012-.034-.023-.068-.038-.1a1.343 1.343 0 0 0-.105-.161 1.414 1.414 0 0 0-.069-.126l-4.161-4.94a1.274 1.274 0 1 0-1.949 1.64l2.4 2.847h-10a1.274 1.274 0 0 0 0 2.548h10l-2.4 2.847a1.274 1.274 0 0 0 1.949 1.641l4.161-4.942a1.182 1.182 0 0 0 .069-.126 1.2 1.2 0 0 0 .105-.161c.015-.033.026-.066.038-.1a1.289 1.289 0 0 0 .046-.193 1.326 1.326 0 0 0 .031-.187c0-.019.011-.034.011-.053s-.01-.034-.011-.053" style="fill:#999"/>
    </g>
</svg>
