<svg xmlns="http://www.w3.org/2000/svg" width="32" height="32" viewBox="0 0 32 32">
    <path data-name="합치기 114" d="M14.761 23.817A11.833 11.833 0 0 1 6.436 20.1a11.967 11.967 0 0 1-3.157-6.606l-.951.956a1.338 1.338 0 0 1-.937.419 1.353 1.353 0 0 1-.966-.369 1.35 1.35 0 0 1-.058-1.91l.053-.051 3.145-3.163a1.386 1.386 0 0 1 1.908 0l3.149 3.173a1.35 1.35 0 0 1-.957 2.3 1.335 1.335 0 0 1-.953-.4l-.652-.653A9.213 9.213 0 0 0 21.42 18.6a1.343 1.343 0 0 1 .949-.389 1.349 1.349 0 0 1 .95 2.306l-.05.049a11.825 11.825 0 0 1-8.169 3.256c-.116 0-.228-.001-.339-.005zm9.784-9.447-3.153-3.179a1.348 1.348 0 1 1 1.914-1.9l.819.824a9.215 9.215 0 0 0-10.093-7.359 9.266 9.266 0 0 0-5.418 2.6 1.349 1.349 0 0 1-1.9-1.919 11.908 11.908 0 0 1 16.843.114 11.966 11.966 0 0 1 3.3 6.576l.826-.832a1.339 1.339 0 0 1 .944-.409 1.39 1.39 0 0 1 .961.378 1.347 1.347 0 0 1 .033 1.907l-3.171 3.19a1.349 1.349 0 0 1-1.905.01z" transform="translate(.733 3.877)" style="fill:#999;stroke:transparent;stroke-miterlimit:10"/>
</svg>
