<svg data-name="그룹 4295" xmlns="http://www.w3.org/2000/svg" width="32" height="32" viewBox="0 0 32 32">
    <g data-name="그룹 4294">
        <path data-name="패스 3387" d="m25.11 13.378 3.727-3.726a2.827 2.827 0 0 0-.091-3.988l-3.1-3.1a2.824 2.824 0 0 0-3.987-.089L17.932 6.2 3.11 21.017a2.422 2.422 0 0 0-.623 1.077l-1.44 5.331a2.406 2.406 0 0 0 .659 2.175 2.379 2.379 0 0 0 1.706.7 2.748 2.748 0 0 0 .556-.057l5.245-1.419a2.422 2.422 0 0 0 1.077-.624l14.82-14.821m-1.589-9.04a.251.251 0 0 1 .257.089l3.1 3.1a.256.256 0 0 1 .091.256l-2.792 2.796-3.449-3.449zM8.467 26.29l-4.729 1.282 1.28-4.732L18.862 9l3.449 3.449z" style="fill:#999"/>
        <path data-name="패스 3388" d="M29.681 27.67H16.152a1.32 1.32 0 0 0 0 2.639h13.529a1.32 1.32 0 0 0 0-2.639" style="fill:#999"/>
    </g>
</svg>
