<svg data-name="그룹 4329" xmlns="http://www.w3.org/2000/svg" width="32" height="32" viewBox="0 0 32 32">
    <g data-name="그룹 4328">
        <path data-name="패스 3391" d="M30.112 9.871H15.525a.889.889 0 0 0-.888.888v17.353a.889.889 0 0 0 .888.888h14.587a.889.889 0 0 0 .888-.888V10.759a.889.889 0 0 0-.888-.888M28.2 26.2H17.437V12.671H28.2z" style="fill:#999"/>
        <path data-name="패스 3392" d="M30.36 3H1.641A.64.64 0 0 0 1 3.64v3.022a.64.64 0 0 0 .64.641h28.72a.641.641 0 0 0 .64-.641V3.64a.641.641 0 0 0-.64-.64" style="fill:#999"/>
        <path data-name="패스 3393" d="M11.026 9.871H1.9a.9.9 0 0 0-.9.9v.992a.9.9 0 0 0 .9.9h9.122a.9.9 0 0 0 .9-.9v-.992a.9.9 0 0 0-.9-.9" style="fill:#999"/>
        <path data-name="패스 3394" d="M11.061 15.236h-6.7a.868.868 0 0 0-.867.868v1.064a.868.868 0 0 0 .867.868h6.7a.868.868 0 0 0 .868-.868V16.1a.868.868 0 0 0-.868-.868" style="fill:#999"/>
        <path data-name="패스 3395" d="M11.061 20.835h-6.7a.868.868 0 0 0-.867.868v1.064a.867.867 0 0 0 .867.868h6.7a.868.868 0 0 0 .868-.868V21.7a.868.868 0 0 0-.868-.868" style="fill:#999"/>
        <path data-name="패스 3396" d="M11.061 26.2h-6.7a.867.867 0 0 0-.867.868v1.064a.868.868 0 0 0 .868.868h6.7a.868.868 0 0 0 .868-.868v-1.064a.868.868 0 0 0-.868-.868" style="fill:#999"/>
    </g>
</svg>
