<svg data-name="그룹 4331" xmlns="http://www.w3.org/2000/svg" width="32" height="32" viewBox="0 0 32 32">
    <g data-name="그룹 4330">
        <path data-name="패스 3397" d="m27.9 7.975-6.35-6.35A2.114 2.114 0 0 0 20.045 1H5.6a2.129 2.129 0 0 0-2.125 2.126v25.749A2.128 2.128 0 0 0 5.6 31h20.793a2.134 2.134 0 0 0 2.132-2.132V9.478a2.112 2.112 0 0 0-.623-1.5m-6.308-3.09 3.042 3.042h-3.042zM5.753 28.722V3.277h13.563v5.792a1.14 1.14 0 0 0 1.139 1.139h5.792v18.514z" style="fill:#999"/>
        <path data-name="패스 3398" d="M12.307 14.132H7.552a.422.422 0 0 0-.421.421v.84a.421.421 0 0 0 .421.42h1.433v4.734a.421.421 0 0 0 .42.421h1.033a.422.422 0 0 0 .421-.421v-4.734h1.448a.421.421 0 0 0 .421-.42v-.84a.422.422 0 0 0-.421-.421" style="fill:#999"/>
        <path data-name="패스 3399" d="m17.145 17.524 1.678-2.753a.422.422 0 0 0-.36-.639h-1.2a.422.422 0 0 0-.364.208L16 15.881l-.9-1.541a.422.422 0 0 0-.364-.208h-1.2a.42.42 0 0 0-.359.64l1.681 2.752-1.723 2.8a.422.422 0 0 0 .359.642h1.211a.42.42 0 0 0 .363-.208L16 19.18l.926 1.58a.421.421 0 0 0 .363.208H18.5a.42.42 0 0 0 .359-.64z" style="fill:#999"/>
        <path data-name="패스 3400" d="M24.449 14.132h-4.756a.422.422 0 0 0-.421.421v.84a.421.421 0 0 0 .421.42h1.433v4.734a.421.421 0 0 0 .42.421h1.034a.422.422 0 0 0 .42-.421v-4.734h1.448a.421.421 0 0 0 .421-.42v-.84a.422.422 0 0 0-.421-.421" style="fill:#999"/>
    </g>
</svg>
