<svg xmlns="http://www.w3.org/2000/svg" width="32" height="32" viewBox="0 0 32 32">
    <g data-name="icon_Show Performance Report_14">
        <g data-name="그룹 3930">
            <path data-name="패스 3314" d="M8.605 29.471h-4.61A1.535 1.535 0 0 1 2.41 28V13.294a1.535 1.535 0 0 1 1.585-1.471h4.61a1.535 1.535 0 0 1 1.585 1.471V28a1.535 1.535 0 0 1-1.585 1.471zM20.1 3h-4.61a1.535 1.535 0 0 0-1.59 1.471V28a1.535 1.535 0 0 0 1.585 1.471H20.1A1.535 1.535 0 0 0 21.681 28V4.471A1.535 1.535 0 0 0 20.1 3zm11.486 11.765h-4.61a1.535 1.535 0 0 0-1.585 1.471V28a1.535 1.535 0 0 0 1.585 1.471h4.61A1.535 1.535 0 0 0 33.171 28V16.236a1.535 1.535 0 0 0-1.585-1.471z" transform="translate(-1.792 -.714)" style="fill:#fff"/>
        </g>
    </g>
</svg>
