<svg xmlns="http://www.w3.org/2000/svg" width="31.999" height="32.001" viewBox="0 0 31.999 32.001">
    <path data-name="합치기 200" d="M-6741-1826a16 16 0 0 1 16-16 16 16 0 0 1 16 16 16 16 0 0 1-16 16 16 16 0 0 1-16-16zm16 11.886a11.9 11.9 0 0 0 11.888-11.886 11.859 11.859 0 0 0-3.87-8.77l-12.566 19.75a11.826 11.826 0 0 0 4.548.906zm-11.887-11.886a11.859 11.859 0 0 0 3.867 8.766l12.57-19.748a11.83 11.83 0 0 0-4.55-.9 11.9 11.9 0 0 0-11.887 11.882z" transform="translate(6741.001 1842)" style="fill:#a7b1bc"/>
</svg>
