<svg xmlns="http://www.w3.org/2000/svg" width="32.001" height="32.001" viewBox="0 0 32.001 32.001">
    <g data-name="그룹 3849">
        <g data-name="합치기 189">
            <path data-name="패스 3328" d="M28 28V8.786L23.23 4H4v24h24m.445 4H3.557A3.566 3.566 0 0 1 0 28.445V3.557A3.556 3.556 0 0 1 3.557 0h19.857a3.562 3.562 0 0 1 2.526 1.052l5.014 5.029A3.5 3.5 0 0 1 32 8.587v19.858A3.565 3.565 0 0 1 28.446 32z" style="fill:#a7b1bc"/>
        </g>
        <path data-name="합치기 201" d="M-7550.5-2283.481v-11.429a2.287 2.287 0 0 1 2.286-2.286h13.715a2.286 2.286 0 0 1 2.285 2.286v11.429zm4-4h10.286v-5.714h-10.286zm-2-20a1.142 1.142 0 0 1-1.143-1.143v-6h11.429v6a1.142 1.142 0 0 1-1.143 1.143z" transform="translate(7557.356 2315.481)" style="fill:#a7b1bc"/>
    </g>
</svg>
