<svg xmlns="http://www.w3.org/2000/svg" width="32.002" height="32" viewBox="0 0 32.002 32">
    <path data-name="합치기 195" d="M3.66 28.34A3.66 3.66 0 0 1 0 24.688V3.656A3.661 3.661 0 0 1 3.66 0h7.3v4.117H4.117v20.111h20.115v-7.813h4.113v8.273a3.659 3.659 0 0 1-3.656 3.652zm9.055-12.54a2.057 2.057 0 0 1 .008-2.911c.066-.065 4.924-4.9 8.787-8.773h-4.362a2.056 2.056 0 1 1 0-4.113h9.141a2.056 2.056 0 0 1 2.039 1.789 2.076 2.076 0 0 1-.018.891 2 2 0 0 1 .035.377v7.931a2.057 2.057 0 0 1-4.113 0V7.208c-3.84 3.851-8.541 8.528-8.605 8.593a2.06 2.06 0 0 1-2.912 0z" transform="translate(0 1.829)" style="fill:#a7b1bc"/>
    <g data-name="타원 206" transform="translate(9.145 1.845)" style="stroke:#a7b1bc;fill:#a7b1bc">
        <circle cx="2.057" cy="2.057" r="2.057" style="stroke:none"/>
        <circle cx="2.057" cy="2.057" r="1.557" style="fill:none"/>
    </g>
    <g data-name="타원 207" transform="translate(24.23 16.457)" style="stroke:#a7b1bc;fill:#a7b1bc">
        <circle cx="2.057" cy="2.057" r="2.057" style="stroke:none"/>
        <circle cx="2.057" cy="2.057" r="1.557" style="fill:none"/>
    </g>
</svg>
