<svg xmlns="http://www.w3.org/2000/svg" width="32" height="32" viewBox="0 0 32 32">
    <path data-name="합치기 193" d="M6.631 31.913a3.66 3.66 0 0 1-3.66-3.659V13.627a3.659 3.659 0 0 1 3.66-3.659H24a3.658 3.658 0 0 1 3.654 3.659v14.626A3.658 3.658 0 0 1 24 31.913zm.455-4.113h16.457V14.083H7.086zM2.059 7.083a2.058 2.058 0 1 1 0-4.115h8.258v-.017A3.09 3.09 0 0 1 13.531 0H17.1a3.089 3.089 0 0 1 3.211 2.951v.017h8.031a2.058 2.058 0 0 1 0 4.115z" transform="translate(.684 .088)" style="fill:#a7b1bc"/>
</svg>
