<svg xmlns="http://www.w3.org/2000/svg" width="32" height="32" viewBox="0 0 32 32">
    <path data-name="패스 3282" d="M24.667 15c0-.3-.013-.585-.039-.884l2.418-1.833a1.308 1.308 0 0 0 .338-1.69l-2.431-4.2a1.283 1.283 0 0 0-1.625-.546l-2.795 1.184a9.863 9.863 0 0 0-1.521-.884l-.377-3A1.3 1.3 0 0 0 17.348 2H12.5a1.307 1.307 0 0 0-1.3 1.144l-.377 3a9.863 9.863 0 0 0-1.523.887L6.506 5.848a1.283 1.283 0 0 0-1.625.546L2.45 10.606a1.311 1.311 0 0 0 .338 1.69l2.418 1.833a10.053 10.053 0 0 0 0 1.755l-2.418 1.833a1.308 1.308 0 0 0-.338 1.69l2.431 4.2a1.283 1.283 0 0 0 1.625.546L9.3 22.969a9.863 9.863 0 0 0 1.521.884l.377 3A1.3 1.3 0 0 0 12.486 28h4.849a1.3 1.3 0 0 0 1.287-1.144l.377-3a9.863 9.863 0 0 0 1.521-.884l2.795 1.183a1.283 1.283 0 0 0 1.625-.546l2.431-4.2a1.311 1.311 0 0 0-.338-1.69l-2.418-1.833a6.721 6.721 0 0 0 .052-.886zm-9.7 4.55A4.55 4.55 0 1 1 19.519 15a4.555 4.555 0 0 1-4.55 4.55z" transform="translate(.683 1.4)" style="fill:#8998b5"/>
</svg>
