<svg xmlns="http://www.w3.org/2000/svg" width="32" height="32" viewBox="0 0 32 32">
    <path data-name="패스 609" d="M29.957 9.658 21.8 8.5l-3.654-7.2A2.374 2.374 0 0 0 17.058.239a2.419 2.419 0 0 0-3.2 1.059L10.208 8.5 2.043 9.658a2.429 2.429 0 0 0-1.365.678 2.286 2.286 0 0 0 .041 3.29l5.907 5.61-1.393 7.918a2.216 2.216 0 0 0-.034.384 2.287 2.287 0 0 0 .7 1.651 2.41 2.41 0 0 0 1.69.689 2.433 2.433 0 0 0 1.105-.278L16 25.865l7.3 3.735a2.451 2.451 0 0 0 1.518.234 2.335 2.335 0 0 0 1.95-2.687l-1.395-7.917 5.906-5.6a2.307 2.307 0 0 0-1.323-3.968m-7.545 9.776 1.251 7.1-6.544-3.352a2.436 2.436 0 0 0-2.228 0l-6.548 3.349 1.251-7.1a2.287 2.287 0 0 0-.687-2.058l-5.3-5.03 7.321-1.035a2.385 2.385 0 0 0 1.794-1.274L16 3.579l3.272 6.459a2.391 2.391 0 0 0 1.8 1.274l7.32 1.036-5.3 5.031a2.292 2.292 0 0 0-.679 2.056" transform="translate(0 1.061)" style="fill:#8998b5"/>
</svg>
