<svg xmlns="http://www.w3.org/2000/svg" width="32" height="32" viewBox="0 0 32 32">
    <path data-name="패스 3264" d="M6.207 3.05h22.224a3.112 3.112 0 0 1 2.463 5.018 5526.088 5526.088 0 0 0-8.854 11.4v9.067a3.119 3.119 0 0 1-3.116 3.116h-3.2a3.119 3.119 0 0 1-3.116-3.116v-9.067c-1.281-1.648-6.1-7.852-8.866-11.394A3.112 3.112 0 0 1 6.207 3.05zm12.717 25.563a.085.085 0 0 0 .08-.08v-9.586a1.518 1.518 0 0 1 .318-.93c.06-.076 5.978-7.717 9.178-11.81a.06.06 0 0 0 .007-.078.065.065 0 0 0-.072-.043H6.207a.065.065 0 0 0-.072.043.064.064 0 0 0 .011.083c3.187 4.086 9.125 11.727 9.184 11.8a1.518 1.518 0 0 1 .319.931v9.586a.085.085 0 0 0 .08.08z" transform="translate(-1.342 -1.372)" style="fill:#8998b5"/>
</svg>
