<svg xmlns="http://www.w3.org/2000/svg" width="32" height="32" viewBox="0 0 32 32">
    <g data-name="그룹 3817">
        <path data-name="패스 3248" d="M14.97 18.89a7.92 7.92 0 1 1 7.92-7.92 7.611 7.611 0 0 1-2.751 6 8.167 8.167 0 0 1-5.169 1.92zm0-12.8a4.88 4.88 0 1 0 0 9.76 5.234 5.234 0 0 0 3.319-1.3l.029-.022a4.667 4.667 0 0 0 1.532-3.558 4.886 4.886 0 0 0-4.88-4.88z" transform="translate(.95 -2.17)" style="fill:#8998b5"/>
        <path data-name="패스 3249" d="M17.37 13.05a25.076 25.076 0 0 1 8.567 1.713c4.755 1.9 5.753 4.427 5.753 6.207v3.2a1.52 1.52 0 0 1-1.52 1.52H4.57a1.52 1.52 0 0 1-1.52-1.52v-3.2c0-1.78 1-4.3 5.753-6.207a25.076 25.076 0 0 1 8.567-1.713zm11.28 9.6v-1.68c0-1.173-1.4-2.407-3.843-3.385a22.082 22.082 0 0 0-7.437-1.495 22.082 22.082 0 0 0-7.437 1.495C7.491 18.563 6.09 19.8 6.09 20.97v1.68z" transform="translate(-1.45 5.43)" style="fill:#8998b5"/>
    </g>
</svg>
