<svg xmlns="http://www.w3.org/2000/svg" width="32" height="32" viewBox="0 0 32 32">
    <path data-name="패스 3264" d="M6.752 3.35H29.4a3.367 3.367 0 0 1 2.66 5.424c-2.793 3.6-7.631 9.871-8.985 11.626v9.226A3.369 3.369 0 0 1 19.711 33h-3.256a3.369 3.369 0 0 1-3.361-3.37V20.4a8517.822 8517.822 0 0 0-9-11.621A3.367 3.367 0 0 1 6.752 3.35zm22.436 3.467H6.961c3.275 4.221 9.177 11.855 9.237 11.932a1.733 1.733 0 0 1 .362 1.06v9.72h3.045v-9.72a1.733 1.733 0 0 1 .361-1.058c.06-.078 5.942-7.707 9.222-11.934z" transform="translate(-2.004 -2.243)" style="fill:#8998b5"/>
</svg>
