<svg xmlns="http://www.w3.org/2000/svg" width="32" height="32" viewBox="0 0 32 32">
    <g data-name="그룹 4468">
        <g data-name="그룹 3625" transform="rotate(180 16.131 16)" style="clip-path:url(#pngozp9qka)">
            <g data-name="그룹 4469">
                <path data-name="패스 1606" d="M23.3 16.343a3.322 3.322 0 0 1-.947 2.321L12.209 29.13a1.831 1.831 0 0 1-2.63-2.55L19.5 16.343 9.579 6.106a1.831 1.831 0 0 1 2.63-2.55l10.148 10.468a3.321 3.321 0 0 1 .946 2.32" transform="translate(-7.067 -.504)" style="fill:#999"/>
                <path data-name="패스 3465" d="M23.3 16.343a3.322 3.322 0 0 1-.947 2.321L12.209 29.13a1.831 1.831 0 0 1-2.63-2.55L19.5 16.343 9.579 6.106a1.831 1.831 0 0 1 2.63-2.55l10.148 10.468a3.321 3.321 0 0 1 .946 2.32" transform="translate(7.175 -.504)" style="fill:#999"/>
            </g>
        </g>
    </g>
</svg>
