<svg id="그룹_4498" data-name="그룹 4498" xmlns="http://www.w3.org/2000/svg" xmlns:xlink="http://www.w3.org/1999/xlink" width="32" height="32" viewBox="0 0 32 32">
  <g id="그룹_4497" data-name="그룹 4497" class="cls-2">
    <path id="패스_3497" data-name="패스 3497" class="cls-1" d="M16,1A15,15,0,1,0,31,16,15,15,0,0,0,16,1m0,27.433A12.433,12.433,0,1,1,28.433,16,12.447,12.447,0,0,1,16,28.433"/>
    <path id="패스_3498" data-name="패스 3498" class="cls-1" d="M23.852,9.585a1.043,1.043,0,0,0-1.44-1.44L13.353,12.7a1.5,1.5,0,0,0-.658.657L8.142,22.415a1.043,1.043,0,0,0,1.44,1.44L18.641,19.3a1.5,1.5,0,0,0,.657-.658ZM11.694,20.3l2.221-4.418,2.2,2.2Z"/>
  </g>
</svg>
