<svg xmlns="http://www.w3.org/2000/svg" width="32" height="32" viewBox="0 0 32 32">
    <g data-name="그룹 4476">
        <g data-name="그룹 4475">
            <path data-name="합치기 8" d="m24.4 6.776-3.521-3.458L18.134.624A2.237 2.237 0 0 0 16.578 0H2.154A2.1 2.1 0 0 0 0 2.027v25.946A2.1 2.1 0 0 0 2.154 30h20.691A2.1 2.1 0 0 0 25 27.973V8.178a1.956 1.956 0 0 0-.6-1.402zm-6.59-.348V3.822l2.654 2.606zM16.516 8.86h5.9v18.708H2.585V2.432h12.639v5.212a1.258 1.258 0 0 0 1.292 1.216z" transform="translate(3.5 1)"/>
            <path data-name="패스 3470" d="M20.054 15.671h-.007a1.155 1.155 0 0 1-.82-.346l-1.292-1.3v8.116a1.165 1.165 0 1 1-2.331 0v-8.114l-1.292 1.3a1.166 1.166 0 0 1-1.65.007 1.173 1.173 0 0 1-.006-1.651l3.286-3.3a1.168 1.168 0 0 1 1.656 0l3.285 3.3a1.172 1.172 0 0 1 .338.825 1.165 1.165 0 0 1-1.166 1.165" transform="translate(-.77 1.733)" />
        </g>
    </g>
</svg>
