<svg data-name="icon_user info_16" xmlns="http://www.w3.org/2000/svg" width="32" height="32" viewBox="0 0 32 32">
    <g data-name="그룹 3862">
        <g data-name="그룹 3861">
            <path data-name="합치기 190" d="M21.114 24.145a.735.735 0 0 1-.716-.585l-.321-1.6a5.278 5.278 0 0 1-1.583-.922l-1.549.529a.721.721 0 0 1-.867-.324l-.863-1.494a.733.733 0 0 1 .144-.922l1.23-1.067a6.4 6.4 0 0 1-.086-.926 6.335 6.335 0 0 1 .086-.922l-1.23-1.067a.733.733 0 0 1-.144-.922l.863-1.494a.73.73 0 0 1 .867-.324l1.549.529a5.386 5.386 0 0 1 1.583-.926l.323-1.588a.739.739 0 0 1 .716-.589h1.729a.739.739 0 0 1 .718.589l.323 1.592a5.315 5.315 0 0 1 1.579.926l1.555-.529a.724.724 0 0 1 .867.324l.863 1.494a.741.741 0 0 1-.146.922l-1.234 1.067a5.822 5.822 0 0 1 .09.922 5.882 5.882 0 0 1-.09.926l1.23 1.067a.741.741 0 0 1 .146.922l-.863 1.494a.732.732 0 0 1-.867.324l-1.555-.529a5.209 5.209 0 0 1-1.579.922l-.323 1.6a.735.735 0 0 1-.718.585zm-2.078-7.307a2.93 2.93 0 1 0 2.927-2.928 2.938 2.938 0 0 0-2.927 2.928zM1.464 22.7A1.469 1.469 0 0 1 0 21.234v-2.416a4.277 4.277 0 0 1 2.036-3.7 18.848 18.848 0 0 1 9.68-2.667c.337 0 .658.017.981.03a10.366 10.366 0 0 0-.981 4.362A10.193 10.193 0 0 0 13.56 22.7zm4.4-17.209a5.49 5.49 0 1 1 5.488 5.493 5.487 5.487 0 0 1-5.491-5.495z" transform="translate(1.577 4.183)" style="fill:#8998b5"/>
        </g>
    </g>
</svg>
