<svg xmlns="http://www.w3.org/2000/svg" width="32" height="32" viewBox="0 0 32 32">
    <g data-name="그룹 3865">
        <g data-name="그룹 3864">
            <path data-name="패스 3284" d="M5.75 5.75H14a1.379 1.379 0 0 0 1.375-1.375A1.379 1.379 0 0 0 14 3H5.75A2.758 2.758 0 0 0 3 5.75V25a2.758 2.758 0 0 0 2.75 2.75H14a1.379 1.379 0 0 0 1.375-1.375A1.379 1.379 0 0 0 14 25H5.75z" transform="translate(2.629 .625)" style="fill:#dc5a5a"/>
            <path data-name="패스 3285" d="m25.019 12.753-3.837-3.836A.689.689 0 0 0 20 9.4v2.461h-9.625A1.379 1.379 0 0 0 9 13.234a1.379 1.379 0 0 0 1.375 1.375H20v2.461a.681.681 0 0 0 1.169.481L25 13.716a.677.677 0 0 0 .019-.963z" transform="translate(4.879 2.766)" style="fill:#dc5a5a"/>
        </g>
    </g>
</svg>
