<svg data-name="그룹 4604" xmlns="http://www.w3.org/2000/svg" width="32" height="32" viewBox="0 0 32 32">
    <g data-name="그룹 4603">
        <path data-name="패스 3586" d="M24.25 6.135a3 3 0 1 1-3-3 3 3 0 0 1 3 3" style="fill:#999"/>
        <path data-name="패스 3587" d="M13.75 6.135a3 3 0 1 1-3-3 3 3 0 0 1 3 3" style="fill:#999"/>
        <path data-name="패스 3588" d="M24.25 16a3 3 0 1 1-3-3 3 3 0 0 1 3 3" style="fill:#999"/>
        <path data-name="패스 3589" d="M13.75 16a3 3 0 1 1-3-3 3 3 0 0 1 3 3" style="fill:#999"/>
        <path data-name="패스 3590" d="M24.25 25.865a3 3 0 1 1-3-3 3 3 0 0 1 3 3" style="fill:#999"/>
        <path data-name="패스 3591" d="M13.75 25.865a3 3 0 1 1-3-3 3 3 0 0 1 3 3" style="fill:#999"/>
    </g>
</svg>
