<svg data-name="그룹 4140" xmlns="http://www.w3.org/2000/svg" width="32" height="32" viewBox="0 0 32 32">
    <g data-name="그룹 4139">
        <path data-name="패스 3240" d="M16 9a7 7 0 1 0 7 7 7 7 0 0 0-7-7m0 11.9a4.905 4.905 0 0 1-4.9-4.9c0-.044.005-.087.007-.131a3.886 3.886 0 0 0 .959.131A3.934 3.934 0 0 0 16 12.066a3.887 3.887 0 0 0-.133-.959c.045 0 .088-.007.133-.007a4.9 4.9 0 0 1 0 9.8" style="fill:#999"/>
        <path data-name="패스 3241" d="M16 28.04c-10.7 0-14.764-11.17-14.932-11.646a1.184 1.184 0 0 1 0-.788C1.236 15.13 5.3 3.96 16 3.96s14.765 11.17 14.933 11.646a1.184 1.184 0 0 1 0 .788C30.765 16.87 26.7 28.04 16 28.04M3.454 16c.775 1.889 4.458 9.671 12.546 9.671S27.772 17.889 28.546 16C27.772 14.111 24.088 6.329 16 6.329S4.229 14.111 3.454 16" style="fill:#999"/>
    </g>
</svg>
