<svg data-name="그룹 4144" xmlns="http://www.w3.org/2000/svg" width="32" height="32" viewBox="0 0 32 32">
    <g data-name="그룹 4143">
        <path data-name="패스 3244" d="M18.746 23.109a6.68 6.68 0 0 1-2.917.653 6.923 6.923 0 0 1-6.922-6.922 6.68 6.68 0 0 1 .653-2.917l2.877 2.877a2.672 2.672 0 0 1-.494.04 4.235 4.235 0 0 1-.949-.128c0 .039-.01.079-.01.128a4.852 4.852 0 0 0 4.845 4.845 4.369 4.369 0 0 0 1.305-.188z" style="fill:#999"/>
        <path data-name="패스 3245" d="m30.651 28.3-4.291-4.291a21.07 21.07 0 0 0 4.232-6.783 1.176 1.176 0 0 0 0-.781c-.168-.465-4.183-11.51-14.763-11.51A13.59 13.59 0 0 0 9.036 6.7L4.359 2.018a1.194 1.194 0 0 0-1.681 0 1.193 1.193 0 0 0 0 1.671L7.039 8.05 8.72 9.731l2.215 2.215L28.97 29.981a1.189 1.189 0 0 0 1.681-1.681M15.789 13.448a2.855 2.855 0 0 0 .04-.5 3.752 3.752 0 0 0-.129-.949h.129a4.846 4.846 0 0 1 4.845 4.845 4.711 4.711 0 0 1-.178 1.305zm6.311 6.309a6.745 6.745 0 0 0 .653-2.917 6.916 6.916 0 0 0-6.922-6.921 6.68 6.68 0 0 0-2.917.652l-2.128-2.126a11.123 11.123 0 0 1 5.043-1.167c8 0 11.638 7.693 12.4 9.562a18.941 18.941 0 0 1-3.521 5.518z" style="fill:#999"/>
        <path data-name="패스 3246" d="M22.622 26.985a13.59 13.59 0 0 1-6.793 1.76c-10.58 0-14.6-11.044-14.763-11.518a1.181 1.181 0 0 1 0-.783A21.093 21.093 0 0 1 5.3 9.662l1.65 1.652a19.013 19.013 0 0 0-3.53 5.526c.771 1.87 4.41 9.56 12.409 9.56a11.123 11.123 0 0 0 5.043-1.168z" style="fill:#999"/>
    </g>
</svg>
