<svg data-name="그룹 4605" xmlns="http://www.w3.org/2000/svg" width="32" height="32" viewBox="0 0 32 32">
    <g data-name="그룹 4592">
        <g data-name="그룹 4594">
            <path data-name="패스 3574" d="M18.906 29.163h-5.812a1.1 1.1 0 0 1-1.133-1.057V2.22a1.1 1.1 0 0 1 1.133-1.057h5.812a1.1 1.1 0 0 1 1.132 1.057v25.886a1.1 1.1 0 0 1-1.132 1.057" transform="translate(0 .837)" style="fill:#999"/>
            <path data-name="패스 3575" d="M29.9 29.163h-3.3a1.067 1.067 0 0 1-1.1-1.029V2.192a1.067 1.067 0 0 1 1.1-1.029h3.3A1.067 1.067 0 0 1 31 2.192v25.942a1.067 1.067 0 0 1-1.1 1.029" transform="translate(-1 .837)" style="fill:#999"/>
            <path data-name="패스 3576" d="M5.4 29.163H2.1A1.067 1.067 0 0 1 1 28.134V2.192a1.067 1.067 0 0 1 1.1-1.029h3.3a1.067 1.067 0 0 1 1.1 1.029v25.942a1.067 1.067 0 0 1-1.1 1.029" transform="translate(1 .837)" style="fill:#999"/>
        </g>
    </g>
</svg>
