<svg xmlns="http://www.w3.org/2000/svg" width="32" height="32" viewBox="0 0 32 32">
    <g data-name="그룹 4606">
        <g data-name="그룹 4600" transform="translate(0 -.267)">
            <g data-name="그룹 4602">
                <path data-name="패스 3583" d="M19.314 1.963H12.76a1.2 1.2 0 0 0-1.21 1.183V28.78a1.2 1.2 0 0 0 1.21 1.183h6.554a1.2 1.2 0 0 0 1.21-1.183V3.146a1.2 1.2 0 0 0-1.21-1.183M18.1 27.6h-4.13V4.329h4.13z" transform="translate(-.037 .304)" style="fill:#999"/>
                <path data-name="패스 3584" d="M29.043 1.963H25.01a1.2 1.2 0 0 0-1.21 1.183V28.78a1.2 1.2 0 0 0 1.21 1.183h4.033a1.2 1.2 0 0 0 1.21-1.183V3.146a1.2 1.2 0 0 0-1.21-1.183M27.833 27.6H26.22V4.329h1.613z" transform="translate(-.253 .304)" style="fill:#999"/>
                <path data-name="패스 3585" d="M7.043 1.963H3.01A1.2 1.2 0 0 0 1.8 3.146V28.78a1.2 1.2 0 0 0 1.21 1.183h4.033a1.2 1.2 0 0 0 1.21-1.183V3.146a1.2 1.2 0 0 0-1.21-1.183M5.833 27.6H4.22V4.329h1.613z" transform="translate(.2 .304)" style="fill:#999"/>
            </g>
        </g>
    </g>
</svg>
