<svg data-name="그룹 4608" xmlns="http://www.w3.org/2000/svg" width="32" height="32" viewBox="0 0 32 32">
    <g data-name="그룹 4651" style="clip-path:url(#a0rtcp7e8a)">
        <path data-name="패스 3610" d="M29.212 12.932H10.789A.83.83 0 0 0 10 13.8v4.727a.831.831 0 0 0 .789.868h18.423a.831.831 0 0 0 .788-.869V13.8a.83.83 0 0 0-.788-.867" style="fill:#999"/>
        <path data-name="패스 3611" d="M29.212 23.7H10.789a.83.83 0 0 0-.789.867V29.3a.831.831 0 0 0 .789.868h18.423A.831.831 0 0 0 30 29.3v-4.732a.83.83 0 0 0-.788-.867" style="fill:#999"/>
        <path data-name="패스 3612" d="M29.022 2.163H2.979A.978.978 0 0 0 2 3.141v4.5a.979.979 0 0 0 .979.979h26.043A.979.979 0 0 0 30 7.646v-4.5a.978.978 0 0 0-.978-.978" style="fill:#999"/>
    </g>
</svg>
